<?xml version="1.0" encoding="UTF-8" standalone="no"?>
<svg
   id="Layer_1"
   data-name="Layer 1"
   viewBox="0 0 108.61 109.11"
   version="1.1"
   sodipodi:docname="logo-dark.svg"
   width="108.61"
   height="109.11"
   inkscape:version="1.3.2 (091e20ef0f, 2023-11-25)"
   xmlns:inkscape="http://www.inkscape.org/namespaces/inkscape"
   xmlns:sodipodi="http://sodipodi.sourceforge.net/DTD/sodipodi-0.dtd"
   xmlns="http://www.w3.org/2000/svg"
   xmlns:svg="http://www.w3.org/2000/svg">
  <sodipodi:namedview
     id="namedview64"
     pagecolor="#505050"
     bordercolor="#eeeeee"
     borderopacity="1"
     inkscape:showpageshadow="0"
     inkscape:pageopacity="0"
     inkscape:pagecheckerboard="0"
     inkscape:deskcolor="#d1d1d1"
     inkscape:zoom="2.6"
     inkscape:cx="147.5"
     inkscape:cy="55"
     inkscape:window-width="3434"
     inkscape:window-height="702"
     inkscape:window-x="0"
     inkscape:window-y="24"
     inkscape:window-maximized="1"
     inkscape:current-layer="Layer_1" />
  <defs
     id="defs1">
    <style
       id="style1">
      .cls-1 {
        font-family: 42dotSans-ExtraBold, '42dot Sans';
        font-size: 20px;
        font-weight: 700;
        letter-spacing: -.02em;
      }

      .cls-1, .cls-2 {
        fill: #fff;
      }
    </style>
  </defs>
  <g
     id="g29"
     transform="translate(-45.29,-45.1)">
    <path
       class="cls-2"
       d="m 120.87,98.3 c -0.51,-1.7 -1.55,-3.04 -2.97,-4.01 -0.18,-0.11 -0.36,-0.21 -0.55,-0.3 -0.03,-0.02 -0.06,-0.03 -0.09,-0.04 -0.16,-0.08 -0.31,-0.15 -0.47,-0.21 -0.03,-0.01 -0.06,-0.02 -0.09,-0.03 -0.16,-0.06 -0.32,-0.12 -0.48,-0.17 -0.03,0 -0.06,-0.02 -0.09,-0.03 -0.16,-0.05 -0.32,-0.09 -0.48,-0.13 -0.04,0 -0.07,-0.02 -0.11,-0.02 -0.15,-0.03 -0.29,-0.06 -0.44,-0.08 -0.06,0 -0.11,-0.01 -0.17,-0.02 -0.12,-0.01 -0.24,-0.03 -0.36,-0.03 -0.09,0 -0.17,0 -0.26,-0.01 -0.08,0 -0.16,0 -0.25,0 -0.12,0 -0.25,0 -0.37,0.01 -0.04,0 -0.07,0 -0.11,0 -1.05,0.08 -2.08,0.41 -3.03,0.99 -0.33,0.2 -0.66,0.42 -0.98,0.67 -0.09,0.09 -0.18,0.18 -0.26,0.28 -0.07,0.07 -0.15,0.13 -0.22,0.21 -0.07,0.11 -0.14,0.22 -0.21,0.33 -0.07,0.1 -0.14,0.21 -0.2,0.31 -0.04,0.07 -0.08,0.14 -0.12,0.21 -0.21,0.34 -0.38,0.68 -0.52,1.02 0,0 -0.02,-0.02 -0.02,-0.02 -0.15,0.32 -0.19,0.39 -0.27,1 -0.07,0.3 -0.11,0.59 -0.14,0.9 -0.05,0.22 -0.06,0.49 -0.04,0.9 0,0.48 0.04,0.98 0.1,1.51 0.15,0.68 0.4,1.28 0.74,1.82 0.13,0.22 0.27,0.43 0.43,0.65 0.28,0.31 0.59,0.61 0.91,0.89 v 0.05 c 0.28,0.21 0.56,0.41 0.85,0.6 0.06,0.04 0.13,0.08 0.2,0.12 0.11,0.08 0.21,0.15 0.31,0.22 1.41,0.82 3.58,0.76 5.11,0.33 0.16,-0.07 0.32,-0.13 0.47,-0.2 1.49,-0.62 2.45,-1.46 3.44,-2.75 0.96,-1.49 0.93,-3.25 0.72,-4.98 z m -9.35,6.66 q -0.19,-0.1 -0.37,-0.19 -0.48,-0.2 -0.87,-0.54 c -0.98,-1.17 -1.63,-2.24 -1.64,-3.81 0,-0.16 0,-0.32 0,-0.47 0,-0.23 0,-0.45 0,-0.66 0.04,-0.32 0.08,-0.65 0.12,-0.97 0.15,-0.7 0.44,-1.34 0.94,-2.05 2.17,-2.3 5.46,-2.73 7.98,-0.85 0.14,0.13 0.27,0.25 0.4,0.37 0.5,0.46 0.92,0.92 1.26,1.52 0.57,1.26 0.67,2.87 0.29,4.21 -0.64,1.6 -1.84,2.96 -3.4,3.63 -1.65,0.52 -3.14,0.56 -4.73,-0.19 z"
       id="path15" />
    <path
       class="cls-2"
       d="m 125.92,85.53 c -0.3,-1 -0.92,-1.79 -1.75,-2.37 -0.11,-0.06 -0.22,-0.12 -0.32,-0.18 -0.02,0 -0.04,-0.02 -0.06,-0.03 -0.09,-0.04 -0.18,-0.09 -0.28,-0.12 -0.02,0 -0.03,-0.01 -0.05,-0.02 -0.09,-0.04 -0.19,-0.07 -0.28,-0.1 -0.02,0 -0.03,0 -0.05,-0.01 -0.09,-0.03 -0.19,-0.05 -0.28,-0.08 -0.02,0 -0.04,0 -0.07,-0.01 -0.09,-0.02 -0.17,-0.03 -0.26,-0.05 -0.03,0 -0.07,0 -0.1,-0.01 -0.07,0 -0.14,-0.02 -0.21,-0.02 -0.05,0 -0.1,0 -0.15,0 -0.05,0 -0.1,0 -0.15,0 -0.07,0 -0.15,0 -0.22,0 -0.02,0 -0.04,0 -0.06,0 -0.62,0.05 -1.23,0.24 -1.79,0.59 -0.2,0.12 -0.39,0.25 -0.58,0.4 -0.05,0.05 -0.11,0.11 -0.16,0.16 -0.04,0.04 -0.09,0.08 -0.13,0.12 -0.04,0.07 -0.08,0.13 -0.13,0.2 -0.04,0.06 -0.08,0.12 -0.12,0.18 -0.02,0.04 -0.05,0.08 -0.07,0.12 -0.12,0.2 -0.23,0.4 -0.3,0.6 0,0 0,0 -0.01,-0.01 -0.09,0.19 -0.11,0.23 -0.16,0.59 -0.04,0.17 -0.07,0.35 -0.08,0.53 -0.03,0.13 -0.04,0.29 -0.02,0.53 0,0.29 0.03,0.58 0.06,0.89 0.09,0.4 0.24,0.76 0.44,1.07 0.07,0.13 0.16,0.26 0.25,0.38 0.17,0.18 0.35,0.36 0.54,0.53 v 0.03 c 0.16,0.12 0.33,0.24 0.5,0.35 0.04,0.03 0.08,0.05 0.12,0.07 0.06,0.04 0.12,0.09 0.19,0.13 0.83,0.48 2.11,0.45 3.01,0.2 0.09,-0.04 0.19,-0.08 0.28,-0.12 0.88,-0.37 1.45,-0.86 2.03,-1.62 0.56,-0.88 0.55,-1.91 0.43,-2.93 z m -5.35,3.63 q -0.1,-0.05 -0.2,-0.1 -0.26,-0.11 -0.46,-0.29 c -0.52,-0.62 -0.86,-1.19 -0.87,-2.02 0,-0.09 0,-0.17 0,-0.25 0,-0.12 0,-0.24 0,-0.35 0.02,-0.17 0.04,-0.34 0.06,-0.52 0.08,-0.37 0.23,-0.71 0.5,-1.08 1.15,-1.22 2.9,-1.45 4.23,-0.45 0.07,0.07 0.14,0.13 0.21,0.2 0.27,0.24 0.49,0.49 0.67,0.8 0.3,0.67 0.35,1.52 0.16,2.23 -0.34,0.85 -0.98,1.57 -1.8,1.93 -0.88,0.28 -1.67,0.3 -2.51,-0.1 z"
       id="path16" />
    <path
       class="cls-2"
       d="m 124.86,116.36 c 0.7,-0.78 1.05,-1.72 1.09,-2.74 0,-0.12 0,-0.25 -0.02,-0.37 0,-0.02 0,-0.04 0,-0.06 -0.01,-0.1 -0.02,-0.2 -0.04,-0.3 0,-0.02 0,-0.04 -0.01,-0.05 -0.02,-0.1 -0.04,-0.2 -0.06,-0.29 0,-0.02 0,-0.03 -0.01,-0.05 -0.02,-0.09 -0.05,-0.19 -0.08,-0.28 0,-0.02 -0.02,-0.04 -0.02,-0.06 -0.03,-0.08 -0.06,-0.16 -0.1,-0.24 -0.01,-0.03 -0.03,-0.06 -0.04,-0.09 -0.03,-0.06 -0.06,-0.13 -0.09,-0.19 -0.02,-0.05 -0.05,-0.09 -0.07,-0.13 -0.02,-0.04 -0.05,-0.08 -0.08,-0.12 -0.04,-0.06 -0.08,-0.12 -0.12,-0.18 -0.01,-0.02 -0.02,-0.03 -0.04,-0.05 -0.37,-0.5 -0.85,-0.92 -1.44,-1.21 -0.2,-0.11 -0.42,-0.2 -0.64,-0.28 -0.08,-0.02 -0.15,-0.03 -0.22,-0.05 -0.06,-0.02 -0.11,-0.03 -0.17,-0.05 -0.08,0 -0.16,0 -0.23,0 -0.07,0 -0.15,0 -0.22,0 -0.05,0 -0.1,0 -0.14,0 -0.23,0 -0.46,0.02 -0.67,0.06 0,0 0,-0.01 0,-0.02 -0.21,0.02 -0.25,0.03 -0.59,0.18 -0.17,0.06 -0.33,0.13 -0.49,0.21 -0.12,0.04 -0.26,0.12 -0.47,0.26 -0.24,0.15 -0.48,0.33 -0.72,0.52 -0.3,0.28 -0.52,0.6 -0.68,0.94 -0.07,0.13 -0.14,0.27 -0.19,0.42 -0.07,0.24 -0.13,0.49 -0.17,0.73 h -0.02 c -0.02,0.22 -0.03,0.42 -0.04,0.63 0,0.05 0,0.09 0,0.14 0,0.08 0,0.15 -0.01,0.23 0.02,0.96 0.73,2.03 1.42,2.67 0.08,0.06 0.17,0.12 0.25,0.18 0.77,0.55 1.49,0.78 2.45,0.88 1.04,0.02 1.92,-0.54 2.72,-1.18 z m -5.9,-2.65 q 0,-0.11 -0.02,-0.22 -0.04,-0.28 0,-0.54 c 0.25,-0.77 0.56,-1.36 1.26,-1.8 0.07,-0.04 0.14,-0.09 0.21,-0.13 0.1,-0.07 0.2,-0.12 0.3,-0.18 0.16,-0.07 0.32,-0.14 0.47,-0.22 0.36,-0.13 0.73,-0.17 1.18,-0.15 1.64,0.34 2.75,1.7 2.61,3.37 -0.02,0.1 -0.04,0.19 -0.06,0.28 -0.07,0.35 -0.16,0.67 -0.33,0.99 -0.41,0.61 -1.11,1.1 -1.82,1.3 -0.9,0.16 -1.85,0 -2.59,-0.52 -0.7,-0.6 -1.13,-1.26 -1.23,-2.18 z"
       id="path17" />
    <path
       class="cls-2"
       d="m 118.65,132.71 c 0.59,-0.66 0.89,-1.46 0.92,-2.32 0,-0.11 0,-0.21 -0.02,-0.31 0,-0.02 0,-0.03 0,-0.05 0,-0.09 -0.02,-0.17 -0.03,-0.25 0,-0.02 0,-0.03 0,-0.05 -0.02,-0.08 -0.03,-0.17 -0.05,-0.25 0,-0.01 0,-0.03 -0.01,-0.04 -0.02,-0.08 -0.04,-0.16 -0.07,-0.24 0,-0.02 -0.01,-0.04 -0.02,-0.05 -0.03,-0.07 -0.05,-0.14 -0.08,-0.21 -0.01,-0.03 -0.02,-0.05 -0.04,-0.08 -0.03,-0.05 -0.05,-0.11 -0.08,-0.16 -0.02,-0.04 -0.04,-0.08 -0.06,-0.11 -0.02,-0.04 -0.04,-0.07 -0.06,-0.11 -0.03,-0.05 -0.07,-0.1 -0.1,-0.15 -0.01,-0.01 -0.02,-0.03 -0.03,-0.04 -0.31,-0.43 -0.72,-0.78 -1.22,-1.03 -0.17,-0.09 -0.35,-0.17 -0.54,-0.24 -0.06,-0.02 -0.13,-0.03 -0.19,-0.04 -0.05,-0.01 -0.1,-0.03 -0.15,-0.04 -0.07,0 -0.13,0 -0.2,0 -0.06,0 -0.12,0 -0.19,0 -0.04,0 -0.08,0 -0.12,0 -0.2,0 -0.39,0.02 -0.57,0.05 0,0 0,-0.01 0,-0.02 -0.18,0.02 -0.21,0.02 -0.5,0.15 -0.14,0.05 -0.28,0.11 -0.42,0.18 -0.11,0.04 -0.22,0.1 -0.4,0.22 -0.21,0.13 -0.41,0.28 -0.61,0.44 -0.25,0.24 -0.44,0.51 -0.58,0.79 -0.06,0.11 -0.11,0.23 -0.16,0.35 -0.06,0.2 -0.11,0.41 -0.14,0.62 h -0.02 c -0.02,0.19 -0.03,0.36 -0.03,0.53 0,0.04 0,0.08 0,0.12 0,0.07 0,0.13 -0.01,0.19 0.02,0.81 0.62,1.72 1.2,2.26 0.07,0.05 0.14,0.1 0.21,0.15 0.66,0.47 1.26,0.66 2.07,0.74 0.88,0.02 1.63,-0.46 2.31,-1 z m -4.88,-2.26 q 0,-0.09 -0.01,-0.18 -0.01,-0.09 0,-0.44 c 0.21,-0.62 0.45,-1.1 1.02,-1.46 0.06,-0.04 0.12,-0.07 0.17,-0.1 0.08,-0.05 0.16,-0.1 0.24,-0.14 0.13,-0.06 0.26,-0.12 0.38,-0.18 0.29,-0.1 0.59,-0.14 0.96,-0.12 1.33,0.27 2.22,1.38 2.11,2.72 -0.02,0.08 -0.03,0.15 -0.04,0.23 -0.05,0.29 -0.13,0.54 -0.27,0.8 -0.33,0.49 -0.9,0.89 -1.47,1.06 -0.73,0.13 -1.5,0 -2.09,-0.42 -0.56,-0.49 -0.91,-1.02 -1,-1.77 z"
       id="path18" />
    <path
       class="cls-2"
       d="m 83.64,132.71 c 0.59,-0.66 0.89,-1.46 0.92,-2.32 0,-0.11 0,-0.21 -0.02,-0.31 0,-0.02 0,-0.03 0,-0.05 0,-0.09 -0.02,-0.17 -0.03,-0.25 0,-0.02 0,-0.03 0,-0.05 -0.02,-0.08 -0.03,-0.17 -0.05,-0.25 0,-0.01 0,-0.03 -0.01,-0.04 -0.02,-0.08 -0.04,-0.16 -0.07,-0.24 0,-0.02 -0.01,-0.04 -0.02,-0.05 -0.03,-0.07 -0.05,-0.14 -0.08,-0.21 -0.01,-0.03 -0.02,-0.05 -0.04,-0.08 -0.03,-0.05 -0.05,-0.11 -0.08,-0.16 -0.02,-0.04 -0.04,-0.08 -0.06,-0.11 -0.02,-0.04 -0.04,-0.07 -0.06,-0.11 -0.03,-0.05 -0.07,-0.1 -0.1,-0.15 -0.01,-0.01 -0.02,-0.03 -0.03,-0.04 -0.31,-0.43 -0.72,-0.78 -1.22,-1.03 -0.17,-0.09 -0.35,-0.17 -0.54,-0.24 -0.06,-0.02 -0.13,-0.03 -0.19,-0.04 -0.05,-0.01 -0.1,-0.03 -0.15,-0.04 -0.07,0 -0.13,0 -0.2,0 -0.06,0 -0.12,0 -0.19,0 -0.04,0 -0.08,0 -0.12,0 -0.2,0 -0.39,0.02 -0.57,0.05 0,0 0,-0.01 0,-0.02 -0.18,0.02 -0.21,0.02 -0.5,0.15 -0.14,0.05 -0.28,0.11 -0.42,0.18 -0.11,0.04 -0.22,0.1 -0.4,0.22 -0.21,0.13 -0.41,0.28 -0.61,0.44 -0.25,0.24 -0.44,0.51 -0.58,0.79 -0.06,0.11 -0.11,0.23 -0.16,0.35 -0.06,0.2 -0.11,0.41 -0.14,0.62 H 77.9 c -0.02,0.19 -0.03,0.36 -0.03,0.53 0,0.04 0,0.08 0,0.12 0,0.07 0,0.13 -0.01,0.19 0.02,0.81 0.62,1.72 1.2,2.26 0.07,0.05 0.14,0.1 0.21,0.15 0.66,0.47 1.26,0.66 2.07,0.74 0.88,0.02 1.63,-0.46 2.31,-1 z m -4.87,-2.26 q 0,-0.09 -0.01,-0.18 -0.01,-0.09 0,-0.44 c 0.21,-0.62 0.45,-1.1 1.02,-1.46 0.06,-0.04 0.12,-0.07 0.17,-0.1 0.08,-0.05 0.16,-0.1 0.24,-0.14 0.13,-0.06 0.26,-0.12 0.38,-0.18 0.29,-0.1 0.59,-0.14 0.96,-0.12 1.33,0.27 2.22,1.38 2.11,2.72 -0.02,0.08 -0.03,0.15 -0.04,0.23 -0.05,0.29 -0.13,0.54 -0.27,0.8 -0.33,0.49 -0.9,0.89 -1.47,1.06 -0.73,0.13 -1.5,0 -2.09,-0.42 -0.56,-0.49 -0.91,-1.02 -1,-1.77 z"
       id="path19" />
    <path
       class="cls-2"
       d="m 137.89,80.32 c 0.48,-0.54 0.72,-1.19 0.75,-1.89 0,-0.09 0,-0.17 -0.01,-0.25 0,-0.01 0,-0.03 0,-0.04 0,-0.07 -0.02,-0.14 -0.03,-0.21 0,-0.01 0,-0.02 0,-0.04 -0.01,-0.07 -0.03,-0.14 -0.04,-0.2 0,-0.01 0,-0.02 0,-0.04 -0.02,-0.07 -0.04,-0.13 -0.06,-0.19 0,-0.01 -0.01,-0.03 -0.02,-0.04 -0.02,-0.06 -0.04,-0.11 -0.07,-0.17 0,-0.02 -0.02,-0.04 -0.03,-0.06 -0.02,-0.04 -0.04,-0.09 -0.07,-0.13 -0.02,-0.03 -0.03,-0.06 -0.05,-0.09 -0.02,-0.03 -0.03,-0.06 -0.05,-0.09 -0.03,-0.04 -0.05,-0.08 -0.08,-0.13 0,-0.01 -0.02,-0.02 -0.03,-0.03 -0.25,-0.35 -0.59,-0.63 -0.99,-0.84 -0.14,-0.07 -0.29,-0.14 -0.44,-0.2 -0.05,-0.01 -0.1,-0.02 -0.15,-0.03 -0.04,-0.01 -0.08,-0.02 -0.12,-0.03 -0.05,0 -0.11,0 -0.16,0 -0.05,0 -0.1,0 -0.15,0 -0.03,0 -0.07,0 -0.1,0 -0.16,0 -0.32,0.01 -0.46,0.04 0,0 0,0 0,-0.01 -0.14,0.01 -0.17,0.02 -0.4,0.12 -0.12,0.04 -0.23,0.09 -0.34,0.14 -0.09,0.03 -0.18,0.08 -0.32,0.18 -0.17,0.11 -0.33,0.23 -0.5,0.36 -0.21,0.2 -0.36,0.41 -0.47,0.65 -0.05,0.09 -0.09,0.19 -0.13,0.29 -0.05,0.17 -0.09,0.34 -0.11,0.51 h -0.02 c -0.01,0.15 -0.02,0.29 -0.03,0.43 0,0.03 0,0.06 0,0.09 0,0.05 0,0.1 0,0.16 0.02,0.66 0.5,1.4 0.98,1.84 0.06,0.04 0.11,0.08 0.17,0.12 0.53,0.38 1.03,0.54 1.69,0.6 0.72,0.01 1.32,-0.37 1.88,-0.81 z m -3.9,-1.84 q 0,-0.07 -0.01,-0.14 -0.01,-0.07 0,-0.35 c 0.16,-0.49 0.36,-0.87 0.81,-1.15 0.05,-0.03 0.09,-0.06 0.14,-0.08 0.07,-0.04 0.13,-0.08 0.19,-0.11 0.1,-0.05 0.2,-0.09 0.3,-0.14 0.23,-0.08 0.46,-0.11 0.76,-0.09 1.05,0.21 1.75,1.09 1.66,2.15 -0.01,0.06 -0.02,0.12 -0.04,0.18 -0.04,0.23 -0.1,0.43 -0.21,0.63 -0.26,0.39 -0.71,0.7 -1.16,0.83 -0.57,0.1 -1.18,0 -1.65,-0.33 -0.44,-0.38 -0.72,-0.81 -0.79,-1.39 z"
       id="path20" />
    <path
       class="cls-2"
       d="m 96.63,141.09 c -0.48,0.54 -0.72,1.19 -0.75,1.89 0,0.09 0,0.17 0.01,0.25 0,0.01 0,0.03 0,0.04 0,0.07 0.02,0.14 0.03,0.21 0,0.01 0,0.02 0,0.04 0.01,0.07 0.03,0.14 0.04,0.2 0,0.01 0,0.02 0,0.04 0.02,0.07 0.04,0.13 0.06,0.19 0,0.01 0.01,0.03 0.02,0.04 0.02,0.06 0.04,0.11 0.07,0.17 0,0.02 0.02,0.04 0.03,0.06 0.02,0.04 0.04,0.09 0.07,0.13 0.02,0.03 0.03,0.06 0.05,0.09 0.02,0.03 0.03,0.06 0.05,0.09 0.03,0.04 0.05,0.08 0.08,0.13 0,0.01 0.02,0.02 0.03,0.03 0.25,0.35 0.59,0.63 0.99,0.84 0.14,0.07 0.29,0.14 0.44,0.2 0.05,0.01 0.1,0.02 0.15,0.03 0.04,0.01 0.08,0.02 0.12,0.03 0.05,0 0.11,0 0.16,0 0.05,0 0.1,0 0.15,0 0.03,0 0.07,0 0.1,0 0.16,0 0.32,-0.01 0.46,-0.04 0,0 0,0 0,0.01 0.14,-0.01 0.17,-0.02 0.4,-0.12 0.12,-0.04 0.23,-0.09 0.34,-0.14 0.09,-0.03 0.18,-0.08 0.32,-0.18 0.17,-0.11 0.33,-0.23 0.5,-0.36 0.21,-0.2 0.36,-0.41 0.47,-0.65 0.05,-0.09 0.09,-0.19 0.13,-0.29 0.05,-0.17 0.09,-0.34 0.11,-0.51 h 0.02 c 0.01,-0.15 0.02,-0.29 0.03,-0.43 0,-0.03 0,-0.06 0,-0.09 0,-0.05 0,-0.1 0,-0.16 -0.02,-0.66 -0.5,-1.4 -0.98,-1.84 -0.06,-0.04 -0.11,-0.08 -0.17,-0.12 -0.53,-0.38 -1.03,-0.54 -1.69,-0.6 -0.72,-0.01 -1.32,0.37 -1.88,0.81 z m 3.91,1.83 q 0,0.07 0.01,0.14 0.01,0.07 0,0.35 c -0.16,0.49 -0.36,0.87 -0.81,1.15 -0.05,0.03 -0.09,0.06 -0.14,0.08 -0.07,0.04 -0.13,0.08 -0.19,0.11 -0.1,0.05 -0.2,0.09 -0.3,0.14 -0.23,0.08 -0.46,0.11 -0.76,0.09 -1.05,-0.21 -1.75,-1.09 -1.66,-2.15 0.01,-0.06 0.02,-0.12 0.04,-0.18 0.04,-0.23 0.1,-0.43 0.21,-0.63 0.26,-0.39 0.71,-0.7 1.16,-0.83 0.57,-0.1 1.18,0 1.65,0.33 0.44,0.38 0.72,0.81 0.79,1.39 z"
       id="path21" />
    <path
       class="cls-2"
       d="m 120.91,139.5 c -0.38,0.42 -0.57,0.93 -0.59,1.48 0,0.07 0,0.13 0.01,0.2 0,0.01 0,0.02 0,0.03 0,0.05 0.01,0.11 0.02,0.16 0,0 0,0.02 0,0.03 0,0.05 0.02,0.11 0.03,0.16 0,0 0,0.02 0,0.03 0.01,0.05 0.03,0.1 0.05,0.15 0,0.01 0,0.02 0.01,0.03 0.02,0.04 0.03,0.09 0.05,0.13 0,0.02 0.02,0.03 0.02,0.05 0.02,0.04 0.03,0.07 0.05,0.1 0.01,0.02 0.03,0.05 0.04,0.07 0.01,0.02 0.03,0.05 0.04,0.07 0.02,0.03 0.04,0.07 0.07,0.1 0,0 0.01,0.02 0.02,0.03 0.2,0.27 0.46,0.5 0.78,0.66 0.11,0.06 0.23,0.11 0.35,0.15 0.04,0 0.08,0.02 0.12,0.03 0.03,0 0.06,0.02 0.09,0.03 0.04,0 0.08,0 0.13,0 0.04,0 0.08,0 0.12,0 0.03,0 0.05,0 0.08,0 0.13,0 0.25,-0.01 0.36,-0.03 0,0 0,0 0,0.01 0.11,-0.01 0.14,-0.01 0.32,-0.1 0.09,-0.03 0.18,-0.07 0.27,-0.11 0.07,-0.02 0.14,-0.07 0.25,-0.14 0.13,-0.08 0.26,-0.18 0.39,-0.28 0.16,-0.15 0.28,-0.32 0.37,-0.51 0.04,-0.07 0.07,-0.15 0.1,-0.23 0.04,-0.13 0.07,-0.26 0.09,-0.4 h 0.01 c 0.01,-0.12 0.02,-0.23 0.02,-0.34 0,-0.02 0,-0.05 0,-0.07 0,-0.04 0,-0.08 0,-0.12 -0.01,-0.52 -0.39,-1.1 -0.77,-1.44 -0.05,-0.03 -0.09,-0.06 -0.13,-0.09 -0.42,-0.3 -0.81,-0.42 -1.32,-0.47 -0.56,0 -1.04,0.29 -1.47,0.64 z m 2.95,1.45 q 0,0.05 0,0.1 0,0.05 0,0.25 c -0.12,0.36 -0.26,0.63 -0.59,0.84 -0.03,0.02 -0.07,0.04 -0.1,0.06 -0.05,0.03 -0.09,0.06 -0.14,0.08 -0.07,0.03 -0.15,0.07 -0.22,0.1 -0.17,0.06 -0.34,0.08 -0.55,0.07 -0.76,-0.16 -1.28,-0.79 -1.21,-1.56 0,-0.04 0.02,-0.09 0.03,-0.13 0.03,-0.16 0.07,-0.31 0.15,-0.46 0.19,-0.28 0.52,-0.51 0.84,-0.61 0.42,-0.07 0.86,0 1.2,0.24 0.32,0.28 0.52,0.59 0.57,1.01 z"
       id="path22" />
    <path
       class="cls-2"
       d="m 144.54,98.37 c -0.38,0.42 -0.57,0.93 -0.59,1.48 0,0.07 0,0.13 0.01,0.2 0,0.01 0,0.02 0,0.03 0,0.05 0.01,0.11 0.02,0.16 0,0 0,0.02 0,0.03 0,0.05 0.02,0.11 0.03,0.16 0,0 0,0.02 0,0.03 0.01,0.05 0.03,0.1 0.05,0.15 0,0.01 0,0.02 0.01,0.03 0.02,0.04 0.03,0.09 0.05,0.13 0,0.02 0.02,0.03 0.02,0.05 0.02,0.04 0.03,0.07 0.05,0.1 0.01,0.02 0.03,0.05 0.04,0.07 0.01,0.02 0.03,0.05 0.04,0.07 0.02,0.03 0.04,0.07 0.07,0.1 0,0 0.01,0.02 0.02,0.03 0.2,0.27 0.46,0.5 0.78,0.66 0.11,0.06 0.23,0.11 0.35,0.15 0.04,0 0.08,0.02 0.12,0.03 0.03,0 0.06,0.02 0.09,0.03 0.04,0 0.08,0 0.13,0 0.04,0 0.08,0 0.12,0 0.03,0 0.05,0 0.08,0 0.13,0 0.25,-0.01 0.36,-0.03 0,0 0,0 0,0.01 0.11,-0.01 0.14,-0.01 0.32,-0.1 0.09,-0.03 0.18,-0.07 0.27,-0.11 0.07,-0.02 0.14,-0.07 0.25,-0.14 0.13,-0.08 0.26,-0.18 0.39,-0.28 0.16,-0.15 0.28,-0.32 0.37,-0.51 0.04,-0.07 0.07,-0.15 0.1,-0.23 0.04,-0.13 0.07,-0.26 0.09,-0.4 h 0.01 c 0.01,-0.12 0.02,-0.23 0.02,-0.34 0,-0.02 0,-0.05 0,-0.07 0,-0.04 0,-0.08 0,-0.12 -0.01,-0.52 -0.39,-1.1 -0.77,-1.44 -0.05,-0.03 -0.09,-0.06 -0.13,-0.09 -0.42,-0.3 -0.81,-0.42 -1.32,-0.47 -0.56,0 -1.04,0.29 -1.47,0.64 z m 2.96,1.45 q 0,0.05 0,0.1 0,0.05 0,0.25 c -0.12,0.36 -0.26,0.63 -0.59,0.84 -0.03,0.02 -0.07,0.04 -0.1,0.06 -0.05,0.03 -0.09,0.06 -0.14,0.08 -0.07,0.03 -0.15,0.07 -0.22,0.1 -0.17,0.06 -0.34,0.08 -0.55,0.07 -0.76,-0.16 -1.28,-0.79 -1.21,-1.56 0,-0.04 0.02,-0.09 0.03,-0.13 0.03,-0.16 0.07,-0.31 0.15,-0.46 0.19,-0.28 0.52,-0.51 0.84,-0.61 0.42,-0.07 0.86,0 1.2,0.24 0.32,0.28 0.52,0.59 0.57,1.01 z"
       id="path23" />
    <path
       class="cls-2"
       d="m 73.46,139.53 c -0.38,0.42 -0.57,0.93 -0.59,1.48 0,0.07 0,0.13 0.01,0.2 0,0.01 0,0.02 0,0.03 0,0.05 0.01,0.11 0.02,0.16 0,0 0,0.02 0,0.03 0,0.05 0.02,0.11 0.03,0.16 0,0 0,0.02 0,0.03 0.01,0.05 0.03,0.1 0.05,0.15 0,0.01 0,0.02 0.01,0.03 0.02,0.04 0.03,0.09 0.05,0.13 0,0.02 0.02,0.03 0.02,0.05 0.02,0.04 0.03,0.07 0.05,0.1 0.01,0.02 0.03,0.05 0.04,0.07 0.01,0.02 0.03,0.05 0.04,0.07 0.02,0.03 0.04,0.07 0.07,0.1 0,0 0.01,0.02 0.02,0.03 0.2,0.27 0.46,0.5 0.78,0.66 0.11,0.06 0.23,0.11 0.35,0.15 0.04,0 0.08,0.02 0.12,0.03 0.03,0 0.06,0.02 0.09,0.03 0.04,0 0.08,0 0.13,0 0.04,0 0.08,0 0.12,0 0.03,0 0.05,0 0.08,0 0.13,0 0.25,-0.01 0.36,-0.03 0,0 0,0 0,0.01 0.11,-0.01 0.14,-0.01 0.32,-0.1 0.09,-0.03 0.18,-0.07 0.27,-0.11 0.07,-0.02 0.14,-0.07 0.25,-0.14 0.13,-0.08 0.26,-0.18 0.39,-0.28 0.16,-0.15 0.28,-0.32 0.37,-0.51 0.04,-0.07 0.07,-0.15 0.1,-0.23 0.04,-0.13 0.07,-0.26 0.09,-0.4 h 0.01 c 0.01,-0.12 0.02,-0.23 0.02,-0.34 0,-0.02 0,-0.05 0,-0.07 0,-0.04 0,-0.08 0,-0.12 -0.01,-0.52 -0.39,-1.1 -0.77,-1.44 -0.05,-0.03 -0.09,-0.06 -0.13,-0.09 -0.42,-0.3 -0.81,-0.42 -1.32,-0.47 -0.56,0 -1.04,0.29 -1.47,0.64 z m 2.95,1.45 q 0,0.05 0,0.1 0,0.05 0,0.25 c -0.12,0.36 -0.26,0.63 -0.59,0.84 -0.03,0.02 -0.07,0.04 -0.1,0.06 -0.05,0.03 -0.09,0.06 -0.14,0.08 -0.07,0.03 -0.15,0.07 -0.22,0.1 -0.17,0.06 -0.34,0.08 -0.55,0.07 -0.76,-0.16 -1.28,-0.79 -1.21,-1.56 0,-0.04 0.02,-0.09 0.03,-0.13 0.03,-0.16 0.07,-0.31 0.15,-0.46 0.19,-0.28 0.52,-0.51 0.84,-0.61 0.42,-0.07 0.86,0 1.2,0.24 0.32,0.28 0.52,0.59 0.57,1.01 z"
       id="path24" />
    <path
       class="cls-2"
       d="m 138.52,120.53 c -0.27,-0.67 -0.74,-1.18 -1.35,-1.52 -0.08,-0.04 -0.16,-0.07 -0.23,-0.1 -0.01,0 -0.03,0 -0.04,-0.01 -0.07,-0.03 -0.13,-0.05 -0.2,-0.07 -0.01,0 -0.02,0 -0.04,-0.01 -0.07,-0.02 -0.13,-0.04 -0.2,-0.05 -0.01,0 -0.02,0 -0.04,0 -0.07,-0.01 -0.13,-0.03 -0.2,-0.03 -0.02,0 -0.03,0 -0.05,0 -0.06,0 -0.12,-0.01 -0.18,-0.02 -0.02,0 -0.05,0 -0.07,0 -0.05,0 -0.1,0 -0.15,0 -0.04,0 -0.07,0 -0.1,0 -0.03,0 -0.07,0 -0.1,0 -0.05,0 -0.1,0.01 -0.15,0.02 -0.01,0 -0.03,0 -0.04,0 -0.42,0.07 -0.83,0.24 -1.19,0.51 -0.13,0.09 -0.25,0.19 -0.37,0.31 -0.03,0.04 -0.07,0.08 -0.1,0.12 -0.03,0.03 -0.06,0.06 -0.08,0.09 -0.03,0.05 -0.05,0.1 -0.07,0.14 -0.03,0.04 -0.05,0.09 -0.07,0.13 -0.01,0.03 -0.03,0.06 -0.04,0.09 -0.07,0.15 -0.13,0.29 -0.17,0.43 0,0 0,0 -0.01,0 -0.05,0.14 -0.06,0.16 -0.07,0.42 -0.02,0.12 -0.02,0.24 -0.02,0.37 -0.01,0.09 0,0.2 0.02,0.37 0.02,0.2 0.05,0.4 0.1,0.61 0.08,0.27 0.21,0.5 0.37,0.71 0.06,0.08 0.12,0.17 0.2,0.25 0.13,0.12 0.26,0.23 0.4,0.33 v 0.02 c 0.12,0.08 0.24,0.15 0.37,0.21 0.03,0.01 0.06,0.03 0.08,0.04 0.05,0.03 0.09,0.05 0.14,0.08 0.6,0.28 1.48,0.18 2.08,-0.05 0.06,-0.03 0.12,-0.07 0.18,-0.1 0.58,-0.31 0.94,-0.68 1.29,-1.24 0.33,-0.64 0.26,-1.35 0.11,-2.04 z m -3.39,2.67 q -0.07,-0.03 -0.13,-0.05 -0.06,-0.02 -0.31,-0.16 c -0.37,-0.36 -0.62,-0.71 -0.67,-1.23 0,-0.05 0,-0.11 -0.01,-0.16 0,-0.08 -0.01,-0.15 -0.02,-0.22 0,-0.11 0,-0.22 0.01,-0.33 0.03,-0.24 0.11,-0.46 0.25,-0.72 0.66,-0.84 1.76,-1.08 2.66,-0.53 0.05,0.04 0.1,0.08 0.15,0.11 0.18,0.14 0.34,0.28 0.47,0.47 0.23,0.41 0.31,0.95 0.23,1.41 -0.17,0.56 -0.53,1.05 -1.03,1.33 -0.54,0.23 -1.04,0.28 -1.6,0.08 z"
       id="path25" />
    <path
       class="cls-2"
       d="m 133.37,103.35 c 0.89,0.03 1.69,-0.25 2.37,-0.77 0.08,-0.07 0.16,-0.14 0.23,-0.21 0.01,-0.01 0.02,-0.03 0.04,-0.04 0.06,-0.06 0.12,-0.12 0.17,-0.19 0.01,-0.01 0.02,-0.02 0.03,-0.04 0.06,-0.07 0.11,-0.13 0.16,-0.2 0,-0.01 0.02,-0.02 0.03,-0.04 0.05,-0.07 0.09,-0.14 0.14,-0.21 0,-0.02 0.02,-0.03 0.03,-0.05 0.04,-0.06 0.07,-0.13 0.11,-0.19 0.01,-0.03 0.03,-0.05 0.04,-0.08 0.03,-0.05 0.05,-0.11 0.07,-0.17 0.02,-0.04 0.03,-0.08 0.05,-0.12 0.01,-0.04 0.03,-0.08 0.04,-0.12 0.02,-0.06 0.04,-0.12 0.05,-0.18 0,-0.02 0,-0.03 0.01,-0.05 0.13,-0.51 0.14,-1.05 0.01,-1.59 -0.04,-0.19 -0.09,-0.38 -0.16,-0.57 -0.03,-0.06 -0.06,-0.11 -0.09,-0.17 -0.02,-0.05 -0.04,-0.09 -0.06,-0.14 -0.04,-0.05 -0.08,-0.1 -0.12,-0.15 -0.04,-0.05 -0.08,-0.1 -0.12,-0.15 -0.03,-0.03 -0.05,-0.06 -0.08,-0.09 -0.13,-0.15 -0.26,-0.29 -0.4,-0.41 0,0 0.01,0 0.02,0 -0.13,-0.12 -0.15,-0.15 -0.43,-0.29 -0.13,-0.08 -0.26,-0.15 -0.4,-0.21 -0.1,-0.06 -0.22,-0.11 -0.42,-0.16 -0.23,-0.08 -0.47,-0.14 -0.73,-0.19 -0.35,-0.04 -0.67,-0.01 -0.98,0.06 -0.12,0.02 -0.25,0.06 -0.38,0.1 -0.19,0.08 -0.38,0.18 -0.57,0.29 h -0.02 c -0.14,0.09 -0.28,0.19 -0.42,0.3 -0.03,0.02 -0.06,0.05 -0.09,0.07 -0.05,0.04 -0.1,0.08 -0.16,0.11 -0.61,0.53 -0.93,1.57 -0.97,2.37 0,0.09 0.01,0.17 0.02,0.26 0.06,0.8 0.3,1.39 0.75,2.07 0.55,0.69 1.39,0.96 2.24,1.14 z m -1.38,-5.19 q 0.06,-0.06 0.13,-0.13 0.07,-0.07 0.34,-0.28 c 0.61,-0.24 1.13,-0.35 1.78,-0.15 0.07,0.02 0.13,0.04 0.19,0.07 0.09,0.03 0.18,0.06 0.27,0.09 0.13,0.06 0.25,0.12 0.38,0.18 0.27,0.16 0.48,0.36 0.7,0.66 0.64,1.2 0.36,2.59 -0.75,3.36 -0.07,0.04 -0.14,0.08 -0.21,0.11 -0.26,0.14 -0.5,0.25 -0.79,0.3 -0.59,0.06 -1.26,-0.12 -1.75,-0.46 -0.56,-0.48 -0.95,-1.16 -1.01,-1.88 0.01,-0.74 0.2,-1.35 0.72,-1.9 z"
       id="path26" />
    <path
       class="cls-2"
       d="m 101.27,129.88 c 0.7,-0.78 1.05,-1.72 1.09,-2.74 0,-0.12 0,-0.25 -0.02,-0.37 0,-0.02 0,-0.04 0,-0.06 -0.01,-0.1 -0.02,-0.2 -0.04,-0.3 0,-0.02 0,-0.04 -0.01,-0.05 -0.02,-0.1 -0.04,-0.2 -0.06,-0.29 0,-0.02 0,-0.03 -0.01,-0.05 -0.02,-0.09 -0.05,-0.19 -0.08,-0.28 0,-0.02 -0.02,-0.04 -0.02,-0.06 -0.03,-0.08 -0.06,-0.16 -0.1,-0.24 -0.01,-0.03 -0.03,-0.06 -0.04,-0.09 -0.03,-0.06 -0.06,-0.13 -0.09,-0.19 -0.02,-0.05 -0.05,-0.09 -0.07,-0.13 -0.02,-0.04 -0.05,-0.08 -0.08,-0.12 -0.04,-0.06 -0.08,-0.12 -0.12,-0.18 -0.01,-0.02 -0.02,-0.03 -0.04,-0.05 -0.37,-0.5 -0.85,-0.92 -1.44,-1.21 -0.2,-0.11 -0.42,-0.2 -0.64,-0.28 -0.08,-0.02 -0.15,-0.03 -0.22,-0.05 -0.06,-0.02 -0.11,-0.03 -0.17,-0.05 -0.08,0 -0.16,0 -0.23,0 -0.07,0 -0.15,0 -0.22,0 -0.05,0 -0.1,0 -0.14,0 -0.23,0 -0.46,0.02 -0.67,0.06 0,0 0,-0.01 0,-0.02 -0.21,0.02 -0.25,0.03 -0.59,0.18 -0.17,0.06 -0.33,0.13 -0.49,0.21 -0.12,0.04 -0.26,0.12 -0.47,0.26 -0.24,0.15 -0.48,0.33 -0.72,0.52 -0.3,0.28 -0.52,0.6 -0.68,0.94 -0.07,0.13 -0.14,0.27 -0.19,0.42 -0.07,0.24 -0.13,0.49 -0.17,0.73 h -0.02 c -0.02,0.22 -0.03,0.42 -0.04,0.63 0,0.05 0,0.09 0,0.14 0,0.08 0,0.15 -0.01,0.23 0.02,0.96 0.73,2.03 1.42,2.67 0.08,0.06 0.17,0.12 0.25,0.18 0.77,0.55 1.49,0.78 2.45,0.88 1.04,0.02 1.92,-0.54 2.72,-1.18 z m -5.89,-2.65 q 0,-0.11 -0.02,-0.22 -0.04,-0.28 0,-0.54 c 0.25,-0.77 0.56,-1.36 1.26,-1.8 0.07,-0.04 0.14,-0.09 0.21,-0.13 0.1,-0.07 0.2,-0.12 0.3,-0.18 0.16,-0.07 0.32,-0.14 0.47,-0.22 0.36,-0.13 0.73,-0.17 1.18,-0.15 1.64,0.34 2.75,1.7 2.61,3.37 -0.02,0.1 -0.04,0.19 -0.06,0.28 -0.07,0.35 -0.16,0.67 -0.33,0.99 -0.41,0.61 -1.11,1.1 -1.82,1.3 -0.9,0.16 -1.85,0 -2.59,-0.52 -0.7,-0.6 -1.13,-1.26 -1.23,-2.18 z"
       id="path27" />
    <path
       class="cls-2"
       d="m 97.26,112.58 c 0,-0.15 0,-0.3 0,-0.45 h -0.08 c -0.08,-0.4 -0.18,-0.79 -0.32,-1.17 -0.12,-0.4 -0.3,-0.79 -0.54,-1.18 -0.06,-0.11 -0.11,-0.21 -0.17,-0.32 -0.05,-0.07 -0.1,-0.13 -0.16,-0.19 -0.04,-0.06 -0.08,-0.13 -0.13,-0.19 -0.04,-0.02 -0.07,-0.04 -0.11,-0.05 -0.13,-0.16 -0.26,-0.32 -0.41,-0.48 -0.22,-0.18 -0.46,-0.35 -0.7,-0.5 0,-0.01 0,-0.02 0,-0.03 -0.45,-0.26 -0.83,-0.48 -1.25,-0.61 -1.78,-0.72 -3.79,-0.73 -5.52,0.25 -0.08,0.05 -0.15,0.11 -0.23,0.16 -0.41,0.25 -0.8,0.55 -1.18,0.9 -0.26,0.28 -0.5,0.56 -0.72,0.85 -0.24,0.3 -0.45,0.62 -0.64,0.95 h -0.01 c -0.03,0.06 -0.05,0.11 -0.07,0.15 -0.27,0.51 -0.49,1.05 -0.62,1.64 -0.05,0.37 -0.07,0.72 -0.07,1.06 -0.03,0.58 -0.02,1.16 0.07,1.72 v 0.1 c 0,0 0,-0.02 0.01,-0.02 0.02,0.13 0.05,0.26 0.09,0.39 0.25,0.66 0.55,1.24 0.9,1.77 0.15,0.25 0.31,0.51 0.49,0.77 0.92,1.09 2.37,1.95 3.75,2.19 0.03,0 0.05,0 0.08,0 1.24,0.2 2.63,0.05 3.72,-0.42 0.23,-0.13 0.46,-0.26 0.68,-0.4 0.42,-0.23 0.83,-0.52 1.23,-0.86 0.44,-0.47 0.82,-0.95 1.13,-1.48 0.08,-0.13 0.16,-0.27 0.23,-0.41 0,0 0,-0.01 0,-0.02 0.16,-0.3 0.31,-0.62 0.43,-0.96 0.02,-0.11 0.03,-0.21 0.05,-0.32 0.06,-0.14 0.08,-0.3 0.09,-0.55 0.09,-0.77 0.08,-1.53 -0.02,-2.27 z m -1.01,-0.97 c 0.43,1.28 0.53,2.66 0.04,3.93 -0.02,-0.05 -0.05,-0.11 -0.09,-0.18 -0.63,1.38 -1.37,2.31 -2.64,3.11 -1.36,0.68 -3.39,0.81 -4.83,0.3 -1.38,-0.72 -2.1,-1.54 -2.76,-2.98 -0.14,-0.32 -0.29,-0.63 -0.44,-0.95 -0.15,-0.76 -0.18,-1.55 -0.1,-2.36 0.45,-1.38 1.09,-2.53 2.21,-3.43 0.19,-0.11 0.38,-0.23 0.56,-0.34 1.57,-0.97 3.31,-1.01 5.04,-0.42 1.54,0.67 2.36,1.72 3,3.31 z"
       id="path28" />
    <path
       class="cls-2"
       d="m 113.29,113.12 c 0,-0.15 -0.02,-0.31 -0.03,-0.46 0,-0.05 -0.01,-0.11 -0.02,-0.16 -0.02,-0.21 -0.05,-0.41 -0.09,-0.61 -0.05,-0.16 -0.12,-0.31 -0.18,-0.46 -0.38,-0.94 -0.95,-1.75 -1.64,-2.44 0,0 -0.02,-0.02 -0.02,-0.02 -0.53,-0.52 -1.12,-0.98 -1.76,-1.38 -1.01,-0.52 -2.13,-0.71 -3.24,-0.63 -0.7,0.02 -1.37,0.13 -1.95,0.33 v 0.09 c -0.22,0.08 -0.45,0.17 -0.66,0.27 h -0.21 c -0.18,0.12 -0.35,0.24 -0.52,0.36 -0.1,0.07 -0.19,0.14 -0.29,0.21 -0.39,0.26 -0.77,0.55 -1.1,0.87 -0.88,1.07 -1.31,2.18 -1.5,3.41 h -0.07 c 0,0.16 0,0.32 -0.01,0.47 0,0.1 0,0.2 0,0.3 -0.02,0.33 -0.04,0.66 -0.04,1.01 0.01,0.12 0.03,0.25 0.05,0.37 0.06,0.61 0.2,1.18 0.51,1.68 0.18,0.4 0.4,0.79 0.64,1.15 0.04,0.06 0.08,0.12 0.12,0.18 0.01,0.02 0.02,0.03 0.03,0.05 0.09,0.13 0.18,0.26 0.28,0.38 0.15,0.16 0.3,0.32 0.46,0.47 0.01,0.01 0.03,0.03 0.04,0.04 0,0 0.02,0.01 0.03,0.02 0.7,0.65 1.51,1.17 2.43,1.35 0.21,0.06 0.41,0.12 0.63,0.16 0.01,0.03 0.03,0.06 0.04,0.08 0.24,0 0.49,0.02 0.74,0.03 0.59,0.05 1.2,0.04 1.87,-0.03 0.06,-0.01 0.11,-0.03 0.17,-0.05 0.23,-0.04 0.46,-0.09 0.69,-0.16 0.84,-0.35 1.54,-0.79 2.15,-1.32 0.07,-0.06 0.14,-0.13 0.21,-0.2 0.07,-0.07 0.15,-0.14 0.22,-0.21 0.21,-0.22 0.42,-0.44 0.61,-0.69 0.14,-0.09 0.19,-0.17 0.35,-0.47 0,0 0,-0.02 0.01,-0.03 0.02,-0.03 0.04,-0.05 0.06,-0.08 0.29,-0.48 0.5,-0.97 0.66,-1.46 h 0.09 c 0.05,-0.15 0.08,-0.31 0.12,-0.47 0.14,-0.64 0.18,-1.3 0.12,-1.95 z m -7.08,-5.17 c 1.78,-0.03 3.06,0.39 4.4,1.62 1.05,1.13 1.6,2.47 1.64,4.05 -0.08,1.65 -0.68,2.93 -1.81,4.09 -1.62,1.41 -3.3,1.58 -5.38,1.43 q -0.26,-0.09 -0.52,-0.18 c -1.13,-0.39 -1.88,-1 -2.6,-1.98 -0.1,-0.18 -0.2,-0.36 -0.28,-0.54 h 0.11 c -0.17,-0.58 -0.34,-1.03 -0.65,-1.53 -0.17,-0.77 -0.2,-1.57 -0.05,-2.42 0.48,-1.44 1.11,-2.67 2.37,-3.53 q 0.21,-0.12 0.41,-0.24 c 0.78,-0.45 1.46,-0.69 2.36,-0.77 z"
       id="path29" />
  </g>
  <g
     id="g44"
     transform="translate(-45.29,-45.1)">
    <path
       class="cls-2"
       d="m 76.38,99.44 c -0.21,3.69 2.6,6.85 6.29,7.07 h 0.37 c 3.69,0 6.68,-3 6.67,-6.69 0,-3.69 -3,-6.68 -6.69,-6.67 -3.54,0 -6.46,2.76 -6.66,6.3 h 0.02 z"
       id="path30" />
    <path
       class="cls-2"
       d="m 51.47,97.75 c -1.19,-0.07 -2.21,0.84 -2.27,2.03 -0.07,1.19 0.84,2.21 2.03,2.27 1.19,0.07 2.21,-0.84 2.27,-2.03 0.07,-1.19 -0.84,-2.21 -2.02,-2.28 0,0 0,0 -0.01,0 z"
       id="path31" />
    <path
       class="cls-2"
       d="m 75.96,60.67 c 1.06,-0.55 1.48,-1.85 0.94,-2.91 -0.55,-1.06 -1.85,-1.48 -2.91,-0.94 -1.05,0.54 -1.48,1.83 -0.95,2.89 0.54,1.07 1.84,1.5 2.91,0.96 z"
       id="path32" />
    <path
       class="cls-2"
       d="m 82.74,72.49 c 1.65,-0.83 2.31,-2.84 1.48,-4.48 -0.83,-1.65 -2.84,-2.31 -4.48,-1.48 -1.64,0.83 -2.31,2.83 -1.48,4.48 0.83,1.65 2.83,2.31 4.48,1.48 z"
       id="path33" />
    <path
       class="cls-2"
       d="m 59.93,80.62 c 1.27,0.83 2.97,0.48 3.81,-0.79 0.83,-1.27 0.48,-2.97 -0.79,-3.81 -1.27,-0.83 -2.97,-0.48 -3.81,0.79 0,0 0,0 0,0 -0.83,1.27 -0.48,2.97 0.79,3.8 z"
       id="path34" />
    <path
       class="cls-2"
       d="m 63.99,96.53 c -1.84,-0.1 -3.42,1.3 -3.52,3.14 -0.1,1.84 1.3,3.42 3.14,3.52 1.84,0.1 3.41,-1.3 3.52,-3.14 0.1,-1.84 -1.3,-3.42 -3.14,-3.52 z"
       id="path35" />
    <path
       class="cls-2"
       d="m 60.29,118.96 c -1.35,0.68 -1.9,2.34 -1.21,3.69 0.68,1.35 2.34,1.9 3.69,1.21 1.35,-0.68 1.9,-2.34 1.21,-3.69 -0.68,-1.36 -2.34,-1.9 -3.69,-1.22 0,0 0,0 0,0 z"
       id="path36" />
    <path
       class="cls-2"
       d="m 73.26,89.64 c 1.81,1.19 4.25,0.68 5.44,-1.13 1.19,-1.81 0.68,-4.25 -1.13,-5.44 -1.81,-1.19 -4.25,-0.68 -5.44,1.13 -1.19,1.81 -0.69,4.24 1.12,5.43 0,0 0,0 0,0 z"
       id="path37" />
    <path
       class="cls-2"
       d="m 114.4,72.23 c 1.54,1.01 3.61,0.57 4.62,-0.97 1.01,-1.54 0.57,-3.61 -0.97,-4.62 -1.54,-1.01 -3.61,-0.57 -4.62,0.97 -1.01,1.54 -0.58,3.61 0.96,4.62 0,0 0,0 0,0 z"
       id="path38" />
    <path
       class="cls-2"
       d="m 121.25,60.45 c 1,0.65 2.34,0.38 2.99,-0.62 0.65,-1 0.38,-2.34 -0.62,-2.99 -1,-0.65 -2.34,-0.38 -2.99,0.62 0,0 0,0 0,0 -0.65,1 -0.37,2.34 0.62,2.99 z"
       id="path39" />
    <path
       class="cls-2"
       d="m 84.93,89.17 c 1.13,2.26 3.44,3.68 5.97,3.68 3.69,0 6.68,-2.99 6.68,-6.68 0,-1.05 -0.25,-2.08 -0.72,-3.02 -1.14,-2.25 -3.45,-3.66 -5.97,-3.65 -3.69,0 -6.68,3 -6.67,6.69 0,1.04 0.24,2.06 0.71,2.98 z"
       id="path40" />
    <path
       class="cls-2"
       d="m 98.55,59.44 c 1.52,0.09 2.81,-1.07 2.9,-2.59 0.09,-1.52 -1.07,-2.81 -2.59,-2.9 -1.52,-0.09 -2.81,1.07 -2.9,2.59 0,0 0,0 0,0 -0.09,1.51 1.07,2.81 2.59,2.9 z"
       id="path41" />
    <path
       class="cls-2"
       d="m 98.52,76.74 c 2.17,0.12 4.02,-1.54 4.14,-3.7 0.12,-2.17 -1.54,-4.02 -3.7,-4.14 -2.16,-0.12 -4.02,1.53 -4.14,3.7 -0.12,2.17 1.53,4.02 3.7,4.15 z"
       id="path42" />
    <path
       class="cls-2"
       d="m 77.24,116.83 c 1.94,-0.98 2.72,-3.34 1.74,-5.28 -0.98,-1.94 -3.34,-2.72 -5.28,-1.74 -1.94,0.98 -2.72,3.34 -1.74,5.28 0,0 0,0 0,0 0.98,1.94 3.34,2.71 5.27,1.74 z"
       id="path43" />
    <path
       class="cls-2"
       d="m 101.06,82.47 c -2.02,3.09 -1.16,7.23 1.93,9.25 3.09,2.02 7.23,1.16 9.25,-1.93 2.02,-3.09 1.16,-7.23 -1.93,-9.25 -1.09,-0.71 -2.35,-1.09 -3.65,-1.09 -2.25,0 -4.36,1.13 -5.6,3.02 z"
       id="path44" />
  </g>
  <path
     class="cls-2"
     d="m 108.61,107.7 c 0,-0.18 0,-0.35 0,-0.53 0,-0.59 0,-1.19 0,-1.78 0,-0.44 0,-0.88 0,-1.32 0,-1.08 0,-2.16 0,-3.24 0,-1.45 0,-2.9 0,-4.35 0,-2.44 0,-4.88 0,-7.32 0,-2.43 0,-4.86 0,-7.29 v -0.46 c 0,-0.77 0,-1.53 0,-2.3 0,-5.42 0,-10.85 0,-16.27 0,-5.28 0,-10.56 0,-15.84 q 0,-0.25 0,-0.49 c 0,-1.64 0,-3.27 0,-4.91 0,-3.33 0,-6.67 0,-10 0,-0.16 0,-0.31 0,-0.47 0,-10.38 0,-20.76 0,-31.13 C 98.430001,0 88.260001,0 78.080001,0 q -0.23,0 -0.46,0 c -3.31,0 -6.63,0 -9.940001,0 C 66.05,0 64.43,0 62.8,0 62.63,0 62.47,0 62.31,0 57.05,0 51.8,0 46.54,0 41.13,0 35.72,0 30.31,0 29.55,0 28.78,0 28.02,0 Q 27.79,0 27.56,0 C 25.14,0 22.72,0 20.3,0 17.86,0 15.41,0 12.97,0 11.52,0 10.07,0 8.61,0 7.63,0 6.66,0 5.68,0 5.23,0 4.79,0 4.34,0 3.72,0 3.1,0 2.47,0 2.28,0 2.1,0 1.91,0 1.73,0 1.56,0 1.38,0 Q 1.14,0 0.91,0 C 0.77,0 0.64,0 0.5,0 0.09,0.03 0.03,0.08 0,0.51 0,0.65 0,0.79 0,0.92 0,1.08 0,1.24 0,1.39 0,1.57 0,1.74 0,1.92 0,2.51 0,3.1 0,3.7 0,4.14 0,4.58 0,5.02 0,6.1 0,7.18 0,8.26 c 0,1.45 0,2.9 0,4.35 0,2.43 0,4.87 0,7.3 0,2.43 0,4.85 0,7.28 0,0.15 0,0.31 0,0.46 0,0.76 0,1.53 0,2.29 0,5.41 0,10.83 0,16.24 0,5.27 0,10.54 0,15.81 0,0.17 0,0.33 0,0.49 0,1.63 0,3.27 0,4.9 0,3.33 0,6.66 0,9.99 0,0.16 0,0.31 0,0.46 0,10.36 0,20.72 0,31.08 q 0.35,0.18 0.67,0.2 c 0.14,0 0.27,0 0.41,0 0.16,0 0.32,0 0.47,0 q 0.26,0 0.52,0 c 0.59,0 1.18,0 1.77,0 0.44,0 0.87,0 1.31,0 1.07,0 2.14,0 3.22,0 1.44,0 2.88,0 4.32,0 2.57,0 5.14,0 7.71,0 2.26,0 4.52,0 6.78,0 q 0.23,0 0.45,0 c 0.61,0 1.21,0 1.82,0 5.7,0 11.39,0 17.09,0 5.07,0 10.15,0 15.22,0 5.71,0 11.410001,0 17.120001,0 0.61,0 1.22,0 1.82,0 q 0.23,0 0.45,0 c 2.26,0 4.52,0 6.78,0 2.58,0 5.17,0 7.75,0 1.45,0 2.89,0 4.339999,0 0.97,0 1.95,0 2.92,0 0.45,0 0.89,0 1.34,0 0.62,0 1.24,0 1.86,0 0.19,0 0.37,0 0.55,0 q 0.26,0 0.52,0 c 0.16,0 0.32,0 0.47,0 0.24,0 0.48,0 0.71,-0.02 q 0.17,-0.18 0.19,-0.49 c 0,-0.14 0,-0.28 0,-0.41 0,-0.16 0,-0.32 0,-0.47 z m -0.76,-40.31 h -0.17 q -0.09,20.4 -0.17,40.4 -0.35,0.21 -0.85,0.2 -0.33,0 -0.66,0 c -0.39,0 -0.77,0 -1.16,0 -0.28,0 -0.57,0 -0.85,0 -0.77,0 -1.55,0 -2.32,0.01 -0.82,0 -1.64,0 -2.469999,0.01 -1.55,0 -3.1,0.02 -4.66,0.02 -1.78,0 -3.56,0.02 -5.34,0.03 -3.68,0.02 -7.37,0.04 -11.05,0.06 -0.16,0 -0.31,0 -0.46,0 v 0.18 H 0.76 V 0.95 h 107.08 v 66.44 z"
     id="path45" />
  <path
     class="cls-2"
     d="m 14.33,106.06 h 0.66 c 1.8,0.02 3.6,0.04 5.4,0.05 0.71,0 1.42,0 2.12,0.01 1.68,0 3.36,0.02 5.04,0.03 2.41,0.01 4.82,0.02 7.23,0.04 0.46,0 0.92,0 1.38,0 3.44,0.02 6.88,0.04 10.32,0.08 0.23,0 0.45,0 0.68,0 2.43,0.03 4.87,0.05 7.3,0.07 1.01,0 2.03,0.01 3.04,0.02 1.81,0.01 3.63,0.02 5.44,0.03 1.7,0 3.4,0.01 5.100001,0.01 1.21,0 2.41,0 3.62,0 2.94,0 5.88,0 8.82,0 1.98,0 3.96,0 5.95,0 2.35,0 4.71,0 7.06,0 v 0 c 0.25,0 0.5,0 0.75,0 q 0.19,0 0.37,0 c 0.86,0 1.72,0 2.58,0 1.05,0 2.09,0 3.139999,0 0.43,0 0.85,0 1.28,0 0.6,0 1.19,0 1.79,0 0.18,0 0.36,0 0.53,0 0.17,0 0.34,0 0.51,0 0.15,0 0.31,0 0.46,0 0.23,0 0.46,0 0.69,-0.02 q 0.19,-0.2 0.19,-1.31 c 0,-0.07 0,-0.14 0,-0.21 0,-0.08 0,-0.14 0,-0.29 0,-0.56 0,-1.12 0,-1.69 0,-0.42 0,-0.83 0,-1.25 0,-1.02 0,-2.05 0,-3.07 0,-1.38 0,-2.75 0,-4.13 0,-2.31 0,-4.62 0,-6.94 0,-2.3 0,-4.61 0,-6.91 0,-0.15 0,-0.29 0,-0.43 0,-0.73 0,-1.45 0,-2.18 0,-5.14 0,-10.28 0,-15.42 0,-5 0,-10.01 0,-15.01 v 0 c 0,-0.07 0,-0.13 0,-0.19 0,-0.08 0,-0.14 0,-0.28 0,-1.34 0,-2.68 0,-4.02 0,-1.41 0,-2.82 0,-4.23 q 0,-9.91 0,-35.84 C 96.180001,2.96 86.590001,2.94 76.990001,2.92 c -1.16,0 -2.31,0 -3.47,0 q -0.18,0 -0.35,0 C 69.480001,2.92 65.79,2.91 62.1,2.9 58.28,2.9 54.47,2.89 50.66,2.88 c -2.14,0 -4.28,0 -6.43,-0.01 -2.41,0 -4.82,0 -7.23,-0.01 -0.2,0 -0.39,0 -0.59,0 C 29.79,2.84 23.18,2.8 16.56,2.72 15.86,2.72 15.16,2.7 14.46,2.7 13.98,2.7 13.5,2.69 13.02,2.68 Q 10.59,2.65 2.87,2.65 v 103.21 c 3.83,0.06 7.66,0.12 11.49,0.17 v 0 z M 3.53,72.69 C 3.51,67.55 3.5,62.4 3.51,57.26 c 0,-1.43 0,-2.86 0,-4.29 0,-16.47 0.07,-32.94 0.19,-49.41 0.06,0 0.12,0 0.19,0 2.89,0.16 5.77,0.2 8.66,0.19 0.62,0 1.24,0 1.86,0 1.17,0 2.35,0 3.52,0 1.34,0 2.69,0 4.03,0 2.89,0 5.79,0 8.68,0 V 3.69 c 0.4,0 0.8,0 1.2,0 2.74,0.01 5.49,0.03 8.23,0.06 v 0.16 h 8.35 c 0.13,0 0.27,0.01 0.4,0.02 v 0.16 h 2.53 V 3.74 h 53.71 v 101.78 c -14.649999,-0.06 -28.879999,-0.12 -43.1,-0.17 -0.01,0.04 -0.03,0.08 -0.04,0.12 -0.04,0 -0.09,0 -0.13,0 v -0.12 c -5.76,-0.06 -11.51,-0.11 -17.27,-0.17 -0.23,0 -0.45,0 -0.67,0 -10.75,-0.1 -21.49,-0.21 -32.24,-0.2 q -0.31,0 -0.62,0 c -2.43,0 -4.85,0 -7.28,0.02 C 3.65,95.05 3.59,85.1 3.55,75.15 v -2.44 z"
     id="path46" />
  <g
     id="g59"
     transform="translate(-45.29,-45.1)">
    <path
       class="cls-2"
       d="m 145.78,119.52 c 0,0 0,0 0,0 -0.02,0 -0.03,0 0,0 z"
       id="path47" />
    <path
       class="cls-2"
       d="m 146.8,145.57 c 0,0 -0.05,-0.04 -0.07,-0.06 -0.02,-0.04 -0.06,-0.07 -0.1,-0.12 -0.04,-0.08 -0.04,-0.17 -0.03,-0.4 0,-0.18 0,-0.36 0,-0.54 q 0,-0.31 0,-0.62 c 0,-0.34 0,-0.69 0,-1.03 0,-0.63 0,-1.26 -0.01,-1.9 0,-0.67 0,-1.35 -0.01,-2.02 0,-1.27 -0.02,-2.54 -0.02,-3.81 0,-1.46 -0.02,-2.91 -0.03,-4.37 -0.02,-3.14 -0.04,-6.28 -0.06,-9.42 0,0 0,0 0.01,0 v -2.14 c 0,0 0,0 -0.01,0.01 h -0.15 c 0.12,-2.68 0.2,-5.36 0.24,-8.04 0,-0.36 0.01,-0.71 0.02,-1.07 0.03,-2.15 0.05,-4.3 0.06,-6.45 v -7.26 c -0.02,-5.68 -0.08,-11.36 -0.16,-17.04 h -0.17 c -0.05,1.62 -0.09,3.23 -0.14,4.85 -0.02,0.83 -0.04,1.65 -0.07,2.48 -0.02,0.81 -0.05,1.61 -0.07,2.42 0,0.31 -0.02,0.62 -0.02,0.93 -0.03,0.96 -0.05,1.91 -0.02,2.85 -0.24,-1.35 -0.52,-2.7 -0.85,-4.04 -0.04,-0.14 -0.07,-0.28 -0.11,-0.42 -0.58,-2.33 -1.37,-4.56 -2.31,-6.76 -0.1,-0.24 -0.2,-0.48 -0.31,-0.72 -0.15,-0.35 -0.3,-0.7 -0.45,-1.06 -0.16,-0.36 -0.31,-0.72 -0.46,-1.07 l -0.51,-1.06 c -0.08,-0.16 -0.15,-0.32 -0.23,-0.48 -0.11,-0.19 -0.22,-0.38 -0.33,-0.57 -0.23,-0.4 -0.44,-0.77 -0.71,-1.11 -1.59,-2.63 -3.37,-5.29 -5.52,-7.51 -0.08,-0.09 -0.17,-0.18 -0.26,-0.26 -0.18,-0.18 -0.37,-0.37 -0.56,-0.55 -0.31,-0.3 -0.64,-0.59 -0.97,-0.86 -0.06,0.12 -0.11,0.24 -0.17,0.35 0.12,0.13 0.24,0.26 0.36,0.39 0.16,0.17 0.31,0.33 0.47,0.5 0.16,0.17 0.31,0.33 0.46,0.5 0.02,0.02 0.03,0.03 0.05,0.04 0.36,0.4 0.71,0.81 1.06,1.23 0.14,0.16 0.27,0.32 0.4,0.48 0.14,0.17 0.28,0.33 0.41,0.49 0.13,0.16 0.26,0.31 0.38,0.46 0.03,0.03 0.06,0.06 0.09,0.08 1.18,1.47 2.22,3.03 3.18,4.65 0,0.01 0,0.02 -0.01,0.03 0.08,0.16 0.15,0.31 0.23,0.46 0.11,0.17 0.22,0.35 0.33,0.52 0.12,0.18 0.23,0.36 0.35,0.53 0.21,0.38 0.43,0.76 0.64,1.15 l 0.67,1.27 c 1.98,4.43 3.45,8.9 4.26,13.72 0.03,0.19 0.06,0.37 0.09,0.56 0.18,1.49 0.26,2.2 0.32,2.95 l -0.37,6.37 c -0.02,0.18 -0.03,0.35 -0.05,0.52 -0.02,0.18 -0.04,0.35 -0.05,0.52 -0.02,0.17 -0.03,0.33 -0.05,0.5 -0.02,0.2 -0.03,0.35 -0.03,0.49 -0.33,2.35 -0.79,4.67 -1.45,6.94 0,0.02 -0.01,0.05 -0.02,0.07 -0.16,0.56 -0.34,1.11 -0.53,1.67 -0.05,0.16 -0.11,0.32 -0.16,0.47 -0.2,0.55 -0.4,1.11 -0.62,1.65 -0.1,0.25 -0.21,0.5 -0.31,0.75 -0.38,1.01 -0.72,1.98 -1.37,2.83 l -0.34,0.71 c -0.07,0.14 -0.13,0.27 -0.19,0.41 -0.08,0.18 -0.16,0.36 -0.25,0.53 -0.11,0.23 -0.2,0.4 -0.26,0.56 -0.1,0.21 -0.21,0.43 -0.32,0.64 0,0 0,-0.01 0,-0.02 -0.06,0.12 -0.12,0.24 -0.18,0.36 -0.05,0.11 -0.08,0.17 -0.11,0.22 -0.75,1.4 -1.59,2.72 -2.55,4.04 -0.08,0.12 -0.17,0.23 -0.25,0.34 -0.62,0.85 -1.25,1.69 -1.92,2.5 -0.27,0.31 -0.53,0.63 -0.81,0.94 -0.1,0.11 -0.2,0.22 -0.3,0.33 -0.41,0.47 -0.78,0.89 -1.25,1.25 -0.1,0.08 -0.21,0.16 -0.33,0.23 -0.13,0.08 -0.25,0.15 -0.37,0.23 q -0.73,1.21 -1.9,2.07 c -0.17,0.14 -0.34,0.27 -0.5,0.41 -1.23,1 -2.46,1.97 -3.77,2.85 -0.09,0.06 -0.18,0.12 -0.27,0.18 -0.02,-0.03 -0.04,-0.07 -0.06,-0.1 l -4.72,2.99 c -1.95,1.04 -3.98,1.94 -6.06,2.6 -0.3,0.09 -0.6,0.19 -0.9,0.29 -5.35,1.82 -10.97,2.23 -16.57,2.35 q -0.19,0 -0.38,0 c 0.1,0.07 0.19,0.13 0.26,0.17 -0.09,0 -0.17,-0.01 -0.26,-0.02 q -0.28,0 -0.55,0 c -0.33,0 -0.66,0 -0.99,0.01 v 0.18 c -3.19,0.06 -6.28,0.11 -9.38,0.16 -0.09,0 -0.19,0 -0.28,0 -0.55,0 -1.1,0 -1.64,0 -0.25,0 -0.51,0 -0.76,0 -0.24,0 -0.48,0 -0.72,0 h -0.66 c -0.79,0 -1.54,0.07 -2.32,0.2 v 0.18 c 8.42,0.27 16.84,0.27 25.26,0.11 0.21,0 0.41,0 0.61,-0.01 1.7,-0.03 3.39,-0.06 5.09,-0.1 5.89,-0.12 11.78,-0.19 17.68,-0.19 h 0.44 c 2.89,0 5.77,0 8.66,0.02 1.09,0 2.18,0 3.27,0.01 0.75,0 1.51,0 2.26,0 0.47,0 0.93,0 1.4,0 0.22,0 0.43,0 0.64,0 q 0.31,0 0.61,0 c 0.19,0 0.37,0 0.55,0 q 0.24,0 0.48,0 c 0.1,-0.01 0.18,-0.02 0.24,-0.03 0.05,0 0.09,0 0.14,0 0.06,-0.06 0.11,-0.11 0.15,-0.16 0.05,-0.05 0.11,-0.11 0.19,-0.19 0,-0.17 0.01,-0.29 0.02,-0.4 0,-0.07 0,-0.14 0.01,-0.24 0,-0.1 0,-0.18 -0.01,-0.25 0,-0.1 -0.01,-0.21 -0.02,-0.36 z m -0.69,-0.35 q -0.69,0 -0.99,0.2 -0.3,0.2 -0.23,0.88 c 0,0.17 0,0.34 0.01,0.51 -3.94,0 -7.87,0 -11.81,0 -1.92,0 -3.84,0 -5.75,0 -1.68,0 -3.36,0 -5.04,0 -0.89,0 -1.79,0 -2.68,0 -3.31,0 -6.61,-0.02 -9.92,0.11 -0.98,0.04 -1.96,0.06 -2.94,0.07 -1.12,-0.06 -2.22,-0.11 -3.32,-0.16 v -0.12 c 2.11,-0.17 4.2,-0.48 6.25,-1.01 0.15,-0.04 0.29,-0.08 0.43,-0.12 2.2,-0.58 4.4,-1.17 6.48,-2.13 0.13,-0.06 0.25,-0.12 0.38,-0.17 1.18,-0.53 2.34,-1.09 3.48,-1.68 l 4.9,-2.85 c 1,-0.66 1.97,-1.36 2.93,-2.11 0.12,-0.09 0.23,-0.18 0.34,-0.27 1.14,-0.89 2.3,-1.76 3.29,-2.84 0.11,-0.12 0.21,-0.23 0.31,-0.35 0.36,-0.34 0.44,-0.41 0.58,-0.57 0,0 0,0 0.01,-0.01 0.01,-0.01 0.02,-0.03 0.03,-0.04 0.02,-0.03 0.05,-0.05 0.07,-0.08 0.09,-0.1 0.17,-0.21 0.26,-0.31 0.28,-0.33 0.56,-0.66 0.83,-0.99 1.07,-1.22 2.12,-2.47 3.05,-3.8 0.21,-0.31 0.43,-0.63 0.64,-0.94 0.54,-0.7 1.05,-1.38 1.46,-2.17 0,0 0.01,-0.02 0.02,-0.02 0.09,-0.17 0.18,-0.33 0.27,-0.49 0.16,-0.29 0.26,-0.61 0.42,-0.9 0.02,-0.05 0.04,-0.09 0.06,-0.14 0.08,-0.14 0.15,-0.27 0.23,-0.4 0.1,-0.18 0.2,-0.35 0.29,-0.53 0.16,-0.29 0.28,-0.48 0.35,-0.66 l 1.18,-2.57 c 1.23,-2.8 2.32,-5.64 3.02,-8.65 0.05,-0.21 0.09,-0.41 0.14,-0.62 0.04,-0.19 0.09,-0.38 0.13,-0.56 h 0.31 c 0.02,-0.23 0.04,-0.46 0.06,-0.69 q 0.03,-0.38 0.11,-0.73 c 0.08,-0.08 0.14,-0.14 0.19,-0.2 -0.03,0.8 -0.04,1.6 -0.04,2.41 0,0.26 0,0.52 0,0.78 0,0.55 0,1.1 0,1.65 0,0.71 0,1.42 0,2.13 0,0.56 0,1.12 0,1.68 0,0.27 0,0.53 0,0.8 0,0.38 0,0.76 0,1.14 0,0.12 0,0.23 0,0.35 0,0.57 -0.26,0.85 -0.09,1.23 -0.04,0.08 0,0.18 -0.03,0.25 0.01,0 0.03,0 0,0 v 2.37 c 0.05,5.93 0.11,11.71 0.16,17.48 h 0.17 v 5.85 z"
       id="path48" />
    <path
       class="cls-2"
       d="m 61.7,146.89 c -0.64,0 -1.28,0 -1.92,0 -1.24,0 -2.49,0 -3.73,0 -0.13,0 -0.27,0 -0.4,0 v -0.35 q -0.17,-0.38 -0.51,-0.71 h -1.37 v -3.37 H 53.6 c -0.03,0.58 -0.05,1.16 -0.08,1.75 0,0.24 -0.02,0.47 -0.03,0.71 -0.01,0.24 -0.02,0.47 -0.03,0.71 0,0.23 -0.02,0.45 -0.03,0.67 q -0.03,0.62 0,1.12 0.46,0.47 1.54,0.53 c 0.07,-0.09 0.14,-0.17 0.21,-0.26 q 0.58,-0.35 1.27,-0.35 c 0.14,0 0.27,0 0.4,0 0.44,0 0.88,-0.01 1.32,-0.01 0.32,0 0.63,0 0.95,0 0.83,0 1.65,-0.02 2.48,-0.02 0.86,0 1.71,-0.01 2.57,-0.02 1.67,-0.02 3.33,-0.03 5,-0.04 q 0.27,0 0.54,0 v -0.18 q -2.57,-0.21 -8,-0.19 z"
       id="path49" />
    <path
       class="cls-2"
       d="m 147.44,54.21 q -0.06,-1.08 -0.53,-1.54 -0.5,-0.02 -1.12,0 c -0.22,0 -0.45,0.02 -0.67,0.03 -0.24,0.01 -0.47,0.02 -0.71,0.03 -0.24,0 -0.47,0.02 -0.71,0.03 -0.58,0.02 -1.16,0.05 -1.75,0.08 v 0.17 h 3.37 v 1.37 q 0.33,0.34 0.71,0.51 h 0.35 c 0,0.13 0,0.26 0,0.4 0,1.24 0,2.49 0,3.73 0,0.64 0,1.28 0,1.92 q -0.02,5.43 0.19,8 h 0.18 q 0,-0.27 0,-0.54 c 0.01,-1.67 0.02,-3.33 0.04,-5 0,-0.86 0.01,-1.71 0.02,-2.57 0,-0.83 0.01,-1.65 0.02,-2.48 0,-0.32 0,-0.63 0,-0.95 0,-0.44 0,-0.88 0.01,-1.32 0,-0.13 0,-0.26 0,-0.4 q 0,-0.69 0.35,-1.27 c 0.09,-0.07 0.17,-0.14 0.26,-0.21 z"
       id="path50" />
    <path
       class="cls-2"
       d="m 95.06,137.07 c -0.07,0 -0.13,-0.01 -0.2,-0.02 -0.19,-0.02 -0.38,-0.04 -0.57,-0.07 -0.36,-0.05 -0.73,-0.11 -1.09,-0.16 -0.98,-0.13 -1.98,-0.29 -2.97,-0.5 -2.3,-0.5 -4.56,-1.21 -6.73,-2.24 -0.02,0 -0.03,-0.01 -0.05,-0.02 -0.25,-0.12 -0.49,-0.24 -0.73,-0.38 q -0.36,-0.23 -0.69,-0.34 c -0.06,0.02 -0.11,0.05 -0.16,0.06 -0.06,-0.02 -0.12,-0.04 -0.18,-0.06 -0.12,0.12 -0.23,0.24 -0.34,0.35 4.43,2.36 9.53,3.75 14.56,4.04 v 0.03 h 0.67 c 0.67,0.03 1.34,0.03 2.01,0.02 0.2,0 0.38,-0.01 0.57,-0.02 0,0 0.12,0 0.12,0 h 0.04 c 0,0 0.01,0 0.01,0 0.79,0.02 1.59,0.02 2.38,0 h 1.39 v -0.06 c 2.61,-0.17 5.21,-0.61 7.71,-1.38 0.09,-0.02 0.18,-0.05 0.26,-0.08 0.67,-0.22 1.34,-0.46 1.99,-0.73 0.55,-0.22 1.35,-0.57 2.59,-1.13 0.05,-0.02 0.09,-0.04 0.13,-0.06 0.1,-0.05 0.21,-0.09 0.31,-0.14 0.1,0.01 0.19,-0.01 0.37,-0.07 0.12,-0.07 0.23,-0.13 0.34,-0.2 0.26,-0.15 0.51,-0.3 0.75,-0.47 0.3,-0.16 0.59,-0.32 0.89,-0.49 0.14,-0.02 0.24,-0.08 0.46,-0.21 q 0.21,-0.15 0.42,-0.3 h 0.02 c 1.96,-1.21 3.81,-2.59 5.51,-4.2 q 0.35,-0.4 0.35,-0.94 c -4.5,3.88 -9.44,6.77 -14.82,8.42 -0.02,0 -0.04,0 -0.07,0 -0.21,0.07 -0.25,0.08 -0.41,0.13 -3.14,0.91 -6.43,1.41 -9.87,1.42 -0.15,0 -0.29,0 -0.43,0 -1.29,0 -2.55,-0.03 -3.82,-0.15 -0.1,0 -0.21,-0.02 -0.31,-0.03 -0.14,-0.01 -0.29,-0.03 -0.43,-0.05 v 0 z"
       id="path51" />
    <path
       class="cls-2"
       d="m 130.09,130.94 c -0.43,-0.44 -0.85,-0.87 -1.26,-1.32 -0.11,-0.12 -0.22,-0.25 -0.33,-0.37 -0.22,-0.25 -0.44,-0.49 -0.66,-0.74 -0.65,-0.75 -1.23,-1.45 -2.12,-1.9 q -0.19,0.2 -0.34,1.06 c 0.31,-0.16 0.34,-0.18 0.58,-0.3 0.26,0.21 0.52,0.43 0.76,0.66 0.12,0.13 0.24,0.26 0.36,0.39 0.04,0.04 0.08,0.07 0.12,0.1 0.69,0.84 1.42,1.63 2.18,2.41 0.15,0.15 0.29,0.3 0.44,0.45 0.52,0.53 1.03,1.06 1.55,1.59 q 0.09,-0.18 0.17,-0.35 c -0.07,-0.09 -0.15,-0.18 -0.22,-0.27 q -0.15,-0.18 -0.3,-0.37 c -0.3,-0.36 -0.61,-0.72 -0.94,-1.06 z"
       id="path52" />
    <path
       class="cls-2"
       d="m 80.03,132.91 c 0.2,0.12 0.4,0.24 0.61,0.35 q 0.54,0.25 1.05,0.08 c -0.13,-0.09 -0.26,-0.18 -0.38,-0.27 q -0.26,-0.17 -0.51,-0.34 c -0.62,-0.43 -1.11,-0.71 -1.85,-0.81 v 0.35 c 0.26,0.15 0.51,0.3 0.77,0.45 0.11,0.06 0.21,0.12 0.31,0.18 z"
       id="path53" />
    <path
       class="cls-2"
       d="m 126.78,106.72 c -0.12,0.54 -0.23,1.07 -0.34,1.59 0.17,0.12 0.34,0.24 0.51,0.35 0.63,-2.16 0.91,-4.24 1.02,-6.35 0.05,0.05 0.11,0.1 0.18,0.15 0,-0.56 0.01,-1.11 0.02,-1.67 0,-0.24 0,-0.46 0,-0.69 0.02,-1.41 0,-2.75 -0.28,-4.14 -0.03,-0.14 -0.06,-0.28 -0.09,-0.41 -0.29,-1.62 -0.64,-3.36 -1.24,-4.94 l -0.55,0.31 c 0,0 0,0.02 0,0.03 0.88,2.89 1.46,5.5 1.52,8.54 q 0,0.35 0,0.7 c 0,0.22 0,0.44 0.01,0.66 0,0.2 0,0.4 0,0.59 0,0.07 0.02,0.13 0.03,0.19 -0.15,1.73 -0.4,3.44 -0.79,5.16 -0.01,-0.03 -0.02,-0.05 -0.03,-0.07 z"
       id="path54" />
    <path
       class="cls-2"
       d="m 71.49,126.79 c -0.29,0.29 -0.57,0.59 -0.86,0.89 -0.3,0.39 -0.59,0.78 -0.92,1.14 -0.83,0.84 -0.98,0.99 -2.14,2.31 0,-0.03 -0.01,-0.05 -0.02,-0.08 -0.23,0.28 -0.41,0.47 -0.53,0.69 -0.1,0.12 -0.21,0.24 -0.33,0.37 0.06,0.06 0.12,0.12 0.18,0.19 0,0.05 0,0.11 0,0.17 0.03,-0.03 0.06,-0.05 0.1,-0.08 0.03,0.03 0.05,0.05 0.08,0.08 0.12,-0.15 0.24,-0.29 0.36,-0.44 0.11,-0.09 0.22,-0.18 0.32,-0.27 0,-0.03 -0.02,-0.06 -0.02,-0.1 0.29,-0.35 0.6,-0.68 0.92,-1.01 0.18,-0.18 0.36,-0.36 0.54,-0.53 0.29,-0.29 0.57,-0.58 0.86,-0.86 0.29,-0.29 0.58,-0.58 0.87,-0.87 0.09,-0.09 0.18,-0.18 0.27,-0.28 0.17,-0.16 0.32,-0.32 0.47,-0.49 0.11,-0.12 0.2,-0.24 0.39,-0.47 Q 72,126.74 71.86,126.44 c -0.12,0.12 -0.23,0.24 -0.34,0.35 z"
       id="path55" />
    <path
       class="cls-2"
       d="m 79.82,119.82 c 0,0 0.01,0 0.02,0.01 0.13,0.14 0.24,0.24 0.49,0.48 0.01,0 0.02,0 0.03,0 0.76,0.69 1.55,1.34 2.37,1.96 0.32,0.34 0.64,0.57 1.05,0.76 2.87,1.96 6.04,3.38 9.44,3.95 0.28,0.06 0.56,0.11 0.86,0.14 0.13,0 0.26,0.02 0.39,0.03 0.11,0.01 0.22,0.02 0.34,0.03 0.21,0.02 0.41,0.03 0.62,0.04 v -0.58 c -0.33,-0.07 -0.55,-0.1 -0.91,-0.12 -3.63,-0.6 -7.18,-1.69 -10.25,-3.69 0,0 0,-0.01 0.01,-0.02 -0.1,-0.07 -0.19,-0.13 -0.29,-0.2 q -0.19,-0.13 -0.38,-0.25 c -0.23,-0.15 -0.32,-0.22 -0.43,-0.28 -0.8,-0.6 -1.56,-1.27 -2.27,-2.01 -0.27,-0.3 -0.52,-0.56 -0.8,-0.77 -0.18,-0.15 -0.38,-0.28 -0.64,-0.38 v 0.53 c 0.13,0.14 0.21,0.24 0.29,0.32 0.02,0.02 0.04,0.04 0.06,0.07 z"
       id="path56" />
    <path
       class="cls-2"
       d="m 107.4,127.34 c 0.29,-0.08 0.56,-0.19 0.83,-0.33 0.34,-0.14 0.67,-0.26 1.03,-0.36 1.04,-0.31 2.33,-0.69 3.39,-1.31 1.35,-0.49 2.61,-1.62 3.59,-2.5 0.28,-0.24 0.55,-0.47 0.85,-0.68 0.27,-0.16 0.5,-0.33 0.72,-0.54 1.54,-1.15 1.65,-1.3 1.8,-2.15 0.07,-0.04 0.12,-0.08 0.18,-0.12 l -0.5,-0.31 c 0,0 -0.04,0.05 -0.06,0.07 -0.07,0.08 -0.15,0.16 -0.22,0.24 -1.1,1.2 -2.24,2.28 -3.48,3.26 0,0 0,0 0,0 -0.03,0.02 -0.04,0.04 -0.06,0.06 -0.72,0.56 -1.48,1.08 -2.28,1.57 -0.06,0.02 -0.11,0.04 -0.2,0.08 -1.13,0.63 -2.27,1.14 -3.43,1.57 -0.03,0 -0.05,0.01 -0.08,0.02 0,0 0,0 0,0 -1.48,0.54 -3.01,0.94 -4.61,1.25 -0.11,0.02 -0.21,0.04 -0.32,0.06 -0.03,0 -0.06,0.01 -0.1,0.02 v 0.59 c 0.06,-0.02 0.13,-0.05 0.2,-0.09 0.8,0.32 0.99,0.31 2.77,-0.4 z"
       id="path57" />
    <path
       class="cls-2"
       d="m 135.59,110.26 c -0.05,0.15 -0.06,0.19 -0.13,0.41 0,0.02 0,0.04 0,0.07 -1.02,3.35 -2.53,6.52 -4.46,9.53 -0.04,-0.07 -0.09,-0.14 -0.13,-0.2 -1.28,2.24 -2.81,4.23 -4.55,6.11 -0.14,0.15 -0.28,0.3 -0.42,0.45 0.17,0.06 0.34,0.12 0.51,0.18 0.37,-0.42 0.73,-0.84 1.09,-1.27 0.14,-0.04 0.25,-0.12 0.48,-0.31 1.61,-1.7 3,-3.55 4.19,-5.51 0,0 0,-0.01 0.01,-0.02 q 0.15,-0.21 0.3,-0.42 c 0.13,-0.22 0.19,-0.32 0.21,-0.46 0.17,-0.29 0.33,-0.59 0.49,-0.89 0.17,-0.24 0.32,-0.49 0.47,-0.75 0.06,-0.11 0.13,-0.23 0.2,-0.34 0.05,-0.19 0.08,-0.27 0.07,-0.37 0.05,-0.1 0.09,-0.21 0.14,-0.31 0.02,-0.04 0.04,-0.09 0.06,-0.13 0.56,-1.24 0.91,-2.03 1.13,-2.59 0.27,-0.66 0.51,-1.32 0.73,-1.99 0.03,-0.08 0.06,-0.16 0.08,-0.26 0.78,-2.5 1.22,-5.1 1.38,-7.71 h 0.06 v -1.39 c 0.02,-0.79 0.02,-1.59 0,-2.38 0,0 0,-0.01 0,-0.01 v -0.04 c 0,0 0,-0.12 0,-0.12 0,-0.19 0.01,-0.38 0.02,-0.57 0.01,-0.67 0,-1.34 -0.02,-2.01 v -0.03 h 0.23 c 0.19,-3.21 -0.87,-6.81 -2.05,-9.93 -0.61,-1.83 -1.36,-3.6 -2.26,-5.27 -0.12,0.11 -0.23,0.23 -0.35,0.34 0.02,0.06 0.04,0.12 0.06,0.19 -0.02,0.04 -0.04,0.1 -0.06,0.16 q 0.12,0.32 0.34,0.69 c 0.13,0.24 0.25,0.49 0.38,0.73 0,0.02 0.01,0.03 0.02,0.05 0.03,0.07 0.06,0.13 0.09,0.2 0.9,2.3 1.63,4.58 2.23,6.92 0.17,0.86 0.31,1.73 0.42,2.58 0.05,0.36 0.1,0.73 0.16,1.09 0.03,0.19 0.04,0.38 0.07,0.57 0,0.07 0.01,0.13 0.02,0.2 v 0 c 0.02,0.14 0.04,0.29 0.05,0.43 0,0.1 0.02,0.21 0.03,0.31 0.11,1.27 0.15,2.53 0.15,3.82 0,0.14 0,0.29 0,0.43 -0.01,3.44 -0.51,6.73 -1.42,9.87 z"
       id="path58" />
    <path
       class="cls-2"
       d="m 120.95,78.39 c 0.17,-0.15 0.32,-0.3 0.49,-0.47 0.09,-0.09 0.18,-0.18 0.28,-0.27 0.29,-0.29 0.58,-0.58 0.87,-0.87 0.29,-0.29 0.57,-0.57 0.86,-0.86 0.18,-0.18 0.36,-0.36 0.53,-0.53 0.33,-0.33 0.66,-0.63 1.01,-0.92 0.03,0 0.06,0.02 0.1,0.02 0.09,-0.11 0.18,-0.22 0.27,-0.32 0.15,-0.12 0.29,-0.24 0.44,-0.36 0,0 -0.02,-0.02 -0.03,-0.03 0.19,-0.15 0.3,-0.24 0.41,-0.34 0.17,-0.15 0.32,-0.3 0.49,-0.46 0.09,-0.09 0.18,-0.18 0.28,-0.27 0.29,-0.29 0.58,-0.58 0.87,-0.87 0.29,-0.29 0.57,-0.57 0.86,-0.86 0.18,-0.18 0.36,-0.36 0.53,-0.54 0.33,-0.33 0.66,-0.63 1.01,-0.92 0.03,0 0.06,0.02 0.1,0.02 0.09,-0.11 0.18,-0.22 0.27,-0.32 0.15,-0.12 0.29,-0.24 0.44,-0.36 -0.03,-0.02 -0.05,-0.05 -0.08,-0.08 0.03,-0.03 0.05,-0.06 0.08,-0.1 -0.06,0 -0.11,0 -0.17,0 -0.06,-0.06 -0.12,-0.12 -0.19,-0.18 -0.13,0.12 -0.25,0.22 -0.37,0.33 -0.23,0.12 -0.42,0.3 -0.69,0.53 0.03,0 0.05,0.01 0.08,0.02 -1.32,1.17 -1.46,1.31 -2.31,2.14 -0.36,0.34 -0.75,0.62 -1.14,0.92 -0.3,0.28 -0.59,0.57 -0.89,0.86 -0.12,0.11 -0.23,0.23 -0.35,0.34 0.06,0.03 0.11,0.05 0.15,0.07 -0.02,0.02 -0.05,0.04 -0.07,0.07 -0.23,0.12 -0.42,0.3 -0.69,0.53 0.02,0 0.05,0.01 0.08,0.02 -1.32,1.17 -1.46,1.31 -2.31,2.14 -0.36,0.34 -0.75,0.62 -1.14,0.92 -0.3,0.28 -0.59,0.57 -0.89,0.86 -0.12,0.11 -0.23,0.23 -0.35,0.34 q 0.29,0.14 0.71,0.17 c 0.24,-0.19 0.35,-0.28 0.47,-0.39 z"
       id="path59" />
  </g>
  <g
     id="g64"
     transform="translate(-45.29,-45.1)">
    <path
       class="cls-2"
       d="M 132.15,66.49 C 123.23,57.47 111.33,52.5 98.65,52.5 v -0.65 c 12.86,0 24.92,5.04 33.96,14.18 z"
       id="path60" />
    <g
       id="g63">
      <path
         class="cls-2"
         d="m 73.38,125.26 c -6.92,-6.82 -10.74,-15.93 -10.74,-25.64 0,-19.85 16.15,-36 36,-36 9.71,0 18.81,3.81 25.64,10.73 l -0.46,0.46 c -6.7,-6.8 -15.64,-10.54 -25.17,-10.54 -19.49,0 -35.35,15.86 -35.35,35.35 0,9.53 3.74,18.47 10.54,25.17 l -0.46,0.46 z"
         id="path61" />
      <path
         class="cls-2"
         d="M 65.05,133.59 C 55.9,124.54 50.87,112.48 50.87,99.63 50.87,73.29 72.3,51.85 98.65,51.85 v 0.65 c -25.99,0 -47.13,21.14 -47.13,47.13 0,12.68 4.97,24.58 13.99,33.5 z"
         id="path62" />
      <path
         class="cls-2"
         d="m 79.36,119.29 c -5.33,-5.23 -8.26,-12.21 -8.26,-19.66 0,-15.19 12.36,-27.55 27.55,-27.55 7.45,0 14.44,2.93 19.66,8.26 l -0.46,0.46 c -5.1,-5.2 -11.92,-8.07 -19.2,-8.07 -14.83,0 -26.9,12.07 -26.9,26.9 0,7.28 2.86,14.09 8.06,19.2 l -0.46,0.46 z"
         id="path63" />
    </g>
  </g>
</svg>
