<?xml version="1.0" encoding="UTF-8" standalone="no"?>
<svg
   id="Layer_1"
   data-name="Layer 1"
   viewBox="0 0 320 109.11"
   version="1.1"
   sodipodi:docname="logo-wordmark.svg"
   width="320"
   height="109.11"
   inkscape:version="1.3.2 (091e20ef0f, 2023-11-25)"
   xmlns:inkscape="http://www.inkscape.org/namespaces/inkscape"
   xmlns:sodipodi="http://sodipodi.sourceforge.net/DTD/sodipodi-0.dtd"
   xmlns="http://www.w3.org/2000/svg"
   xmlns:svg="http://www.w3.org/2000/svg">
  <sodipodi:namedview
     id="namedview64"
     pagecolor="#505050"
     bordercolor="#eeeeee"
     borderopacity="1"
     inkscape:showpageshadow="0"
     inkscape:pageopacity="0"
     inkscape:pagecheckerboard="0"
     inkscape:deskcolor="#d1d1d1"
     inkscape:zoom="3.3080158"
     inkscape:cx="162.18181"
     inkscape:cy="39.600778"
     inkscape:window-width="3434"
     inkscape:window-height="702"
     inkscape:window-x="0"
     inkscape:window-y="24"
     inkscape:window-maximized="1"
     inkscape:current-layer="Layer_1" />
  <defs
     id="defs1">
    <style
       id="style1">
      .cls-1 {
        fill: #fff;
        font-family: 42dotSans-ExtraBold, '42dot Sans';
        font-size: 20px;
        font-weight: 700;
        letter-spacing: -.02em;
      }

      .cls-2 {
        fill: #2e93c1;
      }

      .cls-3 {
        fill: #2b93c1;
      }
    </style>
  </defs>
  <g
     id="g14"
     transform="translate(-45.29,-45.1)">
    <path
       class="cls-2"
       d="m 196.15,86.8 c -1.02,0.82 -2.42,1.23 -4.18,1.23 -2.36,0 -4.13,-0.8 -5.31,-2.39 -1.18,-1.59 -1.77,-4.03 -1.77,-7.29 0,-3.26 0.59,-5.66 1.77,-7.25 1.18,-1.59 2.95,-2.39 5.31,-2.39 1.76,0 3.15,0.41 4.16,1.23 1.01,0.82 1.65,2.11 1.91,3.87 h 5.37 c -0.21,-2.05 -0.83,-3.79 -1.87,-5.21 -1.04,-1.43 -2.38,-2.51 -4.03,-3.25 -1.65,-0.74 -3.5,-1.11 -5.54,-1.11 -3.86,0 -6.9,1.21 -9.12,3.62 -2.22,2.41 -3.33,5.91 -3.33,10.5 0,4.59 1.1,8.1 3.31,10.52 2.2,2.43 5.25,3.64 9.14,3.64 3.32,0 5.99,-0.83 8.01,-2.49 2.02,-1.66 3.18,-4.01 3.46,-7.04 h -5.37 c -0.26,1.74 -0.9,3.01 -1.93,3.83 z"
       id="path1" />
    <path
       class="cls-2"
       d="m 218.5,89.58 c 0.18,0.49 0.43,0.93 0.75,1.32 0.66,0.8 1.59,1.21 2.78,1.21 h 3.03 v -4.08 h -1.79 v -9.06 c 0,-1.53 -0.27,-2.77 -0.82,-3.73 -0.54,-0.96 -1.24,-1.71 -2.08,-2.26 -0.84,-0.54 -1.74,-0.92 -2.7,-1.13 -0.96,-0.21 -1.87,-0.31 -2.72,-0.31 -1.58,0 -3.03,0.25 -4.36,0.76 -1.32,0.51 -2.4,1.25 -3.23,2.24 -0.83,0.99 -1.28,2.18 -1.36,3.58 h 5.21 c 0.13,-0.91 0.45,-1.58 0.97,-2.02 0.52,-0.44 1.4,-0.66 2.65,-0.66 1.17,0 2.02,0.27 2.55,0.8 0.53,0.53 0.8,1.34 0.8,2.43 v 1.13 h -4.55 c -0.96,0 -1.93,0.1 -2.92,0.29 -0.99,0.19 -1.89,0.53 -2.72,0.99 -0.83,0.47 -1.5,1.12 -2,1.96 -0.51,0.84 -0.76,1.91 -0.76,3.21 0,1.43 0.32,2.6 0.97,3.52 0.65,0.92 1.54,1.61 2.66,2.06 1.13,0.45 2.41,0.68 3.83,0.68 1.71,0 3.12,-0.41 4.22,-1.23 0.63,-0.46 1.15,-1.03 1.58,-1.69 z m -7.47,-1.61 c -0.49,-0.43 -0.74,-1.08 -0.74,-1.96 0,-0.88 0.27,-1.55 0.8,-2 0.53,-0.45 1.39,-0.68 2.59,-0.68 h 4.51 v 1.17 c 0,1.27 -0.42,2.28 -1.24,3.01 -0.83,0.74 -2.01,1.11 -3.54,1.11 -1.09,0 -1.88,-0.21 -2.37,-0.64 z"
       id="path2" />
    <path
       class="cls-2"
       d="m 239.89,76.01 v -4.08 h -1.48 c -1.24,0 -2.28,0.22 -3.11,0.66 -0.83,0.44 -1.54,1.14 -2.14,2.1 l 0.04,-2.76 h -5.21 v 20.19 h 5.21 V 80.64 c 0,-1.63 0.34,-2.81 1.01,-3.54 0.67,-0.73 1.7,-1.09 3.07,-1.09 z"
       id="path3" />
    <path
       class="cls-2"
       d="m 248.84,92.5 c 2.02,0 3.64,-0.46 4.86,-1.38 0.58,-0.44 1.09,-0.96 1.52,-1.55 v 2.54 h 5.21 V 64.14 h -5.21 V 74.5 c -0.43,-0.6 -0.93,-1.12 -1.52,-1.57 -1.22,-0.93 -2.84,-1.4 -4.86,-1.4 -1.53,0 -2.95,0.36 -4.26,1.09 -1.31,0.73 -2.35,1.86 -3.13,3.4 -0.78,1.54 -1.17,3.56 -1.17,6.05 0,3.45 0.8,6.05 2.39,7.8 1.59,1.75 3.65,2.63 6.17,2.63 z m -2.12,-15.3 c 0.82,-1.08 2.06,-1.61 3.72,-1.61 1.66,0 2.81,0.54 3.6,1.61 0.79,1.08 1.19,2.69 1.19,4.84 0,2.15 -0.4,3.76 -1.19,4.82 -0.79,1.06 -1.99,1.59 -3.6,1.59 -1.61,0 -2.9,-0.53 -3.72,-1.59 -0.82,-1.06 -1.23,-2.67 -1.23,-4.82 0,-2.15 0.41,-3.77 1.23,-4.84 z"
       id="path4" />
    <path
       class="cls-2"
       d="m 283.73,88.03 h -1.79 v -9.06 c 0,-1.53 -0.27,-2.77 -0.82,-3.73 -0.54,-0.96 -1.24,-1.71 -2.08,-2.26 -0.84,-0.54 -1.74,-0.92 -2.7,-1.13 -0.96,-0.21 -1.87,-0.31 -2.72,-0.31 -1.58,0 -3.03,0.25 -4.36,0.76 -1.32,0.51 -2.4,1.25 -3.23,2.24 -0.83,0.99 -1.28,2.18 -1.36,3.58 h 5.21 c 0.13,-0.91 0.45,-1.58 0.97,-2.02 0.52,-0.44 1.4,-0.66 2.65,-0.66 1.17,0 2.02,0.27 2.55,0.8 0.53,0.53 0.8,1.34 0.8,2.43 v 1.13 h -4.55 c -0.96,0 -1.93,0.1 -2.92,0.29 -0.99,0.19 -1.89,0.53 -2.72,0.99 -0.83,0.47 -1.5,1.12 -2,1.96 -0.51,0.84 -0.76,1.91 -0.76,3.21 0,1.43 0.32,2.6 0.97,3.52 0.65,0.92 1.54,1.61 2.66,2.06 1.13,0.45 2.41,0.68 3.83,0.68 1.71,0 3.12,-0.41 4.22,-1.23 0.63,-0.46 1.15,-1.03 1.58,-1.69 0.18,0.49 0.43,0.93 0.75,1.32 0.66,0.8 1.59,1.21 2.78,1.21 h 3.03 V 88.04 Z M 275.6,87.5 c -0.83,0.74 -2.01,1.11 -3.54,1.11 -1.09,0 -1.88,-0.21 -2.37,-0.64 -0.49,-0.43 -0.74,-1.08 -0.74,-1.96 0,-0.88 0.27,-1.55 0.8,-2 0.53,-0.45 1.39,-0.68 2.59,-0.68 h 4.51 v 1.17 c 0,1.27 -0.42,2.28 -1.24,3.01 z"
       id="path5" />
    <path
       class="cls-2"
       d="m 297.07,71.54 c -1.24,0 -2.28,0.22 -3.11,0.66 -0.83,0.44 -1.54,1.14 -2.14,2.1 l 0.04,-2.37 h -5.21 v 20.19 h 5.21 V 80.26 c 0,-1.09 0.15,-1.97 0.45,-2.65 0.3,-0.67 0.75,-1.17 1.36,-1.5 0.61,-0.32 1.37,-0.49 2.28,-0.49 1.17,0 2.04,0.32 2.63,0.95 0.58,0.64 0.88,1.68 0.88,3.13 v 12.41 h 5.21 V 79.74 c 0,-2.93 -0.69,-5.03 -2.08,-6.3 -1.39,-1.27 -3.22,-1.91 -5.5,-1.91 z"
       id="path6" />
    <path
       class="cls-2"
       d="m 327.06,76.32 c -0.86,-1.56 -2.04,-2.74 -3.56,-3.56 -1.52,-0.82 -3.3,-1.23 -5.35,-1.23 -3.09,0 -5.55,0.91 -7.39,2.72 -1.84,1.82 -2.76,4.41 -2.76,7.78 0,3.37 0.91,5.96 2.74,7.76 1.83,1.8 4.3,2.7 7.41,2.7 3.11,0 5.56,-0.9 7.41,-2.7 1.85,-1.8 2.78,-4.39 2.78,-7.76 0,-2.26 -0.43,-4.16 -1.28,-5.72 z m -5.15,10.52 c -0.82,1.05 -2.06,1.58 -3.72,1.58 -1.66,0 -2.94,-0.52 -3.75,-1.58 -0.82,-1.05 -1.23,-2.65 -1.23,-4.8 0,-2.15 0.41,-3.76 1.23,-4.82 0.82,-1.06 2.07,-1.59 3.75,-1.59 1.68,0 2.9,0.53 3.72,1.59 0.82,1.06 1.23,2.67 1.23,4.82 0,2.15 -0.41,3.75 -1.23,4.8 z"
       id="path7" />
    <path
       class="cls-2"
       d="m 199.84,118.79 c -0.66,-0.52 -1.36,-0.9 -2.1,-1.15 -0.74,-0.25 -1.42,-0.38 -2.04,-0.41 v -0.12 c 0.8,-0.08 1.61,-0.31 2.43,-0.7 0.82,-0.39 1.5,-0.97 2.06,-1.75 0.56,-0.78 0.84,-1.79 0.84,-3.03 0,-1.45 -0.32,-2.76 -0.95,-3.91 -0.64,-1.15 -1.64,-2.07 -3.01,-2.74 -1.38,-0.67 -3.2,-1.01 -5.48,-1.01 h -10.43 v 27.5 h 10.78 c 2.57,0 4.6,-0.34 6.09,-1.03 1.49,-0.69 2.55,-1.61 3.17,-2.78 0.62,-1.17 0.93,-2.46 0.93,-3.89 0,-1.17 -0.21,-2.16 -0.64,-2.98 -0.43,-0.82 -0.97,-1.48 -1.63,-2 z m -13.32,-10.35 h 5.06 c 1.19,0 2.09,0.14 2.7,0.41 0.61,0.27 1.02,0.66 1.23,1.15 0.21,0.49 0.31,1.08 0.31,1.75 0,1.22 -0.36,2.11 -1.09,2.66 -0.73,0.56 -1.82,0.84 -3.27,0.84 h -4.94 z m 10,16.92 c -0.23,0.54 -0.71,0.95 -1.42,1.23 -0.71,0.27 -1.78,0.41 -3.21,0.41 h -5.37 v -7.24 h 5.56 c 1.11,0 2.02,0.15 2.72,0.45 0.7,0.3 1.22,0.71 1.56,1.24 0.34,0.53 0.51,1.17 0.51,1.93 0,0.76 -0.12,1.44 -0.35,1.98 z"
       id="path8" />
    <rect
       class="cls-2"
       x="205.42"
       y="103.5"
       width="5.21"
       height="27.969999"
       id="rect8" />
    <path
       class="cls-2"
       d="m 228.06,123.15 c 0,1.09 -0.15,1.97 -0.45,2.65 -0.3,0.67 -0.75,1.17 -1.34,1.5 -0.6,0.32 -1.36,0.49 -2.3,0.49 -1.17,0 -2.04,-0.32 -2.63,-0.95 -0.58,-0.63 -0.88,-1.68 -0.88,-3.13 V 111.3 h -5.21 v 12.37 c 0,2.93 0.69,5.03 2.08,6.3 1.39,1.27 3.22,1.91 5.5,1.91 1.24,0 2.29,-0.22 3.13,-0.66 0.84,-0.44 1.55,-1.14 2.12,-2.1 l -0.04,2.37 h 5.21 V 111.3 h -5.21 v 11.86 z"
       id="path9" />
    <path
       class="cls-2"
       d="m 251.81,112.14 c -1.41,-0.83 -3.13,-1.24 -5.15,-1.24 -3.11,0 -5.54,0.91 -7.27,2.74 -1.74,1.83 -2.61,4.44 -2.61,7.84 0,3.4 0.87,5.95 2.61,7.72 1.74,1.78 4.25,2.66 7.55,2.66 1.97,0 3.6,-0.26 4.9,-0.78 1.3,-0.52 2.29,-1.24 2.98,-2.16 0.69,-0.92 1.1,-1.98 1.23,-3.17 h -5.37 c -0.1,0.7 -0.42,1.23 -0.95,1.59 -0.53,0.36 -1.46,0.54 -2.78,0.54 -1.87,0 -3.16,-0.48 -3.89,-1.44 -0.55,-0.73 -0.9,-1.88 -1.03,-3.42 h 14.17 v -1.56 c 0,-2.26 -0.38,-4.17 -1.13,-5.74 -0.75,-1.57 -1.84,-2.77 -3.25,-3.6 z m -9.75,7.35 c 0.16,-1.37 0.49,-2.41 1,-3.11 0.74,-1.01 1.94,-1.52 3.6,-1.52 1.35,0 2.39,0.43 3.11,1.3 0.73,0.87 1.13,1.98 1.21,3.33 z"
       id="path10" />
    <path
       class="cls-2"
       d="m 275.75,111.98 c -1.3,-0.73 -2.72,-1.09 -4.28,-1.09 -2,0 -3.61,0.47 -4.84,1.4 -0.61,0.46 -1.13,1 -1.58,1.62 v -2.64 h -5.21 v 28.05 h 5.21 v -10.45 c 0.44,0.61 0.97,1.15 1.58,1.6 1.23,0.92 2.85,1.38 4.84,1.38 2.54,0 4.6,-0.88 6.19,-2.63 1.58,-1.75 2.37,-4.35 2.37,-7.8 0,-2.49 -0.39,-4.51 -1.17,-6.05 -0.78,-1.54 -1.82,-2.68 -3.11,-3.4 z m -2.16,14.24 c -0.82,1.06 -2.06,1.59 -3.72,1.59 -1.66,0 -2.81,-0.53 -3.62,-1.59 -0.8,-1.06 -1.21,-2.67 -1.21,-4.82 0,-2.15 0.4,-3.77 1.21,-4.84 0.8,-1.08 2.01,-1.61 3.62,-1.61 1.61,0 2.9,0.54 3.72,1.61 0.82,1.08 1.23,2.69 1.23,4.84 0,2.15 -0.41,3.76 -1.23,4.82 z"
       id="path11" />
    <path
       class="cls-2"
       d="m 290.85,111.94 c -0.83,0.44 -1.54,1.14 -2.14,2.1 l 0.04,-2.76 h -5.21 v 20.19 h 5.21 v -11.48 c 0,-1.63 0.34,-2.81 1.01,-3.54 0.67,-0.73 1.7,-1.09 3.07,-1.09 h 2.61 v -4.08 h -1.48 c -1.24,0 -2.28,0.22 -3.11,0.66 z"
       id="path12" />
    <rect
       class="cls-2"
       x="297.19"
       y="111.28"
       width="5.21"
       height="20.190001"
       id="rect12" />
    <rect
       class="cls-2"
       x="297.07001"
       y="103.5"
       width="5.4499998"
       height="5.3699999"
       id="rect13" />
    <path
       class="cls-2"
       d="m 317.42,110.89 c -1.24,0 -2.28,0.22 -3.11,0.66 -0.83,0.44 -1.54,1.14 -2.14,2.1 l 0.04,-2.37 H 307 v 20.19 h 5.21 v -11.86 c 0,-1.09 0.15,-1.97 0.45,-2.65 0.3,-0.67 0.75,-1.17 1.36,-1.5 0.61,-0.32 1.37,-0.49 2.28,-0.49 1.17,0 2.04,0.32 2.63,0.95 0.58,0.64 0.88,1.68 0.88,3.13 v 12.41 h 5.21 v -12.37 c 0,-2.93 -0.69,-5.03 -2.08,-6.3 -1.39,-1.27 -3.22,-1.91 -5.5,-1.91 z"
       id="path13" />
    <path
       class="cls-2"
       d="m 339.47,115.37 v -4.08 h -4.01 v -5.64 h -5.21 v 5.64 h -3.11 v 4.08 h 3.11 v 10.85 c 0,1.82 0.56,3.14 1.67,3.99 1.11,0.84 2.54,1.26 4.28,1.26 h 3.27 v -4.08 h -4.01 v -12.02 z"
       id="path14" />
  </g>
  <rect
     class="cls-3"
     width="109.07216"
     height="109.07216"
     id="rect1"
     x="0"
     y="0"
     style="fill:#2e93c1;stroke-width:0.393189" />
  <g
     id="g29"
     transform="matrix(1.00466,0,0,0.99995803,-45.529847,-45.13651)">
    <path
       class="cls-2"
       d="m 120.87,98.3 c -0.51,-1.7 -1.55,-3.04 -2.97,-4.01 -0.18,-0.11 -0.36,-0.21 -0.55,-0.3 -0.03,-0.02 -0.06,-0.03 -0.09,-0.04 -0.16,-0.08 -0.31,-0.15 -0.47,-0.21 -0.03,-0.01 -0.06,-0.02 -0.09,-0.03 -0.16,-0.06 -0.32,-0.12 -0.48,-0.17 -0.03,0 -0.06,-0.02 -0.09,-0.03 -0.16,-0.05 -0.32,-0.09 -0.48,-0.13 -0.04,0 -0.07,-0.02 -0.11,-0.02 -0.15,-0.03 -0.29,-0.06 -0.44,-0.08 -0.06,0 -0.11,-0.01 -0.17,-0.02 -0.12,-0.01 -0.24,-0.03 -0.36,-0.03 -0.09,0 -0.17,0 -0.26,-0.01 -0.08,0 -0.16,0 -0.25,0 -0.12,0 -0.25,0 -0.37,0.01 -0.04,0 -0.07,0 -0.11,0 -1.05,0.08 -2.08,0.41 -3.03,0.99 -0.33,0.2 -0.66,0.42 -0.98,0.67 -0.09,0.09 -0.18,0.18 -0.26,0.28 -0.07,0.07 -0.15,0.13 -0.22,0.21 -0.07,0.11 -0.14,0.22 -0.21,0.33 -0.07,0.1 -0.14,0.21 -0.2,0.31 -0.04,0.07 -0.08,0.14 -0.12,0.21 -0.21,0.34 -0.38,0.68 -0.52,1.02 0,0 -0.02,-0.02 -0.02,-0.02 -0.15,0.32 -0.19,0.39 -0.27,1 -0.07,0.3 -0.11,0.59 -0.14,0.9 -0.05,0.22 -0.06,0.49 -0.04,0.9 0,0.48 0.04,0.98 0.1,1.51 0.15,0.68 0.4,1.28 0.74,1.82 0.13,0.22 0.27,0.43 0.43,0.65 0.28,0.31 0.59,0.61 0.91,0.89 v 0.05 c 0.28,0.21 0.56,0.41 0.85,0.6 0.06,0.04 0.13,0.08 0.2,0.12 0.11,0.08 0.21,0.15 0.31,0.22 1.41,0.82 3.58,0.76 5.11,0.33 0.16,-0.07 0.32,-0.13 0.47,-0.2 1.49,-0.62 2.45,-1.46 3.44,-2.75 0.96,-1.49 0.93,-3.25 0.72,-4.98 z m -9.35,6.66 q -0.19,-0.1 -0.37,-0.19 -0.48,-0.2 -0.87,-0.54 c -0.98,-1.17 -1.63,-2.24 -1.64,-3.81 0,-0.16 0,-0.32 0,-0.47 0,-0.23 0,-0.45 0,-0.66 0.04,-0.32 0.08,-0.65 0.12,-0.97 0.15,-0.7 0.44,-1.34 0.94,-2.05 2.17,-2.3 5.46,-2.73 7.98,-0.85 0.14,0.13 0.27,0.25 0.4,0.37 0.5,0.46 0.92,0.92 1.26,1.52 0.57,1.26 0.67,2.87 0.29,4.21 -0.64,1.6 -1.84,2.96 -3.4,3.63 -1.65,0.52 -3.14,0.56 -4.73,-0.19 z"
       id="path15"
       style="fill:#ffffff" />
    <path
       class="cls-2"
       d="m 125.92,85.53 c -0.3,-1 -0.92,-1.79 -1.75,-2.37 -0.11,-0.06 -0.22,-0.12 -0.32,-0.18 -0.02,0 -0.04,-0.02 -0.06,-0.03 -0.09,-0.04 -0.18,-0.09 -0.28,-0.12 -0.02,0 -0.03,-0.01 -0.05,-0.02 -0.09,-0.04 -0.19,-0.07 -0.28,-0.1 -0.02,0 -0.03,0 -0.05,-0.01 -0.09,-0.03 -0.19,-0.05 -0.28,-0.08 -0.02,0 -0.04,0 -0.07,-0.01 -0.09,-0.02 -0.17,-0.03 -0.26,-0.05 -0.03,0 -0.07,0 -0.1,-0.01 -0.07,0 -0.14,-0.02 -0.21,-0.02 -0.05,0 -0.1,0 -0.15,0 -0.05,0 -0.1,0 -0.15,0 -0.07,0 -0.15,0 -0.22,0 -0.02,0 -0.04,0 -0.06,0 -0.62,0.05 -1.23,0.24 -1.79,0.59 -0.2,0.12 -0.39,0.25 -0.58,0.4 -0.05,0.05 -0.11,0.11 -0.16,0.16 -0.04,0.04 -0.09,0.08 -0.13,0.12 -0.04,0.07 -0.08,0.13 -0.13,0.2 -0.04,0.06 -0.08,0.12 -0.12,0.18 -0.02,0.04 -0.05,0.08 -0.07,0.12 -0.12,0.2 -0.23,0.4 -0.3,0.6 0,0 0,0 -0.01,-0.01 -0.09,0.19 -0.11,0.23 -0.16,0.59 -0.04,0.17 -0.07,0.35 -0.08,0.53 -0.03,0.13 -0.04,0.29 -0.02,0.53 0,0.29 0.03,0.58 0.06,0.89 0.09,0.4 0.24,0.76 0.44,1.07 0.07,0.13 0.16,0.26 0.25,0.38 0.17,0.18 0.35,0.36 0.54,0.53 v 0.03 c 0.16,0.12 0.33,0.24 0.5,0.35 0.04,0.03 0.08,0.05 0.12,0.07 0.06,0.04 0.12,0.09 0.19,0.13 0.83,0.48 2.11,0.45 3.01,0.2 0.09,-0.04 0.19,-0.08 0.28,-0.12 0.88,-0.37 1.45,-0.86 2.03,-1.62 0.56,-0.88 0.55,-1.91 0.43,-2.93 z m -5.35,3.63 q -0.1,-0.05 -0.2,-0.1 -0.26,-0.11 -0.46,-0.29 c -0.52,-0.62 -0.86,-1.19 -0.87,-2.02 0,-0.09 0,-0.17 0,-0.25 0,-0.12 0,-0.24 0,-0.35 0.02,-0.17 0.04,-0.34 0.06,-0.52 0.08,-0.37 0.23,-0.71 0.5,-1.08 1.15,-1.22 2.9,-1.45 4.23,-0.45 0.07,0.07 0.14,0.13 0.21,0.2 0.27,0.24 0.49,0.49 0.67,0.8 0.3,0.67 0.35,1.52 0.16,2.23 -0.34,0.85 -0.98,1.57 -1.8,1.93 -0.88,0.28 -1.67,0.3 -2.51,-0.1 z"
       id="path16"
       style="fill:#ffffff" />
    <path
       class="cls-2"
       d="m 124.86,116.36 c 0.7,-0.78 1.05,-1.72 1.09,-2.74 0,-0.12 0,-0.25 -0.02,-0.37 0,-0.02 0,-0.04 0,-0.06 -0.01,-0.1 -0.02,-0.2 -0.04,-0.3 0,-0.02 0,-0.04 -0.01,-0.05 -0.02,-0.1 -0.04,-0.2 -0.06,-0.29 0,-0.02 0,-0.03 -0.01,-0.05 -0.02,-0.09 -0.05,-0.19 -0.08,-0.28 0,-0.02 -0.02,-0.04 -0.02,-0.06 -0.03,-0.08 -0.06,-0.16 -0.1,-0.24 -0.01,-0.03 -0.03,-0.06 -0.04,-0.09 -0.03,-0.06 -0.06,-0.13 -0.09,-0.19 -0.02,-0.05 -0.05,-0.09 -0.07,-0.13 -0.02,-0.04 -0.05,-0.08 -0.08,-0.12 -0.04,-0.06 -0.08,-0.12 -0.12,-0.18 -0.01,-0.02 -0.02,-0.03 -0.04,-0.05 -0.37,-0.5 -0.85,-0.92 -1.44,-1.21 -0.2,-0.11 -0.42,-0.2 -0.64,-0.28 -0.08,-0.02 -0.15,-0.03 -0.22,-0.05 -0.06,-0.02 -0.11,-0.03 -0.17,-0.05 -0.08,0 -0.16,0 -0.23,0 -0.07,0 -0.15,0 -0.22,0 -0.05,0 -0.1,0 -0.14,0 -0.23,0 -0.46,0.02 -0.67,0.06 0,0 0,-0.01 0,-0.02 -0.21,0.02 -0.25,0.03 -0.59,0.18 -0.17,0.06 -0.33,0.13 -0.49,0.21 -0.12,0.04 -0.26,0.12 -0.47,0.26 -0.24,0.15 -0.48,0.33 -0.72,0.52 -0.3,0.28 -0.52,0.6 -0.68,0.94 -0.07,0.13 -0.14,0.27 -0.19,0.42 -0.07,0.24 -0.13,0.49 -0.17,0.73 h -0.02 c -0.02,0.22 -0.03,0.42 -0.04,0.63 0,0.05 0,0.09 0,0.14 0,0.08 0,0.15 -0.01,0.23 0.02,0.96 0.73,2.03 1.42,2.67 0.08,0.06 0.17,0.12 0.25,0.18 0.77,0.55 1.49,0.78 2.45,0.88 1.04,0.02 1.92,-0.54 2.72,-1.18 z m -5.9,-2.65 q 0,-0.11 -0.02,-0.22 -0.04,-0.28 0,-0.54 c 0.25,-0.77 0.56,-1.36 1.26,-1.8 0.07,-0.04 0.14,-0.09 0.21,-0.13 0.1,-0.07 0.2,-0.12 0.3,-0.18 0.16,-0.07 0.32,-0.14 0.47,-0.22 0.36,-0.13 0.73,-0.17 1.18,-0.15 1.64,0.34 2.75,1.7 2.61,3.37 -0.02,0.1 -0.04,0.19 -0.06,0.28 -0.07,0.35 -0.16,0.67 -0.33,0.99 -0.41,0.61 -1.11,1.1 -1.82,1.3 -0.9,0.16 -1.85,0 -2.59,-0.52 -0.7,-0.6 -1.13,-1.26 -1.23,-2.18 z"
       id="path17"
       style="fill:#ffffff" />
    <path
       class="cls-2"
       d="m 118.65,132.71 c 0.59,-0.66 0.89,-1.46 0.92,-2.32 0,-0.11 0,-0.21 -0.02,-0.31 0,-0.02 0,-0.03 0,-0.05 0,-0.09 -0.02,-0.17 -0.03,-0.25 0,-0.02 0,-0.03 0,-0.05 -0.02,-0.08 -0.03,-0.17 -0.05,-0.25 0,-0.01 0,-0.03 -0.01,-0.04 -0.02,-0.08 -0.04,-0.16 -0.07,-0.24 0,-0.02 -0.01,-0.04 -0.02,-0.05 -0.03,-0.07 -0.05,-0.14 -0.08,-0.21 -0.01,-0.03 -0.02,-0.05 -0.04,-0.08 -0.03,-0.05 -0.05,-0.11 -0.08,-0.16 -0.02,-0.04 -0.04,-0.08 -0.06,-0.11 -0.02,-0.04 -0.04,-0.07 -0.06,-0.11 -0.03,-0.05 -0.07,-0.1 -0.1,-0.15 -0.01,-0.01 -0.02,-0.03 -0.03,-0.04 -0.31,-0.43 -0.72,-0.78 -1.22,-1.03 -0.17,-0.09 -0.35,-0.17 -0.54,-0.24 -0.06,-0.02 -0.13,-0.03 -0.19,-0.04 -0.05,-0.01 -0.1,-0.03 -0.15,-0.04 -0.07,0 -0.13,0 -0.2,0 -0.06,0 -0.12,0 -0.19,0 -0.04,0 -0.08,0 -0.12,0 -0.2,0 -0.39,0.02 -0.57,0.05 0,0 0,-0.01 0,-0.02 -0.18,0.02 -0.21,0.02 -0.5,0.15 -0.14,0.05 -0.28,0.11 -0.42,0.18 -0.11,0.04 -0.22,0.1 -0.4,0.22 -0.21,0.13 -0.41,0.28 -0.61,0.44 -0.25,0.24 -0.44,0.51 -0.58,0.79 -0.06,0.11 -0.11,0.23 -0.16,0.35 -0.06,0.2 -0.11,0.41 -0.14,0.62 h -0.02 c -0.02,0.19 -0.03,0.36 -0.03,0.53 0,0.04 0,0.08 0,0.12 0,0.07 0,0.13 -0.01,0.19 0.02,0.81 0.62,1.72 1.2,2.26 0.07,0.05 0.14,0.1 0.21,0.15 0.66,0.47 1.26,0.66 2.07,0.74 0.88,0.02 1.63,-0.46 2.31,-1 z m -4.88,-2.26 q 0,-0.09 -0.01,-0.18 -0.01,-0.09 0,-0.44 c 0.21,-0.62 0.45,-1.1 1.02,-1.46 0.06,-0.04 0.12,-0.07 0.17,-0.1 0.08,-0.05 0.16,-0.1 0.24,-0.14 0.13,-0.06 0.26,-0.12 0.38,-0.18 0.29,-0.1 0.59,-0.14 0.96,-0.12 1.33,0.27 2.22,1.38 2.11,2.72 -0.02,0.08 -0.03,0.15 -0.04,0.23 -0.05,0.29 -0.13,0.54 -0.27,0.8 -0.33,0.49 -0.9,0.89 -1.47,1.06 -0.73,0.13 -1.5,0 -2.09,-0.42 -0.56,-0.49 -0.91,-1.02 -1,-1.77 z"
       id="path18"
       style="fill:#ffffff" />
    <path
       class="cls-2"
       d="m 83.64,132.71 c 0.59,-0.66 0.89,-1.46 0.92,-2.32 0,-0.11 0,-0.21 -0.02,-0.31 0,-0.02 0,-0.03 0,-0.05 0,-0.09 -0.02,-0.17 -0.03,-0.25 0,-0.02 0,-0.03 0,-0.05 -0.02,-0.08 -0.03,-0.17 -0.05,-0.25 0,-0.01 0,-0.03 -0.01,-0.04 -0.02,-0.08 -0.04,-0.16 -0.07,-0.24 0,-0.02 -0.01,-0.04 -0.02,-0.05 -0.03,-0.07 -0.05,-0.14 -0.08,-0.21 -0.01,-0.03 -0.02,-0.05 -0.04,-0.08 -0.03,-0.05 -0.05,-0.11 -0.08,-0.16 -0.02,-0.04 -0.04,-0.08 -0.06,-0.11 -0.02,-0.04 -0.04,-0.07 -0.06,-0.11 -0.03,-0.05 -0.07,-0.1 -0.1,-0.15 -0.01,-0.01 -0.02,-0.03 -0.03,-0.04 -0.31,-0.43 -0.72,-0.78 -1.22,-1.03 -0.17,-0.09 -0.35,-0.17 -0.54,-0.24 -0.06,-0.02 -0.13,-0.03 -0.19,-0.04 -0.05,-0.01 -0.1,-0.03 -0.15,-0.04 -0.07,0 -0.13,0 -0.2,0 -0.06,0 -0.12,0 -0.19,0 -0.04,0 -0.08,0 -0.12,0 -0.2,0 -0.39,0.02 -0.57,0.05 0,0 0,-0.01 0,-0.02 -0.18,0.02 -0.21,0.02 -0.5,0.15 -0.14,0.05 -0.28,0.11 -0.42,0.18 -0.11,0.04 -0.22,0.1 -0.4,0.22 -0.21,0.13 -0.41,0.28 -0.61,0.44 -0.25,0.24 -0.44,0.51 -0.58,0.79 -0.06,0.11 -0.11,0.23 -0.16,0.35 -0.06,0.2 -0.11,0.41 -0.14,0.62 H 77.9 c -0.02,0.19 -0.03,0.36 -0.03,0.53 0,0.04 0,0.08 0,0.12 0,0.07 0,0.13 -0.01,0.19 0.02,0.81 0.62,1.72 1.2,2.26 0.07,0.05 0.14,0.1 0.21,0.15 0.66,0.47 1.26,0.66 2.07,0.74 0.88,0.02 1.63,-0.46 2.31,-1 z m -4.87,-2.26 q 0,-0.09 -0.01,-0.18 -0.01,-0.09 0,-0.44 c 0.21,-0.62 0.45,-1.1 1.02,-1.46 0.06,-0.04 0.12,-0.07 0.17,-0.1 0.08,-0.05 0.16,-0.1 0.24,-0.14 0.13,-0.06 0.26,-0.12 0.38,-0.18 0.29,-0.1 0.59,-0.14 0.96,-0.12 1.33,0.27 2.22,1.38 2.11,2.72 -0.02,0.08 -0.03,0.15 -0.04,0.23 -0.05,0.29 -0.13,0.54 -0.27,0.8 -0.33,0.49 -0.9,0.89 -1.47,1.06 -0.73,0.13 -1.5,0 -2.09,-0.42 -0.56,-0.49 -0.91,-1.02 -1,-1.77 z"
       id="path19"
       style="fill:#ffffff" />
    <path
       class="cls-2"
       d="m 137.89,80.32 c 0.48,-0.54 0.72,-1.19 0.75,-1.89 0,-0.09 0,-0.17 -0.01,-0.25 0,-0.01 0,-0.03 0,-0.04 0,-0.07 -0.02,-0.14 -0.03,-0.21 0,-0.01 0,-0.02 0,-0.04 -0.01,-0.07 -0.03,-0.14 -0.04,-0.2 0,-0.01 0,-0.02 0,-0.04 -0.02,-0.07 -0.04,-0.13 -0.06,-0.19 0,-0.01 -0.01,-0.03 -0.02,-0.04 -0.02,-0.06 -0.04,-0.11 -0.07,-0.17 0,-0.02 -0.02,-0.04 -0.03,-0.06 -0.02,-0.04 -0.04,-0.09 -0.07,-0.13 -0.02,-0.03 -0.03,-0.06 -0.05,-0.09 -0.02,-0.03 -0.03,-0.06 -0.05,-0.09 -0.03,-0.04 -0.05,-0.08 -0.08,-0.13 0,-0.01 -0.02,-0.02 -0.03,-0.03 -0.25,-0.35 -0.59,-0.63 -0.99,-0.84 -0.14,-0.07 -0.29,-0.14 -0.44,-0.2 -0.05,-0.01 -0.1,-0.02 -0.15,-0.03 -0.04,-0.01 -0.08,-0.02 -0.12,-0.03 -0.05,0 -0.11,0 -0.16,0 -0.05,0 -0.1,0 -0.15,0 -0.03,0 -0.07,0 -0.1,0 -0.16,0 -0.32,0.01 -0.46,0.04 0,0 0,0 0,-0.01 -0.14,0.01 -0.17,0.02 -0.4,0.12 -0.12,0.04 -0.23,0.09 -0.34,0.14 -0.09,0.03 -0.18,0.08 -0.32,0.18 -0.17,0.11 -0.33,0.23 -0.5,0.36 -0.21,0.2 -0.36,0.41 -0.47,0.65 -0.05,0.09 -0.09,0.19 -0.13,0.29 -0.05,0.17 -0.09,0.34 -0.11,0.51 h -0.02 c -0.01,0.15 -0.02,0.29 -0.03,0.43 0,0.03 0,0.06 0,0.09 0,0.05 0,0.1 0,0.16 0.02,0.66 0.5,1.4 0.98,1.84 0.06,0.04 0.11,0.08 0.17,0.12 0.53,0.38 1.03,0.54 1.69,0.6 0.72,0.01 1.32,-0.37 1.88,-0.81 z m -3.9,-1.84 q 0,-0.07 -0.01,-0.14 -0.01,-0.07 0,-0.35 c 0.16,-0.49 0.36,-0.87 0.81,-1.15 0.05,-0.03 0.09,-0.06 0.14,-0.08 0.07,-0.04 0.13,-0.08 0.19,-0.11 0.1,-0.05 0.2,-0.09 0.3,-0.14 0.23,-0.08 0.46,-0.11 0.76,-0.09 1.05,0.21 1.75,1.09 1.66,2.15 -0.01,0.06 -0.02,0.12 -0.04,0.18 -0.04,0.23 -0.1,0.43 -0.21,0.63 -0.26,0.39 -0.71,0.7 -1.16,0.83 -0.57,0.1 -1.18,0 -1.65,-0.33 -0.44,-0.38 -0.72,-0.81 -0.79,-1.39 z"
       id="path20"
       style="fill:#ffffff" />
    <path
       class="cls-2"
       d="m 96.63,141.09 c -0.48,0.54 -0.72,1.19 -0.75,1.89 0,0.09 0,0.17 0.01,0.25 0,0.01 0,0.03 0,0.04 0,0.07 0.02,0.14 0.03,0.21 0,0.01 0,0.02 0,0.04 0.01,0.07 0.03,0.14 0.04,0.2 0,0.01 0,0.02 0,0.04 0.02,0.07 0.04,0.13 0.06,0.19 0,0.01 0.01,0.03 0.02,0.04 0.02,0.06 0.04,0.11 0.07,0.17 0,0.02 0.02,0.04 0.03,0.06 0.02,0.04 0.04,0.09 0.07,0.13 0.02,0.03 0.03,0.06 0.05,0.09 0.02,0.03 0.03,0.06 0.05,0.09 0.03,0.04 0.05,0.08 0.08,0.13 0,0.01 0.02,0.02 0.03,0.03 0.25,0.35 0.59,0.63 0.99,0.84 0.14,0.07 0.29,0.14 0.44,0.2 0.05,0.01 0.1,0.02 0.15,0.03 0.04,0.01 0.08,0.02 0.12,0.03 0.05,0 0.11,0 0.16,0 0.05,0 0.1,0 0.15,0 0.03,0 0.07,0 0.1,0 0.16,0 0.32,-0.01 0.46,-0.04 0,0 0,0 0,0.01 0.14,-0.01 0.17,-0.02 0.4,-0.12 0.12,-0.04 0.23,-0.09 0.34,-0.14 0.09,-0.03 0.18,-0.08 0.32,-0.18 0.17,-0.11 0.33,-0.23 0.5,-0.36 0.21,-0.2 0.36,-0.41 0.47,-0.65 0.05,-0.09 0.09,-0.19 0.13,-0.29 0.05,-0.17 0.09,-0.34 0.11,-0.51 h 0.02 c 0.01,-0.15 0.02,-0.29 0.03,-0.43 0,-0.03 0,-0.06 0,-0.09 0,-0.05 0,-0.1 0,-0.16 -0.02,-0.66 -0.5,-1.4 -0.98,-1.84 -0.06,-0.04 -0.11,-0.08 -0.17,-0.12 -0.53,-0.38 -1.03,-0.54 -1.69,-0.6 -0.72,-0.01 -1.32,0.37 -1.88,0.81 z m 3.91,1.83 q 0,0.07 0.01,0.14 0.01,0.07 0,0.35 c -0.16,0.49 -0.36,0.87 -0.81,1.15 -0.05,0.03 -0.09,0.06 -0.14,0.08 -0.07,0.04 -0.13,0.08 -0.19,0.11 -0.1,0.05 -0.2,0.09 -0.3,0.14 -0.23,0.08 -0.46,0.11 -0.76,0.09 -1.05,-0.21 -1.75,-1.09 -1.66,-2.15 0.01,-0.06 0.02,-0.12 0.04,-0.18 0.04,-0.23 0.1,-0.43 0.21,-0.63 0.26,-0.39 0.71,-0.7 1.16,-0.83 0.57,-0.1 1.18,0 1.65,0.33 0.44,0.38 0.72,0.81 0.79,1.39 z"
       id="path21"
       style="fill:#ffffff" />
    <path
       class="cls-2"
       d="m 120.91,139.5 c -0.38,0.42 -0.57,0.93 -0.59,1.48 0,0.07 0,0.13 0.01,0.2 0,0.01 0,0.02 0,0.03 0,0.05 0.01,0.11 0.02,0.16 0,0 0,0.02 0,0.03 0,0.05 0.02,0.11 0.03,0.16 0,0 0,0.02 0,0.03 0.01,0.05 0.03,0.1 0.05,0.15 0,0.01 0,0.02 0.01,0.03 0.02,0.04 0.03,0.09 0.05,0.13 0,0.02 0.02,0.03 0.02,0.05 0.02,0.04 0.03,0.07 0.05,0.1 0.01,0.02 0.03,0.05 0.04,0.07 0.01,0.02 0.03,0.05 0.04,0.07 0.02,0.03 0.04,0.07 0.07,0.1 0,0 0.01,0.02 0.02,0.03 0.2,0.27 0.46,0.5 0.78,0.66 0.11,0.06 0.23,0.11 0.35,0.15 0.04,0 0.08,0.02 0.12,0.03 0.03,0 0.06,0.02 0.09,0.03 0.04,0 0.08,0 0.13,0 0.04,0 0.08,0 0.12,0 0.03,0 0.05,0 0.08,0 0.13,0 0.25,-0.01 0.36,-0.03 0,0 0,0 0,0.01 0.11,-0.01 0.14,-0.01 0.32,-0.1 0.09,-0.03 0.18,-0.07 0.27,-0.11 0.07,-0.02 0.14,-0.07 0.25,-0.14 0.13,-0.08 0.26,-0.18 0.39,-0.28 0.16,-0.15 0.28,-0.32 0.37,-0.51 0.04,-0.07 0.07,-0.15 0.1,-0.23 0.04,-0.13 0.07,-0.26 0.09,-0.4 h 0.01 c 0.01,-0.12 0.02,-0.23 0.02,-0.34 0,-0.02 0,-0.05 0,-0.07 0,-0.04 0,-0.08 0,-0.12 -0.01,-0.52 -0.39,-1.1 -0.77,-1.44 -0.05,-0.03 -0.09,-0.06 -0.13,-0.09 -0.42,-0.3 -0.81,-0.42 -1.32,-0.47 -0.56,0 -1.04,0.29 -1.47,0.64 z m 2.95,1.45 q 0,0.05 0,0.1 0,0.05 0,0.25 c -0.12,0.36 -0.26,0.63 -0.59,0.84 -0.03,0.02 -0.07,0.04 -0.1,0.06 -0.05,0.03 -0.09,0.06 -0.14,0.08 -0.07,0.03 -0.15,0.07 -0.22,0.1 -0.17,0.06 -0.34,0.08 -0.55,0.07 -0.76,-0.16 -1.28,-0.79 -1.21,-1.56 0,-0.04 0.02,-0.09 0.03,-0.13 0.03,-0.16 0.07,-0.31 0.15,-0.46 0.19,-0.28 0.52,-0.51 0.84,-0.61 0.42,-0.07 0.86,0 1.2,0.24 0.32,0.28 0.52,0.59 0.57,1.01 z"
       id="path22"
       style="fill:#ffffff" />
    <path
       class="cls-2"
       d="m 144.54,98.37 c -0.38,0.42 -0.57,0.93 -0.59,1.48 0,0.07 0,0.13 0.01,0.2 0,0.01 0,0.02 0,0.03 0,0.05 0.01,0.11 0.02,0.16 0,0 0,0.02 0,0.03 0,0.05 0.02,0.11 0.03,0.16 0,0 0,0.02 0,0.03 0.01,0.05 0.03,0.1 0.05,0.15 0,0.01 0,0.02 0.01,0.03 0.02,0.04 0.03,0.09 0.05,0.13 0,0.02 0.02,0.03 0.02,0.05 0.02,0.04 0.03,0.07 0.05,0.1 0.01,0.02 0.03,0.05 0.04,0.07 0.01,0.02 0.03,0.05 0.04,0.07 0.02,0.03 0.04,0.07 0.07,0.1 0,0 0.01,0.02 0.02,0.03 0.2,0.27 0.46,0.5 0.78,0.66 0.11,0.06 0.23,0.11 0.35,0.15 0.04,0 0.08,0.02 0.12,0.03 0.03,0 0.06,0.02 0.09,0.03 0.04,0 0.08,0 0.13,0 0.04,0 0.08,0 0.12,0 0.03,0 0.05,0 0.08,0 0.13,0 0.25,-0.01 0.36,-0.03 0,0 0,0 0,0.01 0.11,-0.01 0.14,-0.01 0.32,-0.1 0.09,-0.03 0.18,-0.07 0.27,-0.11 0.07,-0.02 0.14,-0.07 0.25,-0.14 0.13,-0.08 0.26,-0.18 0.39,-0.28 0.16,-0.15 0.28,-0.32 0.37,-0.51 0.04,-0.07 0.07,-0.15 0.1,-0.23 0.04,-0.13 0.07,-0.26 0.09,-0.4 h 0.01 c 0.01,-0.12 0.02,-0.23 0.02,-0.34 0,-0.02 0,-0.05 0,-0.07 0,-0.04 0,-0.08 0,-0.12 -0.01,-0.52 -0.39,-1.1 -0.77,-1.44 -0.05,-0.03 -0.09,-0.06 -0.13,-0.09 -0.42,-0.3 -0.81,-0.42 -1.32,-0.47 -0.56,0 -1.04,0.29 -1.47,0.64 z m 2.96,1.45 q 0,0.05 0,0.1 0,0.05 0,0.25 c -0.12,0.36 -0.26,0.63 -0.59,0.84 -0.03,0.02 -0.07,0.04 -0.1,0.06 -0.05,0.03 -0.09,0.06 -0.14,0.08 -0.07,0.03 -0.15,0.07 -0.22,0.1 -0.17,0.06 -0.34,0.08 -0.55,0.07 -0.76,-0.16 -1.28,-0.79 -1.21,-1.56 0,-0.04 0.02,-0.09 0.03,-0.13 0.03,-0.16 0.07,-0.31 0.15,-0.46 0.19,-0.28 0.52,-0.51 0.84,-0.61 0.42,-0.07 0.86,0 1.2,0.24 0.32,0.28 0.52,0.59 0.57,1.01 z"
       id="path23"
       style="fill:#ffffff" />
    <path
       class="cls-2"
       d="m 73.46,139.53 c -0.38,0.42 -0.57,0.93 -0.59,1.48 0,0.07 0,0.13 0.01,0.2 0,0.01 0,0.02 0,0.03 0,0.05 0.01,0.11 0.02,0.16 0,0 0,0.02 0,0.03 0,0.05 0.02,0.11 0.03,0.16 0,0 0,0.02 0,0.03 0.01,0.05 0.03,0.1 0.05,0.15 0,0.01 0,0.02 0.01,0.03 0.02,0.04 0.03,0.09 0.05,0.13 0,0.02 0.02,0.03 0.02,0.05 0.02,0.04 0.03,0.07 0.05,0.1 0.01,0.02 0.03,0.05 0.04,0.07 0.01,0.02 0.03,0.05 0.04,0.07 0.02,0.03 0.04,0.07 0.07,0.1 0,0 0.01,0.02 0.02,0.03 0.2,0.27 0.46,0.5 0.78,0.66 0.11,0.06 0.23,0.11 0.35,0.15 0.04,0 0.08,0.02 0.12,0.03 0.03,0 0.06,0.02 0.09,0.03 0.04,0 0.08,0 0.13,0 0.04,0 0.08,0 0.12,0 0.03,0 0.05,0 0.08,0 0.13,0 0.25,-0.01 0.36,-0.03 0,0 0,0 0,0.01 0.11,-0.01 0.14,-0.01 0.32,-0.1 0.09,-0.03 0.18,-0.07 0.27,-0.11 0.07,-0.02 0.14,-0.07 0.25,-0.14 0.13,-0.08 0.26,-0.18 0.39,-0.28 0.16,-0.15 0.28,-0.32 0.37,-0.51 0.04,-0.07 0.07,-0.15 0.1,-0.23 0.04,-0.13 0.07,-0.26 0.09,-0.4 h 0.01 c 0.01,-0.12 0.02,-0.23 0.02,-0.34 0,-0.02 0,-0.05 0,-0.07 0,-0.04 0,-0.08 0,-0.12 -0.01,-0.52 -0.39,-1.1 -0.77,-1.44 -0.05,-0.03 -0.09,-0.06 -0.13,-0.09 -0.42,-0.3 -0.81,-0.42 -1.32,-0.47 -0.56,0 -1.04,0.29 -1.47,0.64 z m 2.95,1.45 q 0,0.05 0,0.1 0,0.05 0,0.25 c -0.12,0.36 -0.26,0.63 -0.59,0.84 -0.03,0.02 -0.07,0.04 -0.1,0.06 -0.05,0.03 -0.09,0.06 -0.14,0.08 -0.07,0.03 -0.15,0.07 -0.22,0.1 -0.17,0.06 -0.34,0.08 -0.55,0.07 -0.76,-0.16 -1.28,-0.79 -1.21,-1.56 0,-0.04 0.02,-0.09 0.03,-0.13 0.03,-0.16 0.07,-0.31 0.15,-0.46 0.19,-0.28 0.52,-0.51 0.84,-0.61 0.42,-0.07 0.86,0 1.2,0.24 0.32,0.28 0.52,0.59 0.57,1.01 z"
       id="path24"
       style="fill:#ffffff" />
    <path
       class="cls-2"
       d="m 138.52,120.53 c -0.27,-0.67 -0.74,-1.18 -1.35,-1.52 -0.08,-0.04 -0.16,-0.07 -0.23,-0.1 -0.01,0 -0.03,0 -0.04,-0.01 -0.07,-0.03 -0.13,-0.05 -0.2,-0.07 -0.01,0 -0.02,0 -0.04,-0.01 -0.07,-0.02 -0.13,-0.04 -0.2,-0.05 -0.01,0 -0.02,0 -0.04,0 -0.07,-0.01 -0.13,-0.03 -0.2,-0.03 -0.02,0 -0.03,0 -0.05,0 -0.06,0 -0.12,-0.01 -0.18,-0.02 -0.02,0 -0.05,0 -0.07,0 -0.05,0 -0.1,0 -0.15,0 -0.04,0 -0.07,0 -0.1,0 -0.03,0 -0.07,0 -0.1,0 -0.05,0 -0.1,0.01 -0.15,0.02 -0.01,0 -0.03,0 -0.04,0 -0.42,0.07 -0.83,0.24 -1.19,0.51 -0.13,0.09 -0.25,0.19 -0.37,0.31 -0.03,0.04 -0.07,0.08 -0.1,0.12 -0.03,0.03 -0.06,0.06 -0.08,0.09 -0.03,0.05 -0.05,0.1 -0.07,0.14 -0.03,0.04 -0.05,0.09 -0.07,0.13 -0.01,0.03 -0.03,0.06 -0.04,0.09 -0.07,0.15 -0.13,0.29 -0.17,0.43 0,0 0,0 -0.01,0 -0.05,0.14 -0.06,0.16 -0.07,0.42 -0.02,0.12 -0.02,0.24 -0.02,0.37 -0.01,0.09 0,0.2 0.02,0.37 0.02,0.2 0.05,0.4 0.1,0.61 0.08,0.27 0.21,0.5 0.37,0.71 0.06,0.08 0.12,0.17 0.2,0.25 0.13,0.12 0.26,0.23 0.4,0.33 v 0.02 c 0.12,0.08 0.24,0.15 0.37,0.21 0.03,0.01 0.06,0.03 0.08,0.04 0.05,0.03 0.09,0.05 0.14,0.08 0.6,0.28 1.48,0.18 2.08,-0.05 0.06,-0.03 0.12,-0.07 0.18,-0.1 0.58,-0.31 0.94,-0.68 1.29,-1.24 0.33,-0.64 0.26,-1.35 0.11,-2.04 z m -3.39,2.67 q -0.07,-0.03 -0.13,-0.05 -0.06,-0.02 -0.31,-0.16 c -0.37,-0.36 -0.62,-0.71 -0.67,-1.23 0,-0.05 0,-0.11 -0.01,-0.16 0,-0.08 -0.01,-0.15 -0.02,-0.22 0,-0.11 0,-0.22 0.01,-0.33 0.03,-0.24 0.11,-0.46 0.25,-0.72 0.66,-0.84 1.76,-1.08 2.66,-0.53 0.05,0.04 0.1,0.08 0.15,0.11 0.18,0.14 0.34,0.28 0.47,0.47 0.23,0.41 0.31,0.95 0.23,1.41 -0.17,0.56 -0.53,1.05 -1.03,1.33 -0.54,0.23 -1.04,0.28 -1.6,0.08 z"
       id="path25"
       style="fill:#ffffff" />
    <path
       class="cls-2"
       d="m 133.37,103.35 c 0.89,0.03 1.69,-0.25 2.37,-0.77 0.08,-0.07 0.16,-0.14 0.23,-0.21 0.01,-0.01 0.02,-0.03 0.04,-0.04 0.06,-0.06 0.12,-0.12 0.17,-0.19 0.01,-0.01 0.02,-0.02 0.03,-0.04 0.06,-0.07 0.11,-0.13 0.16,-0.2 0,-0.01 0.02,-0.02 0.03,-0.04 0.05,-0.07 0.09,-0.14 0.14,-0.21 0,-0.02 0.02,-0.03 0.03,-0.05 0.04,-0.06 0.07,-0.13 0.11,-0.19 0.01,-0.03 0.03,-0.05 0.04,-0.08 0.03,-0.05 0.05,-0.11 0.07,-0.17 0.02,-0.04 0.03,-0.08 0.05,-0.12 0.01,-0.04 0.03,-0.08 0.04,-0.12 0.02,-0.06 0.04,-0.12 0.05,-0.18 0,-0.02 0,-0.03 0.01,-0.05 0.13,-0.51 0.14,-1.05 0.01,-1.59 -0.04,-0.19 -0.09,-0.38 -0.16,-0.57 -0.03,-0.06 -0.06,-0.11 -0.09,-0.17 -0.02,-0.05 -0.04,-0.09 -0.06,-0.14 -0.04,-0.05 -0.08,-0.1 -0.12,-0.15 -0.04,-0.05 -0.08,-0.1 -0.12,-0.15 -0.03,-0.03 -0.05,-0.06 -0.08,-0.09 -0.13,-0.15 -0.26,-0.29 -0.4,-0.41 0,0 0.01,0 0.02,0 -0.13,-0.12 -0.15,-0.15 -0.43,-0.29 -0.13,-0.08 -0.26,-0.15 -0.4,-0.21 -0.1,-0.06 -0.22,-0.11 -0.42,-0.16 -0.23,-0.08 -0.47,-0.14 -0.73,-0.19 -0.35,-0.04 -0.67,-0.01 -0.98,0.06 -0.12,0.02 -0.25,0.06 -0.38,0.1 -0.19,0.08 -0.38,0.18 -0.57,0.29 h -0.02 c -0.14,0.09 -0.28,0.19 -0.42,0.3 -0.03,0.02 -0.06,0.05 -0.09,0.07 -0.05,0.04 -0.1,0.08 -0.16,0.11 -0.61,0.53 -0.93,1.57 -0.97,2.37 0,0.09 0.01,0.17 0.02,0.26 0.06,0.8 0.3,1.39 0.75,2.07 0.55,0.69 1.39,0.96 2.24,1.14 z m -1.38,-5.19 q 0.06,-0.06 0.13,-0.13 0.07,-0.07 0.34,-0.28 c 0.61,-0.24 1.13,-0.35 1.78,-0.15 0.07,0.02 0.13,0.04 0.19,0.07 0.09,0.03 0.18,0.06 0.27,0.09 0.13,0.06 0.25,0.12 0.38,0.18 0.27,0.16 0.48,0.36 0.7,0.66 0.64,1.2 0.36,2.59 -0.75,3.36 -0.07,0.04 -0.14,0.08 -0.21,0.11 -0.26,0.14 -0.5,0.25 -0.79,0.3 -0.59,0.06 -1.26,-0.12 -1.75,-0.46 -0.56,-0.48 -0.95,-1.16 -1.01,-1.88 0.01,-0.74 0.2,-1.35 0.72,-1.9 z"
       id="path26"
       style="fill:#ffffff" />
    <path
       class="cls-2"
       d="m 101.27,129.88 c 0.7,-0.78 1.05,-1.72 1.09,-2.74 0,-0.12 0,-0.25 -0.02,-0.37 0,-0.02 0,-0.04 0,-0.06 -0.01,-0.1 -0.02,-0.2 -0.04,-0.3 0,-0.02 0,-0.04 -0.01,-0.05 -0.02,-0.1 -0.04,-0.2 -0.06,-0.29 0,-0.02 0,-0.03 -0.01,-0.05 -0.02,-0.09 -0.05,-0.19 -0.08,-0.28 0,-0.02 -0.02,-0.04 -0.02,-0.06 -0.03,-0.08 -0.06,-0.16 -0.1,-0.24 -0.01,-0.03 -0.03,-0.06 -0.04,-0.09 -0.03,-0.06 -0.06,-0.13 -0.09,-0.19 -0.02,-0.05 -0.05,-0.09 -0.07,-0.13 -0.02,-0.04 -0.05,-0.08 -0.08,-0.12 -0.04,-0.06 -0.08,-0.12 -0.12,-0.18 -0.01,-0.02 -0.02,-0.03 -0.04,-0.05 -0.37,-0.5 -0.85,-0.92 -1.44,-1.21 -0.2,-0.11 -0.42,-0.2 -0.64,-0.28 -0.08,-0.02 -0.15,-0.03 -0.22,-0.05 -0.06,-0.02 -0.11,-0.03 -0.17,-0.05 -0.08,0 -0.16,0 -0.23,0 -0.07,0 -0.15,0 -0.22,0 -0.05,0 -0.1,0 -0.14,0 -0.23,0 -0.46,0.02 -0.67,0.06 0,0 0,-0.01 0,-0.02 -0.21,0.02 -0.25,0.03 -0.59,0.18 -0.17,0.06 -0.33,0.13 -0.49,0.21 -0.12,0.04 -0.26,0.12 -0.47,0.26 -0.24,0.15 -0.48,0.33 -0.72,0.52 -0.3,0.28 -0.52,0.6 -0.68,0.94 -0.07,0.13 -0.14,0.27 -0.19,0.42 -0.07,0.24 -0.13,0.49 -0.17,0.73 h -0.02 c -0.02,0.22 -0.03,0.42 -0.04,0.63 0,0.05 0,0.09 0,0.14 0,0.08 0,0.15 -0.01,0.23 0.02,0.96 0.73,2.03 1.42,2.67 0.08,0.06 0.17,0.12 0.25,0.18 0.77,0.55 1.49,0.78 2.45,0.88 1.04,0.02 1.92,-0.54 2.72,-1.18 z m -5.89,-2.65 q 0,-0.11 -0.02,-0.22 -0.04,-0.28 0,-0.54 c 0.25,-0.77 0.56,-1.36 1.26,-1.8 0.07,-0.04 0.14,-0.09 0.21,-0.13 0.1,-0.07 0.2,-0.12 0.3,-0.18 0.16,-0.07 0.32,-0.14 0.47,-0.22 0.36,-0.13 0.73,-0.17 1.18,-0.15 1.64,0.34 2.75,1.7 2.61,3.37 -0.02,0.1 -0.04,0.19 -0.06,0.28 -0.07,0.35 -0.16,0.67 -0.33,0.99 -0.41,0.61 -1.11,1.1 -1.82,1.3 -0.9,0.16 -1.85,0 -2.59,-0.52 -0.7,-0.6 -1.13,-1.26 -1.23,-2.18 z"
       id="path27"
       style="fill:#ffffff" />
    <path
       class="cls-2"
       d="m 97.26,112.58 c 0,-0.15 0,-0.3 0,-0.45 h -0.08 c -0.08,-0.4 -0.18,-0.79 -0.32,-1.17 -0.12,-0.4 -0.3,-0.79 -0.54,-1.18 -0.06,-0.11 -0.11,-0.21 -0.17,-0.32 -0.05,-0.07 -0.1,-0.13 -0.16,-0.19 -0.04,-0.06 -0.08,-0.13 -0.13,-0.19 -0.04,-0.02 -0.07,-0.04 -0.11,-0.05 -0.13,-0.16 -0.26,-0.32 -0.41,-0.48 -0.22,-0.18 -0.46,-0.35 -0.7,-0.5 0,-0.01 0,-0.02 0,-0.03 -0.45,-0.26 -0.83,-0.48 -1.25,-0.61 -1.78,-0.72 -3.79,-0.73 -5.52,0.25 -0.08,0.05 -0.15,0.11 -0.23,0.16 -0.41,0.25 -0.8,0.55 -1.18,0.9 -0.26,0.28 -0.5,0.56 -0.72,0.85 -0.24,0.3 -0.45,0.62 -0.64,0.95 h -0.01 c -0.03,0.06 -0.05,0.11 -0.07,0.15 -0.27,0.51 -0.49,1.05 -0.62,1.64 -0.05,0.37 -0.07,0.72 -0.07,1.06 -0.03,0.58 -0.02,1.16 0.07,1.72 v 0.1 c 0,0 0,-0.02 0.01,-0.02 0.02,0.13 0.05,0.26 0.09,0.39 0.25,0.66 0.55,1.24 0.9,1.77 0.15,0.25 0.31,0.51 0.49,0.77 0.92,1.09 2.37,1.95 3.75,2.19 0.03,0 0.05,0 0.08,0 1.24,0.2 2.63,0.05 3.72,-0.42 0.23,-0.13 0.46,-0.26 0.68,-0.4 0.42,-0.23 0.83,-0.52 1.23,-0.86 0.44,-0.47 0.82,-0.95 1.13,-1.48 0.08,-0.13 0.16,-0.27 0.23,-0.41 0,0 0,-0.01 0,-0.02 0.16,-0.3 0.31,-0.62 0.43,-0.96 0.02,-0.11 0.03,-0.21 0.05,-0.32 0.06,-0.14 0.08,-0.3 0.09,-0.55 0.09,-0.77 0.08,-1.53 -0.02,-2.27 z m -1.01,-0.97 c 0.43,1.28 0.53,2.66 0.04,3.93 -0.02,-0.05 -0.05,-0.11 -0.09,-0.18 -0.63,1.38 -1.37,2.31 -2.64,3.11 -1.36,0.68 -3.39,0.81 -4.83,0.3 -1.38,-0.72 -2.1,-1.54 -2.76,-2.98 -0.14,-0.32 -0.29,-0.63 -0.44,-0.95 -0.15,-0.76 -0.18,-1.55 -0.1,-2.36 0.45,-1.38 1.09,-2.53 2.21,-3.43 0.19,-0.11 0.38,-0.23 0.56,-0.34 1.57,-0.97 3.31,-1.01 5.04,-0.42 1.54,0.67 2.36,1.72 3,3.31 z"
       id="path28"
       style="fill:#ffffff" />
    <path
       class="cls-2"
       d="m 113.29,113.12 c 0,-0.15 -0.02,-0.31 -0.03,-0.46 0,-0.05 -0.01,-0.11 -0.02,-0.16 -0.02,-0.21 -0.05,-0.41 -0.09,-0.61 -0.05,-0.16 -0.12,-0.31 -0.18,-0.46 -0.38,-0.94 -0.95,-1.75 -1.64,-2.44 0,0 -0.02,-0.02 -0.02,-0.02 -0.53,-0.52 -1.12,-0.98 -1.76,-1.38 -1.01,-0.52 -2.13,-0.71 -3.24,-0.63 -0.7,0.02 -1.37,0.13 -1.95,0.33 v 0.09 c -0.22,0.08 -0.45,0.17 -0.66,0.27 h -0.21 c -0.18,0.12 -0.35,0.24 -0.52,0.36 -0.1,0.07 -0.19,0.14 -0.29,0.21 -0.39,0.26 -0.77,0.55 -1.1,0.87 -0.88,1.07 -1.31,2.18 -1.5,3.41 h -0.07 c 0,0.16 0,0.32 -0.01,0.47 0,0.1 0,0.2 0,0.3 -0.02,0.33 -0.04,0.66 -0.04,1.01 0.01,0.12 0.03,0.25 0.05,0.37 0.06,0.61 0.2,1.18 0.51,1.68 0.18,0.4 0.4,0.79 0.64,1.15 0.04,0.06 0.08,0.12 0.12,0.18 0.01,0.02 0.02,0.03 0.03,0.05 0.09,0.13 0.18,0.26 0.28,0.38 0.15,0.16 0.3,0.32 0.46,0.47 0.01,0.01 0.03,0.03 0.04,0.04 0,0 0.02,0.01 0.03,0.02 0.7,0.65 1.51,1.17 2.43,1.35 0.21,0.06 0.41,0.12 0.63,0.16 0.01,0.03 0.03,0.06 0.04,0.08 0.24,0 0.49,0.02 0.74,0.03 0.59,0.05 1.2,0.04 1.87,-0.03 0.06,-0.01 0.11,-0.03 0.17,-0.05 0.23,-0.04 0.46,-0.09 0.69,-0.16 0.84,-0.35 1.54,-0.79 2.15,-1.32 0.07,-0.06 0.14,-0.13 0.21,-0.2 0.07,-0.07 0.15,-0.14 0.22,-0.21 0.21,-0.22 0.42,-0.44 0.61,-0.69 0.14,-0.09 0.19,-0.17 0.35,-0.47 0,0 0,-0.02 0.01,-0.03 0.02,-0.03 0.04,-0.05 0.06,-0.08 0.29,-0.48 0.5,-0.97 0.66,-1.46 h 0.09 c 0.05,-0.15 0.08,-0.31 0.12,-0.47 0.14,-0.64 0.18,-1.3 0.12,-1.95 z m -7.08,-5.17 c 1.78,-0.03 3.06,0.39 4.4,1.62 1.05,1.13 1.6,2.47 1.64,4.05 -0.08,1.65 -0.68,2.93 -1.81,4.09 -1.62,1.41 -3.3,1.58 -5.38,1.43 q -0.26,-0.09 -0.52,-0.18 c -1.13,-0.39 -1.88,-1 -2.6,-1.98 -0.1,-0.18 -0.2,-0.36 -0.28,-0.54 h 0.11 c -0.17,-0.58 -0.34,-1.03 -0.65,-1.53 -0.17,-0.77 -0.2,-1.57 -0.05,-2.42 0.48,-1.44 1.11,-2.67 2.37,-3.53 q 0.21,-0.12 0.41,-0.24 c 0.78,-0.45 1.46,-0.69 2.36,-0.77 z"
       id="path29"
       style="fill:#ffffff" />
  </g>
  <g
     id="g44"
     transform="matrix(1.00466,0,0,0.99995803,-45.529847,-45.13651)">
    <path
       class="cls-2"
       d="m 76.38,99.44 c -0.21,3.69 2.6,6.85 6.29,7.07 h 0.37 c 3.69,0 6.68,-3 6.67,-6.69 0,-3.69 -3,-6.68 -6.69,-6.67 -3.54,0 -6.46,2.76 -6.66,6.3 h 0.02 z"
       id="path30"
       style="fill:#ffffff" />
    <path
       class="cls-2"
       d="m 51.47,97.75 c -1.19,-0.07 -2.21,0.84 -2.27,2.03 -0.07,1.19 0.84,2.21 2.03,2.27 1.19,0.07 2.21,-0.84 2.27,-2.03 0.07,-1.19 -0.84,-2.21 -2.02,-2.28 0,0 0,0 -0.01,0 z"
       id="path31"
       style="fill:#ffffff" />
    <path
       class="cls-2"
       d="m 75.96,60.67 c 1.06,-0.55 1.48,-1.85 0.94,-2.91 -0.55,-1.06 -1.85,-1.48 -2.91,-0.94 -1.05,0.54 -1.48,1.83 -0.95,2.89 0.54,1.07 1.84,1.5 2.91,0.96 z"
       id="path32"
       style="fill:#ffffff" />
    <path
       class="cls-2"
       d="m 82.74,72.49 c 1.65,-0.83 2.31,-2.84 1.48,-4.48 -0.83,-1.65 -2.84,-2.31 -4.48,-1.48 -1.64,0.83 -2.31,2.83 -1.48,4.48 0.83,1.65 2.83,2.31 4.48,1.48 z"
       id="path33"
       style="fill:#ffffff" />
    <path
       class="cls-2"
       d="m 59.93,80.62 c 1.27,0.83 2.97,0.48 3.81,-0.79 0.83,-1.27 0.48,-2.97 -0.79,-3.81 -1.27,-0.83 -2.97,-0.48 -3.81,0.79 0,0 0,0 0,0 -0.83,1.27 -0.48,2.97 0.79,3.8 z"
       id="path34"
       style="fill:#ffffff" />
    <path
       class="cls-2"
       d="m 63.99,96.53 c -1.84,-0.1 -3.42,1.3 -3.52,3.14 -0.1,1.84 1.3,3.42 3.14,3.52 1.84,0.1 3.41,-1.3 3.52,-3.14 0.1,-1.84 -1.3,-3.42 -3.14,-3.52 z"
       id="path35"
       style="fill:#ffffff" />
    <path
       class="cls-2"
       d="m 60.29,118.96 c -1.35,0.68 -1.9,2.34 -1.21,3.69 0.68,1.35 2.34,1.9 3.69,1.21 1.35,-0.68 1.9,-2.34 1.21,-3.69 -0.68,-1.36 -2.34,-1.9 -3.69,-1.22 0,0 0,0 0,0 z"
       id="path36"
       style="fill:#ffffff" />
    <path
       class="cls-2"
       d="m 73.26,89.64 c 1.81,1.19 4.25,0.68 5.44,-1.13 1.19,-1.81 0.68,-4.25 -1.13,-5.44 -1.81,-1.19 -4.25,-0.68 -5.44,1.13 -1.19,1.81 -0.69,4.24 1.12,5.43 0,0 0,0 0,0 z"
       id="path37"
       style="fill:#ffffff" />
    <path
       class="cls-2"
       d="m 114.4,72.23 c 1.54,1.01 3.61,0.57 4.62,-0.97 1.01,-1.54 0.57,-3.61 -0.97,-4.62 -1.54,-1.01 -3.61,-0.57 -4.62,0.97 -1.01,1.54 -0.58,3.61 0.96,4.62 0,0 0,0 0,0 z"
       id="path38"
       style="fill:#ffffff" />
    <path
       class="cls-2"
       d="m 121.25,60.45 c 1,0.65 2.34,0.38 2.99,-0.62 0.65,-1 0.38,-2.34 -0.62,-2.99 -1,-0.65 -2.34,-0.38 -2.99,0.62 0,0 0,0 0,0 -0.65,1 -0.37,2.34 0.62,2.99 z"
       id="path39"
       style="fill:#ffffff" />
    <path
       class="cls-2"
       d="m 84.93,89.17 c 1.13,2.26 3.44,3.68 5.97,3.68 3.69,0 6.68,-2.99 6.68,-6.68 0,-1.05 -0.25,-2.08 -0.72,-3.02 -1.14,-2.25 -3.45,-3.66 -5.97,-3.65 -3.69,0 -6.68,3 -6.67,6.69 0,1.04 0.24,2.06 0.71,2.98 z"
       id="path40"
       style="fill:#ffffff" />
    <path
       class="cls-2"
       d="m 98.55,59.44 c 1.52,0.09 2.81,-1.07 2.9,-2.59 0.09,-1.52 -1.07,-2.81 -2.59,-2.9 -1.52,-0.09 -2.81,1.07 -2.9,2.59 0,0 0,0 0,0 -0.09,1.51 1.07,2.81 2.59,2.9 z"
       id="path41"
       style="fill:#ffffff" />
    <path
       class="cls-2"
       d="m 98.52,76.74 c 2.17,0.12 4.02,-1.54 4.14,-3.7 0.12,-2.17 -1.54,-4.02 -3.7,-4.14 -2.16,-0.12 -4.02,1.53 -4.14,3.7 -0.12,2.17 1.53,4.02 3.7,4.15 z"
       id="path42"
       style="fill:#ffffff" />
    <path
       class="cls-2"
       d="m 77.24,116.83 c 1.94,-0.98 2.72,-3.34 1.74,-5.28 -0.98,-1.94 -3.34,-2.72 -5.28,-1.74 -1.94,0.98 -2.72,3.34 -1.74,5.28 0,0 0,0 0,0 0.98,1.94 3.34,2.71 5.27,1.74 z"
       id="path43"
       style="fill:#ffffff" />
    <path
       class="cls-2"
       d="m 101.06,82.47 c -2.02,3.09 -1.16,7.23 1.93,9.25 3.09,2.02 7.23,1.16 9.25,-1.93 2.02,-3.09 1.16,-7.23 -1.93,-9.25 -1.09,-0.71 -2.35,-1.09 -3.65,-1.09 -2.25,0 -4.36,1.13 -5.6,3.02 z"
       id="path44"
       style="fill:#ffffff" />
  </g>
  <path
     class="cls-2"
     d="m 14.367986,106.01717 h 0.663075 c 1.808389,0.0174 3.616777,0.0401 5.425163,0.0498 0.71331,0 1.426615,0 2.129882,0.0109 1.687829,0 3.375658,0.0174 5.063486,0.0302 2.421232,0.0109 4.842457,0.0174 7.263689,0.0401 0.462147,0 0.924288,0 1.386431,0 3.456034,0.0174 6.912065,0.04 10.368094,0.0801 0.231065,0 0.4521,0 0.683165,0 2.441323,0.0303 4.8927,0.0497 7.334018,0.07 1.014711,0 2.039459,0.0109 3.054168,0.0174 1.818432,0.0109 3.646918,0.0174 5.465349,0.0301 1.70792,0 3.415845,0.0109 5.123771,0.0109 1.215631,0 2.421231,0 3.636863,0 2.953703,0 5.907399,0 8.861102,0 1.989228,0 3.978451,0 5.977729,0 2.360951,0 4.731951,0 7.092902,0 v 0 c 0.251135,0 0.502326,0 0.753495,0 q 0.190871,0 0.37174,0 c 0.864005,0 1.728011,0 2.592023,0 1.054888,0 2.099733,0 3.154629,0 0.432,0 0.85396,0 1.28597,0 0.60279,0 1.19554,0 1.79834,0 0.18086,0 0.36167,0 0.53246,0 0.17081,0 0.3416,0 0.51238,0 0.1507,0 0.31145,0 0.46215,0 0.23103,0 0.46215,0 0.69321,-0.0174 q 0.1909,-0.20003 0.1909,-1.30991 c 0,-0.0702 0,-0.13983 0,-0.21007 0,-0.0801 0,-0.13983 0,-0.28989 0,-0.55999 0,-1.11998 0,-1.68994 0,-0.41998 0,-0.82996 0,-1.24998 0,-1.01991 0,-2.049853 0,-3.069851 0,-1.379919 0,-2.749862 0,-4.129844 0,-2.309906 0,-4.619778 0,-6.939704 0,-2.299898 0,-4.60981 0,-6.909701 0,-0.149997 0,-0.28999 0,-0.429978 0,-0.729974 0,-1.449946 0,-2.179915 0,-5.139782 0,-10.279564 0,-15.419352 0,-4.999791 0,-10.009584 0,-15.009373 v 0 c 0,-0.06998 0,-0.129991 0,-0.189982 0,-0.08001 0,-0.140005 0,-0.279975 0,-1.339944 0,-2.679887 0,-4.019829 0,-1.409949 0,-2.819885 0,-4.229828 q 0,-9.909586 0,-35.8384939 c -9.644739,-0.019849 -19.279428,-0.039964 -28.924165,-0.059989 -1.165405,0 -2.320763,0 -3.486168,0 q -0.180823,0 -0.35162,0 c -3.707191,0 -7.414388,-0.010037 -11.121586,-0.019849 -3.837799,0 -7.665553,-0.010037 -11.493305,-0.019849 -2.149977,0 -4.299948,0 -6.459963,-0.010037 -2.421232,0 -4.842464,0 -7.263696,-0.010037 -0.200933,0 -0.391814,0 -0.592749,0 -6.650849,-0.019849 -13.291651,-0.059989 -19.942499,-0.140005 -0.703262,0 -1.406526,-0.019849 -2.109789,-0.019849 -0.482236,0 -0.964472,-0.010037 -1.446707,-0.019849 Q 10.610596,2.6142461 2.8546205,2.6142461 V 105.81986 c 3.8478479,0.0602 7.6956955,0.11998 11.5435475,0.17015 v 0 z M 3.5176549,72.648554 c -0.020069,-5.139788 -0.029996,-10.289567 -0.020069,-15.429357 0,-1.429944 0,-2.85988 0,-4.289821 0,-16.469306 0.070329,-32.938621 0.1908979,-49.407928 0.060274,0 0.1205467,0 0.1908764,0 2.9034679,0.1599868 5.7968884,0.1999947 8.7003568,0.1899819 0.622888,0 1.245775,0 1.868669,0 1.175451,0 2.360952,0 3.536401,0 1.346245,0 2.702535,0 4.04878,0 2.90347,0 5.81698,0 8.720448,0 v -0.059967 c 0.401868,0 0.80373,0 1.205592,0 2.752772,0.010037 5.515588,0.029863 8.268356,0.059989 v 0.1599647 h 8.388912 c 0.130602,0 0.271265,0.010037 0.401857,0.019849 v 0.1599873 h 2.541797 V 3.7012838 H 105.52086 V 105.477 c -14.718278,-0.0602 -29.014595,-0.1202 -43.300856,-0.17016 -0.01004,0.04 -0.03002,0.0801 -0.04017,0.11999 -0.04017,0 -0.09042,0 -0.130604,0 v -0.11999 c -5.786843,-0.0602 -11.563634,-0.10994 -17.350474,-0.17014 -0.231071,0 -0.452106,0 -0.673128,0 -10.800094,-0.1001 -21.590143,-0.21008 -32.390239,-0.20005 q -0.31144,0 -0.622888,0 c -2.4413243,0 -4.8725997,0 -7.3139248,0.0174 C 3.6382802,95.004481 3.578029,85.054898 3.5378248,75.105304 v -2.439897 z"
     id="path46"
     style="fill:#ffffff;stroke-width:1.00231" />
  <g
     id="g59"
     transform="matrix(1.00466,0,0,0.99995803,-45.529847,-45.13651)">
    <path
       class="cls-2"
       d="m 145.78,119.52 c 0,0 0,0 0,0 -0.02,0 -0.03,0 0,0 z"
       id="path47"
       style="fill:#ffffff" />
    <path
       class="cls-2"
       d="m 146.8,145.57 c 0,0 -0.05,-0.04 -0.07,-0.06 -0.02,-0.04 -0.06,-0.07 -0.1,-0.12 -0.04,-0.08 -0.04,-0.17 -0.03,-0.4 0,-0.18 0,-0.36 0,-0.54 q 0,-0.31 0,-0.62 c 0,-0.34 0,-0.69 0,-1.03 0,-0.63 0,-1.26 -0.01,-1.9 0,-0.67 0,-1.35 -0.01,-2.02 0,-1.27 -0.02,-2.54 -0.02,-3.81 0,-1.46 -0.02,-2.91 -0.03,-4.37 -0.02,-3.14 -0.04,-6.28 -0.06,-9.42 0,0 0,0 0.01,0 v -2.14 c 0,0 0,0 -0.01,0.01 h -0.15 c 0.12,-2.68 0.2,-5.36 0.24,-8.04 0,-0.36 0.01,-0.71 0.02,-1.07 0.03,-2.15 0.05,-4.3 0.06,-6.45 v -7.26 c -0.02,-5.68 -0.08,-11.36 -0.16,-17.04 h -0.17 c -0.05,1.62 -0.09,3.23 -0.14,4.85 -0.02,0.83 -0.04,1.65 -0.07,2.48 -0.02,0.81 -0.05,1.61 -0.07,2.42 0,0.31 -0.02,0.62 -0.02,0.93 -0.03,0.96 -0.05,1.91 -0.02,2.85 -0.24,-1.35 -0.52,-2.7 -0.85,-4.04 -0.04,-0.14 -0.07,-0.28 -0.11,-0.42 -0.58,-2.33 -1.37,-4.56 -2.31,-6.76 -0.1,-0.24 -0.2,-0.48 -0.31,-0.72 -0.15,-0.35 -0.3,-0.7 -0.45,-1.06 -0.16,-0.36 -0.31,-0.72 -0.46,-1.07 l -0.51,-1.06 c -0.08,-0.16 -0.15,-0.32 -0.23,-0.48 -0.11,-0.19 -0.22,-0.38 -0.33,-0.57 -0.23,-0.4 -0.44,-0.77 -0.71,-1.11 -1.59,-2.63 -3.37,-5.29 -5.52,-7.51 -0.08,-0.09 -0.17,-0.18 -0.26,-0.26 -0.18,-0.18 -0.37,-0.37 -0.56,-0.55 -0.31,-0.3 -0.64,-0.59 -0.97,-0.86 -0.06,0.12 -0.11,0.24 -0.17,0.35 0.12,0.13 0.24,0.26 0.36,0.39 0.16,0.17 0.31,0.33 0.47,0.5 0.16,0.17 0.31,0.33 0.46,0.5 0.02,0.02 0.03,0.03 0.05,0.04 0.36,0.4 0.71,0.81 1.06,1.23 0.14,0.16 0.27,0.32 0.4,0.48 0.14,0.17 0.28,0.33 0.41,0.49 0.13,0.16 0.26,0.31 0.38,0.46 0.03,0.03 0.06,0.06 0.09,0.08 1.18,1.47 2.22,3.03 3.18,4.65 0,0.01 0,0.02 -0.01,0.03 0.08,0.16 0.15,0.31 0.23,0.46 0.11,0.17 0.22,0.35 0.33,0.52 0.12,0.18 0.23,0.36 0.35,0.53 0.21,0.38 0.43,0.76 0.64,1.15 l 0.67,1.27 c 1.98,4.43 3.45,8.9 4.26,13.72 0.03,0.19 0.06,0.37 0.09,0.56 0.18,1.49 0.26,2.2 0.32,2.95 l -0.37,6.37 c -0.02,0.18 -0.03,0.35 -0.05,0.52 -0.02,0.18 -0.04,0.35 -0.05,0.52 -0.02,0.17 -0.03,0.33 -0.05,0.5 -0.02,0.2 -0.03,0.35 -0.03,0.49 -0.33,2.35 -0.79,4.67 -1.45,6.94 0,0.02 -0.01,0.05 -0.02,0.07 -0.16,0.56 -0.34,1.11 -0.53,1.67 -0.05,0.16 -0.11,0.32 -0.16,0.47 -0.2,0.55 -0.4,1.11 -0.62,1.65 -0.1,0.25 -0.21,0.5 -0.31,0.75 -0.38,1.01 -0.72,1.98 -1.37,2.83 l -0.34,0.71 c -0.07,0.14 -0.13,0.27 -0.19,0.41 -0.08,0.18 -0.16,0.36 -0.25,0.53 -0.11,0.23 -0.2,0.4 -0.26,0.56 -0.1,0.21 -0.21,0.43 -0.32,0.64 0,0 0,-0.01 0,-0.02 -0.06,0.12 -0.12,0.24 -0.18,0.36 -0.05,0.11 -0.08,0.17 -0.11,0.22 -0.75,1.4 -1.59,2.72 -2.55,4.04 -0.08,0.12 -0.17,0.23 -0.25,0.34 -0.62,0.85 -1.25,1.69 -1.92,2.5 -0.27,0.31 -0.53,0.63 -0.81,0.94 -0.1,0.11 -0.2,0.22 -0.3,0.33 -0.41,0.47 -0.78,0.89 -1.25,1.25 -0.1,0.08 -0.21,0.16 -0.33,0.23 -0.13,0.08 -0.25,0.15 -0.37,0.23 q -0.73,1.21 -1.9,2.07 c -0.17,0.14 -0.34,0.27 -0.5,0.41 -1.23,1 -2.46,1.97 -3.77,2.85 -0.09,0.06 -0.18,0.12 -0.27,0.18 -0.02,-0.03 -0.04,-0.07 -0.06,-0.1 l -4.72,2.99 c -1.95,1.04 -3.98,1.94 -6.06,2.6 -0.3,0.09 -0.6,0.19 -0.9,0.29 -5.35,1.82 -10.97,2.23 -16.57,2.35 q -0.19,0 -0.38,0 c 0.1,0.07 0.19,0.13 0.26,0.17 -0.09,0 -0.17,-0.01 -0.26,-0.02 q -0.28,0 -0.55,0 c -0.33,0 -0.66,0 -0.99,0.01 v 0.18 c -3.19,0.06 -6.28,0.11 -9.38,0.16 -0.09,0 -0.19,0 -0.28,0 -0.55,0 -1.1,0 -1.64,0 -0.25,0 -0.51,0 -0.76,0 -0.24,0 -0.48,0 -0.72,0 h -0.66 c -0.79,0 -1.54,0.07 -2.32,0.2 v 0.18 c 8.42,0.27 16.84,0.27 25.26,0.11 0.21,0 0.41,0 0.61,-0.01 1.7,-0.03 3.39,-0.06 5.09,-0.1 5.89,-0.12 11.78,-0.19 17.68,-0.19 h 0.44 c 2.89,0 5.77,0 8.66,0.02 1.09,0 2.18,0 3.27,0.01 0.75,0 1.51,0 2.26,0 0.47,0 0.93,0 1.4,0 0.22,0 0.43,0 0.64,0 q 0.31,0 0.61,0 c 0.19,0 0.37,0 0.55,0 q 0.24,0 0.48,0 c 0.1,-0.01 0.18,-0.02 0.24,-0.03 0.05,0 0.09,0 0.14,0 0.06,-0.06 0.11,-0.11 0.15,-0.16 0.05,-0.05 0.11,-0.11 0.19,-0.19 0,-0.17 0.01,-0.29 0.02,-0.4 0,-0.07 0,-0.14 0.01,-0.24 0,-0.1 0,-0.18 -0.01,-0.25 0,-0.1 -0.01,-0.21 -0.02,-0.36 z m -0.69,-0.35 q -0.69,0 -0.99,0.2 -0.3,0.2 -0.23,0.88 c 0,0.17 0,0.34 0.01,0.51 -3.94,0 -7.87,0 -11.81,0 -1.92,0 -3.84,0 -5.75,0 -1.68,0 -3.36,0 -5.04,0 -0.89,0 -1.79,0 -2.68,0 -3.31,0 -6.61,-0.02 -9.92,0.11 -0.98,0.04 -1.96,0.06 -2.94,0.07 -1.12,-0.06 -2.22,-0.11 -3.32,-0.16 v -0.12 c 2.11,-0.17 4.2,-0.48 6.25,-1.01 0.15,-0.04 0.29,-0.08 0.43,-0.12 2.2,-0.58 4.4,-1.17 6.48,-2.13 0.13,-0.06 0.25,-0.12 0.38,-0.17 1.18,-0.53 2.34,-1.09 3.48,-1.68 l 4.9,-2.85 c 1,-0.66 1.97,-1.36 2.93,-2.11 0.12,-0.09 0.23,-0.18 0.34,-0.27 1.14,-0.89 2.3,-1.76 3.29,-2.84 0.11,-0.12 0.21,-0.23 0.31,-0.35 0.36,-0.34 0.44,-0.41 0.58,-0.57 0,0 0,0 0.01,-0.01 0.01,-0.01 0.02,-0.03 0.03,-0.04 0.02,-0.03 0.05,-0.05 0.07,-0.08 0.09,-0.1 0.17,-0.21 0.26,-0.31 0.28,-0.33 0.56,-0.66 0.83,-0.99 1.07,-1.22 2.12,-2.47 3.05,-3.8 0.21,-0.31 0.43,-0.63 0.64,-0.94 0.54,-0.7 1.05,-1.38 1.46,-2.17 0,0 0.01,-0.02 0.02,-0.02 0.09,-0.17 0.18,-0.33 0.27,-0.49 0.16,-0.29 0.26,-0.61 0.42,-0.9 0.02,-0.05 0.04,-0.09 0.06,-0.14 0.08,-0.14 0.15,-0.27 0.23,-0.4 0.1,-0.18 0.2,-0.35 0.29,-0.53 0.16,-0.29 0.28,-0.48 0.35,-0.66 l 1.18,-2.57 c 1.23,-2.8 2.32,-5.64 3.02,-8.65 0.05,-0.21 0.09,-0.41 0.14,-0.62 0.04,-0.19 0.09,-0.38 0.13,-0.56 h 0.31 c 0.02,-0.23 0.04,-0.46 0.06,-0.69 q 0.03,-0.38 0.11,-0.73 c 0.08,-0.08 0.14,-0.14 0.19,-0.2 -0.03,0.8 -0.04,1.6 -0.04,2.41 0,0.26 0,0.52 0,0.78 0,0.55 0,1.1 0,1.65 0,0.71 0,1.42 0,2.13 0,0.56 0,1.12 0,1.68 0,0.27 0,0.53 0,0.8 0,0.38 0,0.76 0,1.14 0,0.12 0,0.23 0,0.35 0,0.57 -0.26,0.85 -0.09,1.23 -0.04,0.08 0,0.18 -0.03,0.25 0.01,0 0.03,0 0,0 v 2.37 c 0.05,5.93 0.11,11.71 0.16,17.48 h 0.17 v 5.85 z"
       id="path48"
       style="fill:#ffffff" />
    <path
       class="cls-2"
       d="m 61.7,146.89 c -0.64,0 -1.28,0 -1.92,0 -1.24,0 -2.49,0 -3.73,0 -0.13,0 -0.27,0 -0.4,0 v -0.35 q -0.17,-0.38 -0.51,-0.71 h -1.37 v -3.37 H 53.6 c -0.03,0.58 -0.05,1.16 -0.08,1.75 0,0.24 -0.02,0.47 -0.03,0.71 -0.01,0.24 -0.02,0.47 -0.03,0.71 0,0.23 -0.02,0.45 -0.03,0.67 q -0.03,0.62 0,1.12 0.46,0.47 1.54,0.53 c 0.07,-0.09 0.14,-0.17 0.21,-0.26 q 0.58,-0.35 1.27,-0.35 c 0.14,0 0.27,0 0.4,0 0.44,0 0.88,-0.01 1.32,-0.01 0.32,0 0.63,0 0.95,0 0.83,0 1.65,-0.02 2.48,-0.02 0.86,0 1.71,-0.01 2.57,-0.02 1.67,-0.02 3.33,-0.03 5,-0.04 q 0.27,0 0.54,0 v -0.18 q -2.57,-0.21 -8,-0.19 z"
       id="path49"
       style="fill:#ffffff" />
    <path
       class="cls-2"
       d="m 147.44,54.21 q -0.06,-1.08 -0.53,-1.54 -0.5,-0.02 -1.12,0 c -0.22,0 -0.45,0.02 -0.67,0.03 -0.24,0.01 -0.47,0.02 -0.71,0.03 -0.24,0 -0.47,0.02 -0.71,0.03 -0.58,0.02 -1.16,0.05 -1.75,0.08 v 0.17 h 3.37 v 1.37 q 0.33,0.34 0.71,0.51 h 0.35 c 0,0.13 0,0.26 0,0.4 0,1.24 0,2.49 0,3.73 0,0.64 0,1.28 0,1.92 q -0.02,5.43 0.19,8 h 0.18 q 0,-0.27 0,-0.54 c 0.01,-1.67 0.02,-3.33 0.04,-5 0,-0.86 0.01,-1.71 0.02,-2.57 0,-0.83 0.01,-1.65 0.02,-2.48 0,-0.32 0,-0.63 0,-0.95 0,-0.44 0,-0.88 0.01,-1.32 0,-0.13 0,-0.26 0,-0.4 q 0,-0.69 0.35,-1.27 c 0.09,-0.07 0.17,-0.14 0.26,-0.21 z"
       id="path50"
       style="fill:#ffffff" />
    <path
       class="cls-2"
       d="m 95.06,137.07 c -0.07,0 -0.13,-0.01 -0.2,-0.02 -0.19,-0.02 -0.38,-0.04 -0.57,-0.07 -0.36,-0.05 -0.73,-0.11 -1.09,-0.16 -0.98,-0.13 -1.98,-0.29 -2.97,-0.5 -2.3,-0.5 -4.56,-1.21 -6.73,-2.24 -0.02,0 -0.03,-0.01 -0.05,-0.02 -0.25,-0.12 -0.49,-0.24 -0.73,-0.38 q -0.36,-0.23 -0.69,-0.34 c -0.06,0.02 -0.11,0.05 -0.16,0.06 -0.06,-0.02 -0.12,-0.04 -0.18,-0.06 -0.12,0.12 -0.23,0.24 -0.34,0.35 4.43,2.36 9.53,3.75 14.56,4.04 v 0.03 h 0.67 c 0.67,0.03 1.34,0.03 2.01,0.02 0.2,0 0.38,-0.01 0.57,-0.02 0,0 0.12,0 0.12,0 h 0.04 c 0,0 0.01,0 0.01,0 0.79,0.02 1.59,0.02 2.38,0 h 1.39 v -0.06 c 2.61,-0.17 5.21,-0.61 7.71,-1.38 0.09,-0.02 0.18,-0.05 0.26,-0.08 0.67,-0.22 1.34,-0.46 1.99,-0.73 0.55,-0.22 1.35,-0.57 2.59,-1.13 0.05,-0.02 0.09,-0.04 0.13,-0.06 0.1,-0.05 0.21,-0.09 0.31,-0.14 0.1,0.01 0.19,-0.01 0.37,-0.07 0.12,-0.07 0.23,-0.13 0.34,-0.2 0.26,-0.15 0.51,-0.3 0.75,-0.47 0.3,-0.16 0.59,-0.32 0.89,-0.49 0.14,-0.02 0.24,-0.08 0.46,-0.21 q 0.21,-0.15 0.42,-0.3 h 0.02 c 1.96,-1.21 3.81,-2.59 5.51,-4.2 q 0.35,-0.4 0.35,-0.94 c -4.5,3.88 -9.44,6.77 -14.82,8.42 -0.02,0 -0.04,0 -0.07,0 -0.21,0.07 -0.25,0.08 -0.41,0.13 -3.14,0.91 -6.43,1.41 -9.87,1.42 -0.15,0 -0.29,0 -0.43,0 -1.29,0 -2.55,-0.03 -3.82,-0.15 -0.1,0 -0.21,-0.02 -0.31,-0.03 -0.14,-0.01 -0.29,-0.03 -0.43,-0.05 v 0 z"
       id="path51"
       style="fill:#ffffff" />
    <path
       class="cls-2"
       d="m 130.09,130.94 c -0.43,-0.44 -0.85,-0.87 -1.26,-1.32 -0.11,-0.12 -0.22,-0.25 -0.33,-0.37 -0.22,-0.25 -0.44,-0.49 -0.66,-0.74 -0.65,-0.75 -1.23,-1.45 -2.12,-1.9 q -0.19,0.2 -0.34,1.06 c 0.31,-0.16 0.34,-0.18 0.58,-0.3 0.26,0.21 0.52,0.43 0.76,0.66 0.12,0.13 0.24,0.26 0.36,0.39 0.04,0.04 0.08,0.07 0.12,0.1 0.69,0.84 1.42,1.63 2.18,2.41 0.15,0.15 0.29,0.3 0.44,0.45 0.52,0.53 1.03,1.06 1.55,1.59 q 0.09,-0.18 0.17,-0.35 c -0.07,-0.09 -0.15,-0.18 -0.22,-0.27 q -0.15,-0.18 -0.3,-0.37 c -0.3,-0.36 -0.61,-0.72 -0.94,-1.06 z"
       id="path52"
       style="fill:#ffffff" />
    <path
       class="cls-2"
       d="m 80.03,132.91 c 0.2,0.12 0.4,0.24 0.61,0.35 q 0.54,0.25 1.05,0.08 c -0.13,-0.09 -0.26,-0.18 -0.38,-0.27 q -0.26,-0.17 -0.51,-0.34 c -0.62,-0.43 -1.11,-0.71 -1.85,-0.81 v 0.35 c 0.26,0.15 0.51,0.3 0.77,0.45 0.11,0.06 0.21,0.12 0.31,0.18 z"
       id="path53"
       style="fill:#ffffff" />
    <path
       class="cls-2"
       d="m 126.78,106.72 c -0.12,0.54 -0.23,1.07 -0.34,1.59 0.17,0.12 0.34,0.24 0.51,0.35 0.63,-2.16 0.91,-4.24 1.02,-6.35 0.05,0.05 0.11,0.1 0.18,0.15 0,-0.56 0.01,-1.11 0.02,-1.67 0,-0.24 0,-0.46 0,-0.69 0.02,-1.41 0,-2.75 -0.28,-4.14 -0.03,-0.14 -0.06,-0.28 -0.09,-0.41 -0.29,-1.62 -0.64,-3.36 -1.24,-4.94 l -0.55,0.31 c 0,0 0,0.02 0,0.03 0.88,2.89 1.46,5.5 1.52,8.54 q 0,0.35 0,0.7 c 0,0.22 0,0.44 0.01,0.66 0,0.2 0,0.4 0,0.59 0,0.07 0.02,0.13 0.03,0.19 -0.15,1.73 -0.4,3.44 -0.79,5.16 -0.01,-0.03 -0.02,-0.05 -0.03,-0.07 z"
       id="path54"
       style="fill:#ffffff" />
    <path
       class="cls-2"
       d="m 71.49,126.79 c -0.29,0.29 -0.57,0.59 -0.86,0.89 -0.3,0.39 -0.59,0.78 -0.92,1.14 -0.83,0.84 -0.98,0.99 -2.14,2.31 0,-0.03 -0.01,-0.05 -0.02,-0.08 -0.23,0.28 -0.41,0.47 -0.53,0.69 -0.1,0.12 -0.21,0.24 -0.33,0.37 0.06,0.06 0.12,0.12 0.18,0.19 0,0.05 0,0.11 0,0.17 0.03,-0.03 0.06,-0.05 0.1,-0.08 0.03,0.03 0.05,0.05 0.08,0.08 0.12,-0.15 0.24,-0.29 0.36,-0.44 0.11,-0.09 0.22,-0.18 0.32,-0.27 0,-0.03 -0.02,-0.06 -0.02,-0.1 0.29,-0.35 0.6,-0.68 0.92,-1.01 0.18,-0.18 0.36,-0.36 0.54,-0.53 0.29,-0.29 0.57,-0.58 0.86,-0.86 0.29,-0.29 0.58,-0.58 0.87,-0.87 0.09,-0.09 0.18,-0.18 0.27,-0.28 0.17,-0.16 0.32,-0.32 0.47,-0.49 0.11,-0.12 0.2,-0.24 0.39,-0.47 Q 72,126.74 71.86,126.44 c -0.12,0.12 -0.23,0.24 -0.34,0.35 z"
       id="path55"
       style="fill:#ffffff" />
    <path
       class="cls-2"
       d="m 79.82,119.82 c 0,0 0.01,0 0.02,0.01 0.13,0.14 0.24,0.24 0.49,0.48 0.01,0 0.02,0 0.03,0 0.76,0.69 1.55,1.34 2.37,1.96 0.32,0.34 0.64,0.57 1.05,0.76 2.87,1.96 6.04,3.38 9.44,3.95 0.28,0.06 0.56,0.11 0.86,0.14 0.13,0 0.26,0.02 0.39,0.03 0.11,0.01 0.22,0.02 0.34,0.03 0.21,0.02 0.41,0.03 0.62,0.04 v -0.58 c -0.33,-0.07 -0.55,-0.1 -0.91,-0.12 -3.63,-0.6 -7.18,-1.69 -10.25,-3.69 0,0 0,-0.01 0.01,-0.02 -0.1,-0.07 -0.19,-0.13 -0.29,-0.2 q -0.19,-0.13 -0.38,-0.25 c -0.23,-0.15 -0.32,-0.22 -0.43,-0.28 -0.8,-0.6 -1.56,-1.27 -2.27,-2.01 -0.27,-0.3 -0.52,-0.56 -0.8,-0.77 -0.18,-0.15 -0.38,-0.28 -0.64,-0.38 v 0.53 c 0.13,0.14 0.21,0.24 0.29,0.32 0.02,0.02 0.04,0.04 0.06,0.07 z"
       id="path56"
       style="fill:#ffffff" />
    <path
       class="cls-2"
       d="m 107.4,127.34 c 0.29,-0.08 0.56,-0.19 0.83,-0.33 0.34,-0.14 0.67,-0.26 1.03,-0.36 1.04,-0.31 2.33,-0.69 3.39,-1.31 1.35,-0.49 2.61,-1.62 3.59,-2.5 0.28,-0.24 0.55,-0.47 0.85,-0.68 0.27,-0.16 0.5,-0.33 0.72,-0.54 1.54,-1.15 1.65,-1.3 1.8,-2.15 0.07,-0.04 0.12,-0.08 0.18,-0.12 l -0.5,-0.31 c 0,0 -0.04,0.05 -0.06,0.07 -0.07,0.08 -0.15,0.16 -0.22,0.24 -1.1,1.2 -2.24,2.28 -3.48,3.26 0,0 0,0 0,0 -0.03,0.02 -0.04,0.04 -0.06,0.06 -0.72,0.56 -1.48,1.08 -2.28,1.57 -0.06,0.02 -0.11,0.04 -0.2,0.08 -1.13,0.63 -2.27,1.14 -3.43,1.57 -0.03,0 -0.05,0.01 -0.08,0.02 0,0 0,0 0,0 -1.48,0.54 -3.01,0.94 -4.61,1.25 -0.11,0.02 -0.21,0.04 -0.32,0.06 -0.03,0 -0.06,0.01 -0.1,0.02 v 0.59 c 0.06,-0.02 0.13,-0.05 0.2,-0.09 0.8,0.32 0.99,0.31 2.77,-0.4 z"
       id="path57"
       style="fill:#ffffff" />
    <path
       class="cls-2"
       d="m 135.59,110.26 c -0.05,0.15 -0.06,0.19 -0.13,0.41 0,0.02 0,0.04 0,0.07 -1.02,3.35 -2.53,6.52 -4.46,9.53 -0.04,-0.07 -0.09,-0.14 -0.13,-0.2 -1.28,2.24 -2.81,4.23 -4.55,6.11 -0.14,0.15 -0.28,0.3 -0.42,0.45 0.17,0.06 0.34,0.12 0.51,0.18 0.37,-0.42 0.73,-0.84 1.09,-1.27 0.14,-0.04 0.25,-0.12 0.48,-0.31 1.61,-1.7 3,-3.55 4.19,-5.51 0,0 0,-0.01 0.01,-0.02 q 0.15,-0.21 0.3,-0.42 c 0.13,-0.22 0.19,-0.32 0.21,-0.46 0.17,-0.29 0.33,-0.59 0.49,-0.89 0.17,-0.24 0.32,-0.49 0.47,-0.75 0.06,-0.11 0.13,-0.23 0.2,-0.34 0.05,-0.19 0.08,-0.27 0.07,-0.37 0.05,-0.1 0.09,-0.21 0.14,-0.31 0.02,-0.04 0.04,-0.09 0.06,-0.13 0.56,-1.24 0.91,-2.03 1.13,-2.59 0.27,-0.66 0.51,-1.32 0.73,-1.99 0.03,-0.08 0.06,-0.16 0.08,-0.26 0.78,-2.5 1.22,-5.1 1.38,-7.71 h 0.06 v -1.39 c 0.02,-0.79 0.02,-1.59 0,-2.38 0,0 0,-0.01 0,-0.01 v -0.04 c 0,0 0,-0.12 0,-0.12 0,-0.19 0.01,-0.38 0.02,-0.57 0.01,-0.67 0,-1.34 -0.02,-2.01 v -0.03 h 0.23 c 0.19,-3.21 -0.87,-6.81 -2.05,-9.93 -0.61,-1.83 -1.36,-3.6 -2.26,-5.27 -0.12,0.11 -0.23,0.23 -0.35,0.34 0.02,0.06 0.04,0.12 0.06,0.19 -0.02,0.04 -0.04,0.1 -0.06,0.16 q 0.12,0.32 0.34,0.69 c 0.13,0.24 0.25,0.49 0.38,0.73 0,0.02 0.01,0.03 0.02,0.05 0.03,0.07 0.06,0.13 0.09,0.2 0.9,2.3 1.63,4.58 2.23,6.92 0.17,0.86 0.31,1.73 0.42,2.58 0.05,0.36 0.1,0.73 0.16,1.09 0.03,0.19 0.04,0.38 0.07,0.57 0,0.07 0.01,0.13 0.02,0.2 v 0 c 0.02,0.14 0.04,0.29 0.05,0.43 0,0.1 0.02,0.21 0.03,0.31 0.11,1.27 0.15,2.53 0.15,3.82 0,0.14 0,0.29 0,0.43 -0.01,3.44 -0.51,6.73 -1.42,9.87 z"
       id="path58"
       style="fill:#ffffff" />
    <path
       class="cls-2"
       d="m 120.95,78.39 c 0.17,-0.15 0.32,-0.3 0.49,-0.47 0.09,-0.09 0.18,-0.18 0.28,-0.27 0.29,-0.29 0.58,-0.58 0.87,-0.87 0.29,-0.29 0.57,-0.57 0.86,-0.86 0.18,-0.18 0.36,-0.36 0.53,-0.53 0.33,-0.33 0.66,-0.63 1.01,-0.92 0.03,0 0.06,0.02 0.1,0.02 0.09,-0.11 0.18,-0.22 0.27,-0.32 0.15,-0.12 0.29,-0.24 0.44,-0.36 0,0 -0.02,-0.02 -0.03,-0.03 0.19,-0.15 0.3,-0.24 0.41,-0.34 0.17,-0.15 0.32,-0.3 0.49,-0.46 0.09,-0.09 0.18,-0.18 0.28,-0.27 0.29,-0.29 0.58,-0.58 0.87,-0.87 0.29,-0.29 0.57,-0.57 0.86,-0.86 0.18,-0.18 0.36,-0.36 0.53,-0.54 0.33,-0.33 0.66,-0.63 1.01,-0.92 0.03,0 0.06,0.02 0.1,0.02 0.09,-0.11 0.18,-0.22 0.27,-0.32 0.15,-0.12 0.29,-0.24 0.44,-0.36 -0.03,-0.02 -0.05,-0.05 -0.08,-0.08 0.03,-0.03 0.05,-0.06 0.08,-0.1 -0.06,0 -0.11,0 -0.17,0 -0.06,-0.06 -0.12,-0.12 -0.19,-0.18 -0.13,0.12 -0.25,0.22 -0.37,0.33 -0.23,0.12 -0.42,0.3 -0.69,0.53 0.03,0 0.05,0.01 0.08,0.02 -1.32,1.17 -1.46,1.31 -2.31,2.14 -0.36,0.34 -0.75,0.62 -1.14,0.92 -0.3,0.28 -0.59,0.57 -0.89,0.86 -0.12,0.11 -0.23,0.23 -0.35,0.34 0.06,0.03 0.11,0.05 0.15,0.07 -0.02,0.02 -0.05,0.04 -0.07,0.07 -0.23,0.12 -0.42,0.3 -0.69,0.53 0.02,0 0.05,0.01 0.08,0.02 -1.32,1.17 -1.46,1.31 -2.31,2.14 -0.36,0.34 -0.75,0.62 -1.14,0.92 -0.3,0.28 -0.59,0.57 -0.89,0.86 -0.12,0.11 -0.23,0.23 -0.35,0.34 q 0.29,0.14 0.71,0.17 c 0.24,-0.19 0.35,-0.28 0.47,-0.39 z"
       id="path59"
       style="fill:#ffffff" />
  </g>
  <g
     id="g64"
     transform="matrix(1.00466,0,0,0.99995803,-45.529847,-45.13651)">
    <path
       class="cls-2"
       d="M 132.15,66.49 C 123.23,57.47 111.33,52.5 98.65,52.5 v -0.65 c 12.86,0 24.92,5.04 33.96,14.18 z"
       id="path60"
       style="fill:#ffffff" />
    <g
       id="g63">
      <path
         class="cls-2"
         d="m 73.38,125.26 c -6.92,-6.82 -10.74,-15.93 -10.74,-25.64 0,-19.85 16.15,-36 36,-36 9.71,0 18.81,3.81 25.64,10.73 l -0.46,0.46 c -6.7,-6.8 -15.64,-10.54 -25.17,-10.54 -19.49,0 -35.35,15.86 -35.35,35.35 0,9.53 3.74,18.47 10.54,25.17 l -0.46,0.46 z"
         id="path61"
         style="fill:#ffffff" />
      <path
         class="cls-2"
         d="M 65.05,133.59 C 55.9,124.54 50.87,112.48 50.87,99.63 50.87,73.29 72.3,51.85 98.65,51.85 v 0.65 c -25.99,0 -47.13,21.14 -47.13,47.13 0,12.68 4.97,24.58 13.99,33.5 z"
         id="path62"
         style="fill:#ffffff" />
      <path
         class="cls-2"
         d="m 79.36,119.29 c -5.33,-5.23 -8.26,-12.21 -8.26,-19.66 0,-15.19 12.36,-27.55 27.55,-27.55 7.45,0 14.44,2.93 19.66,8.26 l -0.46,0.46 c -5.1,-5.2 -11.92,-8.07 -19.2,-8.07 -14.83,0 -26.9,12.07 -26.9,26.9 0,7.28 2.86,14.09 8.06,19.2 l -0.46,0.46 z"
         id="path63"
         style="fill:#ffffff" />
    </g>
  </g>
</svg>
